<?xml version="1.0" encoding="utf-8"?>
<!-- Generator: Adobe Illustrator 17.0.1, SVG Export Plug-In . SVG Version: 6.00 Build 0)  -->
<!DOCTYPE svg PUBLIC "-//W3C//DTD SVG 1.1//EN" "http://www.w3.org/Graphics/SVG/1.1/DTD/svg11.dtd">
<svg version="1.1" id="Layer_1" xmlns:serif="http://www.serif.com/"
	 xmlns="http://www.w3.org/2000/svg" xmlns:xlink="http://www.w3.org/1999/xlink" x="0px" y="0px" width="795.08px" height="792px"
	 viewBox="571.281 0 795.08 792" enable-background="new 571.281 0 795.08 792" xml:space="preserve">
<g serif:id="Web development">
	<g>
		<g>
			<defs>
				<path id="SVGID_1_" d="M1087.866,386.149c-5.806-3.354-15.264-3.336-21.11,0.04L726.333,582.732
					c-5.846,3.372-5.876,8.834-0.07,12.188l223.953,129.3c5.806,3.351,15.267,3.333,21.113-0.04l340.423-196.544
					c5.843-3.375,5.876-8.837,0.067-12.191L1087.866,386.149L1087.866,386.149z"/>
			</defs>
			<clipPath id="SVGID_2_">
				<use xlink:href="#SVGID_1_"  overflow="visible"/>
			</clipPath>
			<g clip-path="url(#SVGID_2_)">
				<g transform="matrix(.99528 0 0 .9967 0 0)">
				</g>
			</g>
		</g>
	</g>
	<g transform="matrix(.99759 0 0 .9882 0 0)" display="none">
	</g>
	<path fill="#24E1C8" fill-opacity="0.899" d="M1036.078,269.186c9.321-5.383,16.888-1.011,16.888,9.751s-7.567,23.87-16.888,29.252
		c-9.321,5.383-16.891,1.011-16.891-9.751S1026.757,274.568,1036.078,269.186z"/>
	<path display="none" fill="#24E1C8" fill-opacity="0.899" d="M1024.308,309.462c-3.159-1.721-5.121-5.544-5.121-11.024
		c0-10.762,7.57-23.87,16.891-29.252c4.761-2.751,9.062-2.955,12.136-1.063l85.262,49.253l-0.003,0.003
		c2.933,1.815,4.74,5.547,4.74,10.802c0,10.765-7.567,23.873-16.888,29.252c-4.56,2.632-8.7,2.933-11.74,1.292
		c-0.135-0.073-0.268-0.149-0.399-0.228l-84.881-49.031L1024.308,309.462L1024.308,309.462z"/>
	
		<linearGradient id="SVGID_3_" gradientUnits="userSpaceOnUse" x1="294.1953" y1="240.9627" x2="295.1953" y2="240.9627" gradientTransform="matrix(38.4125 -68.386 68.386 38.4125 -26730.7324 11229.9023)">
		<stop  offset="0" style="stop-color:#593AF6;stop-opacity:0.899"/>
		<stop  offset="1" style="stop-color:#593AF6;stop-opacity:0"/>
	</linearGradient>
	<path display="none" fill="url(#SVGID_3_)" d="M1024.308,309.462c-3.159-1.721-5.121-5.544-5.121-11.024
		c0-10.762,7.57-23.87,16.891-29.252c4.761-2.751,9.062-2.955,12.136-1.063l85.262,49.253l-0.003,0.003
		c2.933,1.815,4.74,5.547,4.74,10.802c0,10.765-7.567,23.873-16.888,29.252c-4.56,2.632-8.7,2.933-11.74,1.292
		c-0.135-0.073-0.268-0.149-0.399-0.228l-84.881-49.031L1024.308,309.462L1024.308,309.462z"/>
	<path display="none" fill="#4FFCE7" fill-opacity="0.75" d="M1121.325,318.43c9.321-5.379,16.888-1.011,16.888,9.751
		c0,10.765-7.567,23.873-16.888,29.252c-9.321,5.383-16.891,1.014-16.891-9.751C1104.434,336.92,1112.004,323.812,1121.325,318.43z"
		/>
	
		<linearGradient id="SVGID_4_" gradientUnits="userSpaceOnUse" x1="306.8174" y1="270.0718" x2="307.8174" y2="270.0718" gradientTransform="matrix(-28.0768 65.5366 -65.5366 -28.0768 27454.1719 -12230.9932)">
		<stop  offset="0" style="stop-color:#BAFFF7"/>
		<stop  offset="1" style="stop-color:#BAFFF7;stop-opacity:0"/>
	</linearGradient>
	<path display="none" fill="url(#SVGID_4_)" d="M1121.325,318.43c9.321-5.379,16.888-1.011,16.888,9.751
		c0,10.765-7.567,23.873-16.888,29.252c-9.321,5.383-16.891,1.014-16.891-9.751C1104.434,336.92,1112.004,323.812,1121.325,318.43z"
		/>
	<g transform="scale(.9986 .99286)">
	</g>
	<path fill="#24E1C8" fill-opacity="0.899" d="M977.01,93.953c4.051-2.339,7.341-0.442,7.341,4.237s-3.29,10.375-7.341,12.715
		c-4.048,2.339-7.338,0.439-7.338-4.24C969.672,101.988,972.962,96.292,977.01,93.953z"/>
	<path fill="#24E1C8" fill-opacity="0.899" d="M971.896,111.459c-1.371-0.749-2.224-2.413-2.224-4.795
		c0-4.676,3.29-10.372,7.338-12.712c2.071-1.197,3.942-1.285,5.276-0.463l77.202,44.583h-0.003c1.276,0.789,2.059,2.413,2.059,4.697
		c0,4.676-3.287,10.375-7.338,12.712c-1.983,1.145-3.78,1.276-5.102,0.564c-0.059-0.032-0.117-0.066-0.174-0.101L971.896,111.459z"
		/>
	
		<linearGradient id="SVGID_5_" gradientUnits="userSpaceOnUse" x1="285.3439" y1="222.2869" x2="286.3439" y2="222.2869" gradientTransform="matrix(16.6953 -29.7227 29.7227 16.6953 -10368.5127 4918.3545)">
		<stop  offset="0" style="stop-color:#593AF6;stop-opacity:0.899"/>
		<stop  offset="1" style="stop-color:#593AF6;stop-opacity:0"/>
	</linearGradient>
	<path fill="url(#SVGID_5_)" d="M971.896,111.459c-1.371-0.749-2.224-2.413-2.224-4.795c0-4.676,3.29-10.372,7.338-12.712
		c2.071-1.197,3.942-1.285,5.276-0.463l77.202,44.583h-0.003c1.276,0.789,2.059,2.413,2.059,4.697
		c0,4.676-3.287,10.375-7.338,12.712c-1.983,1.145-3.78,1.276-5.102,0.564c-0.059-0.032-0.117-0.066-0.174-0.101L971.896,111.459z"
		/>
	<path fill="#4FFCE7" fill-opacity="0.75" d="M1054.206,138.53c4.051-2.336,7.338-0.439,7.338,4.24
		c0,4.676-3.287,10.375-7.338,12.712c-4.051,2.339-7.341,0.442-7.341-4.237S1050.154,140.869,1054.206,138.53z"/>
	
		<linearGradient id="SVGID_6_" gradientUnits="userSpaceOnUse" x1="314.3847" y1="290.7955" x2="315.3847" y2="290.7955" gradientTransform="matrix(-12.2031 28.4842 -28.4842 -12.2031 13181.9102 -5278.4307)">
		<stop  offset="0" style="stop-color:#BAFFF7"/>
		<stop  offset="1" style="stop-color:#BAFFF7;stop-opacity:0"/>
	</linearGradient>
	<path fill="url(#SVGID_6_)" d="M1054.206,138.53c4.051-2.336,7.338-0.439,7.338,4.24c0,4.676-3.287,10.375-7.338,12.712
		c-4.051,2.339-7.341,0.442-7.341-4.237S1050.154,140.869,1054.206,138.53z"/>
	<g>
		<path fill="#CACADC" d="M737.046,578.666c-0.229-2.339,1.225-4.74,4.35-6.543l335.126-193.486
			c5.754-3.32,15.015-3.372,20.662-0.11l217.885,125.797c2.793,1.611,4.182,3.732,4.182,5.864v9.866
			c0,2.184-1.459,4.383-4.371,6.065L979.752,719.605c-5.751,3.323-15.011,3.372-20.659,0.11L741.204,593.918
			c-2.583-1.49-3.966-3.418-4.158-5.389l-0.024,0.003v-9.866H737.046L737.046,578.666z"/>
		
			<linearGradient id="SVGID_7_" gradientUnits="userSpaceOnUse" x1="315.6747" y1="256.705" x2="316.6747" y2="256.705" gradientTransform="matrix(-82.2775 0 0 -82.2775 26983.7734 21670.166)">
			<stop  offset="0" style="stop-color:#FFFFFF;stop-opacity:0.5"/>
			<stop  offset="1" style="stop-color:#FFFFFF;stop-opacity:0"/>
		</linearGradient>
		<path fill="url(#SVGID_7_)" d="M737.046,578.666c-0.229-2.339,1.225-4.74,4.35-6.543l335.126-193.486
			c5.754-3.32,15.015-3.372,20.662-0.11l217.885,125.797c2.793,1.611,4.182,3.732,4.182,5.864v9.866
			c0,2.184-1.459,4.383-4.371,6.065L979.752,719.605c-5.751,3.323-15.011,3.372-20.659,0.11L741.204,593.918
			c-2.583-1.49-3.966-3.418-4.158-5.389l-0.024,0.003v-9.866H737.046L737.046,578.666z"/>
		<path fill="#DCDCE9" d="M1097.184,378.527c-5.648-3.262-14.908-3.211-20.662,0.11L741.396,572.122
			c-5.754,3.323-5.839,8.669-0.192,11.932l217.888,125.794c5.648,3.262,14.908,3.214,20.659-0.11l335.129-193.486
			c5.754-3.32,5.839-8.666,0.189-11.929L1097.184,378.527L1097.184,378.527z"/>
		
			<linearGradient id="SVGID_8_" gradientUnits="userSpaceOnUse" x1="302.306" y1="254.0636" x2="303.306" y2="254.0636" gradientTransform="matrix(-924.4894 0 0 -924.4894 280982.0313 235423.2969)">
			<stop  offset="0" style="stop-color:#FFFFFF"/>
			<stop  offset="1" style="stop-color:#FFFFFF;stop-opacity:0"/>
		</linearGradient>
		<path fill="url(#SVGID_8_)" d="M1097.184,378.527c-5.648-3.262-14.908-3.211-20.662,0.11L741.396,572.122
			c-5.754,3.323-5.839,8.669-0.192,11.932l217.888,125.794c5.648,3.262,14.908,3.214,20.659-0.11l335.129-193.486
			c5.754-3.32,5.839-8.666,0.189-11.929L1097.184,378.527L1097.184,378.527z"/>
		<path fill="#C8C8DC" d="M1112.119,523.082c-1.913-1.103-5.047-1.087-6.994,0.04l-113.478,65.514
			c-1.946,1.124-1.977,2.937-0.064,4.039l86.828,50.131c1.913,1.106,5.051,1.087,6.997-0.037l113.478-65.517
			c1.947-1.124,1.977-2.933,0.064-4.039L1112.119,523.082L1112.119,523.082z"/>
		<path fill="#DCDCE9" d="M1112.156,524.855c-1.876-1.084-4.95-1.069-6.863,0.036L993.977,589.16
			c-1.91,1.103-1.937,2.879-0.061,3.96l85.173,49.177c1.876,1.081,4.95,1.066,6.863-0.036l111.316-64.268
			c1.91-1.103,1.937-2.879,0.061-3.963L1112.156,524.855z"/>
		<path fill="#CACADC" d="M1088.036,406.561c-0.85-0.49-2.239-0.484-3.104,0.015L793.519,574.824
			c-0.862,0.497-0.877,1.301-0.027,1.791l104.309,60.222c0.847,0.49,2.239,0.481,3.104-0.015l291.41-168.248
			c0.865-0.5,0.877-1.301,0.031-1.791L1088.036,406.561z"/>
		<path fill="#0B0619" d="M759.326,599.523c0-1.578,0.96-2.303,2.141-1.621l10.552,6.095c1.182,0.682,2.141,2.513,2.141,4.091
			c0,1.575-0.96,2.3-2.141,1.617l-10.552-6.092C760.286,602.931,759.326,601.098,759.326,599.523L759.326,599.523z M782.346,612.813
			c0-1.575,0.96-2.303,2.141-1.621l10.555,6.095c1.182,0.682,2.141,2.516,2.141,4.091s-0.96,2.303-2.141,1.621l-10.555-6.095
			C783.305,616.222,782.346,614.388,782.346,612.813z"/>
		<path fill="#23212B" d="M882.193,623.782c0.012-0.393,0.256-0.768,0.743-1.051l12.005-6.915c1.1-0.634,3.022-0.554,4.292,0.18
			l13.43,7.756c0.695,0.402,1.051,0.92,1.048,1.407v1.77c0,0.402-0.244,0.786-0.74,1.072l-12.005,6.918
			c-1.1,0.634-3.025,0.551-4.292-0.18l-13.43-7.755c-0.695-0.402-1.051-0.917-1.051-1.401L882.193,623.782L882.193,623.782z
			 M901.386,612.7c0.009-0.393,0.256-0.768,0.743-1.048l12.005-6.918c1.1-0.634,3.022-0.551,4.292,0.18l13.43,7.756
			c0.695,0.402,1.051,0.92,1.048,1.407v1.77c0,0.402-0.244,0.786-0.74,1.072l-12.008,6.918c-1.097,0.634-3.022,0.551-4.289-0.18
			l-13.43-7.755c-0.695-0.402-1.051-0.914-1.051-1.401L901.386,612.7L901.386,612.7z M860.568,611.296
			c0.009-0.393,0.253-0.768,0.74-1.051l39.216-22.593c1.1-0.631,3.022-0.551,4.292,0.183l13.43,7.755
			c0.695,0.402,1.051,0.92,1.048,1.407v1.767c0,0.405-0.244,0.789-0.74,1.075l-39.216,22.593c-1.1,0.634-3.022,0.551-4.292-0.18
			l-13.43-7.755c-0.695-0.402-1.048-0.914-1.048-1.401V611.296L860.568,611.296z M920.58,601.618
			c0.009-0.393,0.253-0.768,0.74-1.048l12.008-6.918c1.1-0.634,3.022-0.551,4.289,0.18l13.43,7.756
			c0.698,0.402,1.054,0.92,1.051,1.407v1.77c0,0.402-0.244,0.786-0.743,1.075l-12.005,6.915c-1.1,0.634-3.022,0.554-4.289-0.18
			l-13.43-7.755c-0.695-0.402-1.051-0.914-1.051-1.401V601.618z M838.867,598.767c0.009-0.393,0.253-0.768,0.74-1.051l27.814-16.023
			c1.1-0.634,3.022-0.554,4.292,0.18l13.43,7.756c0.695,0.402,1.051,0.92,1.048,1.407v1.77c0,0.402-0.244,0.786-0.74,1.072
			l-27.814,16.026c-1.1,0.634-3.022,0.551-4.292-0.18l-13.43-7.756c-0.695-0.402-1.048-0.914-1.048-1.401V598.767z M939.829,590.506
			c0.012-0.396,0.256-0.768,0.743-1.051l16.455-9.48c1.1-0.634,3.022-0.551,4.292,0.18l13.43,7.756
			c0.695,0.402,1.051,0.92,1.048,1.407v1.77c0,0.402-0.244,0.786-0.74,1.075l-16.455,9.48c-1.1,0.634-3.022,0.551-4.292-0.18
			l-13.43-7.756c-0.695-0.402-1.051-0.917-1.051-1.401L939.829,590.506L939.829,590.506z M817.16,586.244
			c0.012-0.393,0.256-0.768,0.743-1.048l23.309-13.43c1.1-0.634,3.022-0.551,4.292,0.183l13.43,7.755
			c0.698,0.402,1.051,0.917,1.051,1.407v1.767c0,0.402-0.244,0.789-0.743,1.075l-23.309,13.43c-1.1,0.631-3.022,0.551-4.292-0.183
			l-13.43-7.755c-0.695-0.399-1.051-0.914-1.051-1.401V586.244z M907.372,584.146c0.009-0.393,0.256-0.768,0.743-1.048l12.952-7.463
			c1.1-0.634,3.022-0.551,4.292,0.18l13.43,7.755c0.695,0.402,1.051,0.92,1.051,1.407v1.77c0,0.402-0.247,0.786-0.743,1.075
			l-12.955,7.463c-1.097,0.631-3.022,0.551-4.289-0.183l-13.43-7.756c-0.695-0.399-1.051-0.914-1.051-1.401V584.146z
			 M874.038,578.449c0.009-0.396,0.253-0.771,0.74-1.051l12.955-7.463c1.097-0.634,3.022-0.551,4.289,0.18l13.43,7.755
			c0.698,0.402,1.054,0.92,1.051,1.407v1.77c0,0.402-0.244,0.786-0.743,1.075l-12.952,7.463c-1.1,0.634-3.022,0.551-4.292-0.183
			l-13.43-7.755c-0.695-0.399-1.051-0.914-1.051-1.398L874.038,578.449L874.038,578.449z M963.552,576.807
			c0.009-0.393,0.256-0.768,0.743-1.048l101.818-58.66c1.1-0.631,3.022-0.551,4.292,0.183l13.431,7.755
			c0.694,0.402,1.051,0.92,1.048,1.407l0.003,1.767c0,0.405-0.247,0.789-0.743,1.075l-101.821,58.66
			c-1.1,0.631-3.022,0.551-4.289-0.183l-13.43-7.756c-0.695-0.399-1.051-0.914-1.051-1.401v-1.799H963.552z M795.502,573.679
			c0.009-0.393,0.256-0.768,0.743-1.051l12.952-7.463c1.1-0.634,3.022-0.551,4.292,0.183l13.43,7.756
			c0.695,0.402,1.051,0.917,1.051,1.407v1.767c0,0.402-0.247,0.789-0.743,1.075l-12.955,7.463c-1.097,0.634-3.022,0.551-4.289-0.18
			l-13.43-7.756c-0.695-0.402-1.051-0.914-1.051-1.401V573.679L795.502,573.679z M927.51,572.564
			c0.012-0.393,0.256-0.768,0.743-1.051l12.952-7.463c1.1-0.634,3.022-0.551,4.292,0.183l13.43,7.755
			c0.698,0.402,1.051,0.917,1.051,1.407v1.767c0,0.402-0.244,0.789-0.743,1.075l-12.952,7.463c-1.1,0.634-3.025,0.551-4.292-0.18
			l-13.43-7.756c-0.695-0.402-1.051-0.914-1.051-1.401V572.564L927.51,572.564z M847.734,568.58
			c0.012-0.393,0.256-0.768,0.743-1.048l12.952-7.463c1.1-0.634,3.022-0.554,4.292,0.18l13.43,7.755
			c0.698,0.402,1.051,0.92,1.051,1.407v1.77c0,0.402-0.244,0.786-0.743,1.072l-12.952,7.463c-1.1,0.634-3.025,0.554-4.292-0.18
			l-13.43-7.755c-0.695-0.402-1.051-0.914-1.051-1.401V568.58z M894.517,566.624c0.009-0.393,0.253-0.768,0.74-1.051l12.955-7.463
			c1.1-0.634,3.022-0.551,4.292,0.183l13.43,7.756c0.695,0.402,1.051,0.917,1.048,1.407v1.767c0,0.402-0.244,0.789-0.74,1.075
			l-12.955,7.463c-1.1,0.634-3.022,0.551-4.289-0.18l-13.43-7.756c-0.695-0.402-1.051-0.914-1.051-1.401L894.517,566.624
			L894.517,566.624z M815.984,561.854c0.009-0.393,0.253-0.768,0.74-1.048l12.955-7.463c1.097-0.634,3.022-0.554,4.289,0.18
			l13.43,7.755c0.698,0.402,1.054,0.92,1.051,1.407v1.767c0,0.405-0.244,0.789-0.743,1.075l-12.952,7.463
			c-1.1,0.634-3.022,0.554-4.292-0.18l-13.43-7.756c-0.695-0.402-1.051-0.914-1.051-1.401L815.984,561.854L815.984,561.854z
			 M947.91,560.785c0.012-0.393,0.256-0.768,0.743-1.048l12.952-7.463c1.1-0.634,3.025-0.554,4.292,0.18l13.43,7.756
			c0.698,0.402,1.054,0.92,1.051,1.407v1.77c0,0.402-0.244,0.786-0.743,1.072l-12.952,7.463c-1.1,0.634-3.022,0.554-4.292-0.18
			l-13.43-7.756c-0.695-0.402-1.051-0.914-1.051-1.401V560.785z M868.217,556.758c0.009-0.396,0.253-0.771,0.74-1.051l12.955-7.463
			c1.1-0.634,3.022-0.551,4.289,0.18l13.43,7.756c0.698,0.402,1.054,0.92,1.051,1.407v1.77c0,0.402-0.244,0.786-0.74,1.075
			l-12.955,7.463c-1.1,0.634-3.022,0.551-4.292-0.183l-13.43-7.756c-0.695-0.399-1.048-0.914-1.048-1.401L868.217,556.758
			L868.217,556.758z M914.659,554.994c0.009-0.393,0.256-0.768,0.743-1.048l12.952-7.463c1.1-0.634,3.022-0.554,4.292,0.18
			l13.43,7.755c0.695,0.402,1.051,0.92,1.051,1.407v1.77c0,0.402-0.247,0.786-0.743,1.072l-12.955,7.463
			c-1.097,0.634-3.022,0.554-4.289-0.18l-13.43-7.755c-0.695-0.399-1.051-0.914-1.051-1.401V554.994z M836.126,550.227
			c0.009-0.396,0.253-0.771,0.74-1.051l12.955-7.463c1.1-0.634,3.022-0.551,4.289,0.18l13.43,7.756
			c0.698,0.402,1.054,0.92,1.051,1.407v1.77c0,0.402-0.244,0.786-0.743,1.075l-12.952,7.463c-1.1,0.634-3.022,0.551-4.292-0.183
			l-13.43-7.756c-0.695-0.399-1.048-0.914-1.048-1.401L836.126,550.227L836.126,550.227z M968.393,548.96
			c0.009-0.393,0.253-0.768,0.74-1.048l12.955-7.463c1.1-0.634,3.022-0.551,4.292,0.18l13.43,7.756
			c0.695,0.402,1.051,0.92,1.048,1.407v1.77c0,0.402-0.244,0.786-0.74,1.072l-12.955,7.466c-1.1,0.631-3.022,0.551-4.292-0.183
			l-13.43-7.756c-0.691-0.399-1.048-0.914-1.048-1.401V548.96L968.393,548.96z M888.358,545.128c0.009-0.393,0.253-0.768,0.74-1.048
			l12.955-7.463c1.1-0.634,3.022-0.554,4.292,0.18l13.43,7.756c0.695,0.402,1.051,0.92,1.048,1.407v1.767
			c0,0.405-0.244,0.789-0.74,1.075l-12.955,7.463c-1.1,0.634-3.022,0.551-4.292-0.18l-13.43-7.756
			c-0.691-0.402-1.048-0.914-1.048-1.401V545.128z M935.059,543.218c0.012-0.396,0.256-0.771,0.743-1.051l12.952-7.463
			c1.1-0.634,3.022-0.551,4.292,0.18l13.43,7.755c0.698,0.402,1.051,0.92,1.051,1.407v1.77c0,0.402-0.244,0.789-0.743,1.075
			l-12.952,7.463c-1.1,0.634-3.022,0.551-4.292-0.18l-13.43-7.756c-0.695-0.402-1.051-0.917-1.051-1.401V543.218L935.059,543.218z
			 M856.526,538.447c0.009-0.393,0.253-0.768,0.74-1.048l12.955-7.466c1.1-0.631,3.022-0.551,4.292,0.183l13.431,7.756
			c0.694,0.402,1.051,0.92,1.048,1.407v1.767c0,0.405-0.244,0.789-0.74,1.075l-12.955,7.463c-1.1,0.634-3.022,0.551-4.292-0.18
			l-13.43-7.756c-0.691-0.402-1.048-0.914-1.048-1.401L856.526,538.447L856.526,538.447z M988.534,537.332
			c0.009-0.393,0.253-0.768,0.743-1.051l12.952-7.463c1.1-0.631,3.022-0.551,4.292,0.183l13.43,7.755
			c0.695,0.402,1.051,0.92,1.048,1.407v1.767c0,0.405-0.244,0.789-0.74,1.075l-12.955,7.463c-1.1,0.634-3.022,0.551-4.289-0.18
			l-13.43-7.756c-0.695-0.402-1.051-0.914-1.051-1.401L988.534,537.332L988.534,537.332z M908.758,533.348
			c0.009-0.393,0.253-0.768,0.743-1.048l12.952-7.463c1.1-0.634,3.022-0.551,4.292,0.18l13.43,7.755
			c0.695,0.402,1.051,0.92,1.048,1.407v1.77c0,0.402-0.244,0.786-0.74,1.072l-12.955,7.463c-1.1,0.634-3.022,0.554-4.289-0.18
			l-13.43-7.755c-0.695-0.399-1.051-0.914-1.051-1.401L908.758,533.348L908.758,533.348z M955.541,531.392
			c0.009-0.393,0.253-0.768,0.74-1.048l12.955-7.466c1.1-0.631,3.022-0.551,4.289,0.183l13.434,7.756
			c0.695,0.402,1.051,0.92,1.048,1.407v1.767c0,0.405-0.244,0.789-0.74,1.075l-12.955,7.463c-1.1,0.634-3.022,0.551-4.292-0.18
			l-13.43-7.756c-0.695-0.402-1.048-0.914-1.048-1.401L955.541,531.392L955.541,531.392z M877.005,526.622
			c0.012-0.393,0.256-0.768,0.743-1.048l12.952-7.463c1.1-0.634,3.022-0.554,4.292,0.18l13.43,7.755
			c0.698,0.402,1.051,0.92,1.051,1.407v1.767c0,0.405-0.244,0.789-0.743,1.075l-12.952,7.463c-1.1,0.634-3.025,0.554-4.292-0.18
			l-13.43-7.756c-0.695-0.402-1.051-0.914-1.051-1.401V526.622z M1008.949,525.544c0.012-0.393,0.256-0.768,0.743-1.048
			l12.952-7.463c1.1-0.634,3.025-0.554,4.292,0.18l13.43,7.756c0.698,0.402,1.054,0.92,1.051,1.407v1.77
			c0,0.402-0.244,0.786-0.743,1.072l-12.952,7.463c-1.1,0.634-3.022,0.554-4.292-0.18l-13.43-7.756
			c-0.695-0.399-1.051-0.914-1.051-1.401L1008.949,525.544L1008.949,525.544z M929.237,521.526c0.012-0.396,0.256-0.771,0.743-1.051
			l12.955-7.463c1.097-0.634,3.022-0.551,4.289,0.18l13.43,7.756c0.698,0.402,1.054,0.92,1.051,1.407v1.77
			c0,0.402-0.244,0.786-0.743,1.075l-12.952,7.463c-1.1,0.634-3.022,0.551-4.292-0.183l-13.43-7.756
			c-0.695-0.399-1.051-0.914-1.051-1.398V521.526z M975.682,519.762c0.009-0.393,0.253-0.768,0.74-1.048l12.955-7.463
			c1.1-0.634,3.022-0.551,4.292,0.18l13.43,7.756c0.694,0.402,1.051,0.92,1.048,1.407v1.77c0,0.402-0.244,0.786-0.74,1.072
			l-12.955,7.463c-1.1,0.634-3.022,0.554-4.292-0.18l-13.43-7.755c-0.692-0.399-1.048-0.914-1.048-1.401V519.762z M897.146,514.995
			c0.012-0.396,0.256-0.771,0.743-1.051l12.952-7.463c1.1-0.634,3.025-0.551,4.292,0.18l13.43,7.756
			c0.698,0.402,1.054,0.92,1.051,1.407v1.77c0,0.402-0.244,0.786-0.743,1.075l-12.952,7.463c-1.1,0.634-3.022,0.551-4.292-0.183
			l-13.43-7.756c-0.694-0.399-1.051-0.914-1.051-1.398V514.995z M1072.708,513.789c0.009-0.396,0.256-0.771,0.743-1.051l16.455-9.48
			c1.1-0.634,3.022-0.551,4.292,0.18l13.43,7.756c0.695,0.402,1.051,0.92,1.048,1.407v1.77c0,0.402-0.244,0.786-0.74,1.075
			l-16.458,9.48c-1.097,0.634-3.022,0.551-4.289-0.183l-13.43-7.755c-0.695-0.399-1.051-0.914-1.051-1.398V513.789L1072.708,513.789
			z M1029.432,513.722c0.009-0.396,0.253-0.771,0.74-1.051l12.955-7.463c1.1-0.634,3.022-0.551,4.292,0.18l13.43,7.756
			c0.695,0.402,1.051,0.92,1.048,1.407v1.77c0,0.402-0.244,0.786-0.74,1.075l-12.955,7.463c-1.1,0.634-3.022,0.551-4.292-0.183
			l-13.43-7.755c-0.694-0.399-1.048-0.914-1.048-1.401V513.722z M949.382,509.896c0.009-0.393,0.253-0.768,0.74-1.048l12.955-7.463
			c1.1-0.634,3.022-0.554,4.289,0.18l13.43,7.756c0.698,0.402,1.054,0.92,1.051,1.407v1.767c0,0.405-0.244,0.789-0.743,1.075
			l-12.952,7.463c-1.1,0.634-3.022,0.554-4.292-0.18l-13.43-7.756c-0.695-0.402-1.048-0.914-1.048-1.401L949.382,509.896
			L949.382,509.896z M996.097,507.977c0.012-0.393,0.256-0.768,0.743-1.051l12.952-7.463c1.1-0.634,3.022-0.551,4.292,0.183
			l13.43,7.756c0.698,0.402,1.051,0.917,1.051,1.407v1.767c0,0.402-0.244,0.789-0.743,1.075l-12.952,7.463
			c-1.1,0.634-3.025,0.551-4.292-0.18l-13.43-7.756c-0.695-0.402-1.051-0.917-1.051-1.401V507.977L996.097,507.977z
			 M917.565,503.206c0.009-0.393,0.253-0.768,0.74-1.048l12.955-7.463c1.1-0.634,3.022-0.554,4.292,0.18l13.43,7.756
			c0.695,0.402,1.051,0.92,1.048,1.407v1.767c0,0.405-0.244,0.789-0.74,1.075l-12.955,7.463c-1.1,0.634-3.022,0.551-4.292-0.18
			l-13.43-7.756c-0.695-0.402-1.048-0.914-1.048-1.401V503.206L917.565,503.206z M1049.573,502.092
			c0.009-0.393,0.253-0.768,0.74-1.048l12.955-7.463c1.1-0.634,3.022-0.554,4.292,0.18l13.43,7.756
			c0.695,0.402,1.051,0.92,1.048,1.407v1.767c0,0.405-0.244,0.789-0.74,1.075l-12.955,7.463c-1.1,0.634-3.022,0.551-4.289-0.18
			l-13.43-7.755c-0.695-0.402-1.051-0.914-1.051-1.401V502.092L1049.573,502.092z M1096.471,500.124
			c0.009-0.393,0.253-0.768,0.74-1.048l12.955-7.463c1.097-0.634,3.022-0.554,4.289,0.18l13.431,7.756
			c0.698,0.402,1.054,0.92,1.051,1.407v1.767c0,0.405-0.244,0.789-0.743,1.075l-12.952,7.463c-1.1,0.634-3.022,0.551-4.292-0.18
			l-13.43-7.756c-0.695-0.402-1.051-0.914-1.051-1.401L1096.471,500.124L1096.471,500.124z M969.797,498.107
			c0.009-0.393,0.253-0.768,0.74-1.048l12.955-7.463c1.1-0.634,3.022-0.551,4.292,0.18l13.43,7.756
			c0.694,0.402,1.051,0.92,1.048,1.407v1.77c0,0.402-0.244,0.786-0.74,1.072l-12.955,7.466c-1.1,0.631-3.022,0.551-4.289-0.183
			l-13.43-7.756c-0.694-0.399-1.051-0.914-1.051-1.401L969.797,498.107L969.797,498.107z M1016.58,496.152
			c0.009-0.393,0.253-0.768,0.74-1.048l12.955-7.463c1.1-0.634,3.022-0.554,4.289,0.18l13.43,7.756
			c0.698,0.402,1.054,0.92,1.051,1.407v1.767c0,0.405-0.244,0.789-0.74,1.075l-12.955,7.463c-1.1,0.634-3.022,0.551-4.292-0.18
			l-13.43-7.756c-0.695-0.402-1.048-0.914-1.048-1.401L1016.58,496.152L1016.58,496.152z M938.044,491.381
			c0.012-0.393,0.256-0.768,0.743-1.048l12.952-7.463c1.1-0.634,3.022-0.554,4.292,0.18l13.43,7.756
			c0.698,0.402,1.051,0.92,1.051,1.407v1.77c0,0.402-0.244,0.786-0.743,1.072l-12.955,7.463c-1.097,0.634-3.022,0.554-4.289-0.18
			l-13.43-7.756c-0.695-0.402-1.051-0.914-1.051-1.401V491.381L938.044,491.381z M1069.866,490.364
			c0.012-0.393,0.256-0.768,0.743-1.048l12.955-7.463c1.097-0.634,3.022-0.554,4.289,0.18l13.43,7.756
			c0.698,0.402,1.054,0.92,1.051,1.407v1.767c0,0.405-0.244,0.789-0.743,1.075l-12.952,7.463c-1.1,0.634-3.022,0.554-4.292-0.18
			l-13.431-7.756c-0.694-0.402-1.051-0.914-1.051-1.401v-1.8H1069.866z M1116.896,488.329c0.009-0.393,0.256-0.768,0.743-1.048
			l12.952-7.463c1.1-0.634,3.022-0.551,4.292,0.18l13.43,7.756c0.698,0.402,1.051,0.92,1.051,1.407v1.77
			c0,0.402-0.244,0.786-0.743,1.075l-12.955,7.463c-1.097,0.631-3.022,0.551-4.289-0.183l-13.43-7.756
			c-0.695-0.399-1.051-0.914-1.051-1.401L1116.896,488.329L1116.896,488.329z M990.276,486.285c0.012-0.396,0.256-0.771,0.743-1.051
			l12.952-7.463c1.1-0.634,3.025-0.551,4.292,0.18l13.43,7.756c0.698,0.402,1.054,0.92,1.051,1.407v1.77
			c0,0.402-0.244,0.789-0.743,1.075l-12.952,7.463c-1.1,0.634-3.022,0.551-4.292-0.18l-13.43-7.759
			c-0.695-0.399-1.051-0.914-1.051-1.398V486.285z M1036.721,484.521c0.009-0.393,0.253-0.768,0.74-1.048l12.955-7.463
			c1.1-0.634,3.022-0.551,4.292,0.18l13.43,7.756c0.695,0.402,1.051,0.92,1.048,1.407v1.77c0,0.402-0.244,0.786-0.74,1.075
			l-12.955,7.463c-1.1,0.631-3.022,0.551-4.292-0.183l-13.43-7.756c-0.692-0.399-1.048-0.914-1.048-1.401V484.521z M958.185,479.754
			c0.012-0.396,0.256-0.768,0.743-1.051l12.952-7.463c1.1-0.634,3.022-0.551,4.292,0.18l13.43,7.759
			c0.698,0.402,1.051,0.917,1.051,1.404v1.77c0,0.402-0.244,0.789-0.743,1.075l-12.952,7.463c-1.1,0.634-3.022,0.551-4.292-0.18
			l-13.43-7.756c-0.695-0.402-1.051-0.917-1.051-1.401V479.754L958.185,479.754z M1090.01,478.737
			c0.009-0.396,0.253-0.771,0.74-1.051l12.955-7.463c1.1-0.634,3.022-0.551,4.289,0.18l13.43,7.756
			c0.698,0.402,1.054,0.92,1.051,1.407v1.77c0,0.402-0.244,0.786-0.743,1.075l-12.952,7.463c-1.1,0.634-3.022,0.551-4.292-0.183
			l-13.431-7.756c-0.694-0.399-1.048-0.914-1.048-1.398v-1.8H1090.01z M1147.171,482.404c0.012-0.393,0.256-0.768,0.743-1.048
			l13.683-7.883c1.097-0.634,3.022-0.551,4.289,0.18l3.406,1.968c0.695,0.402,1.051,0.92,1.048,1.407v1.767
			c0,0.405-0.244,0.789-0.74,1.075l-13.683,7.883c-1.1,0.634-3.022,0.551-4.292-0.18l-3.402-1.968
			c-0.695-0.399-1.051-0.914-1.051-1.401L1147.171,482.404L1147.171,482.404z M1010.42,474.655c0.009-0.393,0.253-0.768,0.74-1.048
			l12.955-7.463c1.097-0.634,3.022-0.554,4.289,0.18l13.431,7.756c0.698,0.402,1.054,0.92,1.051,1.407v1.767
			c0,0.405-0.244,0.789-0.743,1.075l-12.952,7.463c-1.1,0.634-3.022,0.554-4.292-0.18l-13.43-7.756
			c-0.695-0.402-1.051-0.914-1.051-1.401L1010.42,474.655L1010.42,474.655z M1057.014,472.797c0.012-0.396,0.256-0.771,0.743-1.051
			l12.952-7.463c1.1-0.634,3.025-0.551,4.292,0.18l13.43,7.756c0.698,0.402,1.054,0.92,1.051,1.407v1.77
			c0,0.402-0.244,0.786-0.743,1.075l-12.952,7.463c-1.1,0.634-3.022,0.551-4.292-0.183l-13.431-7.756
			c-0.694-0.399-1.051-0.914-1.051-1.398L1057.014,472.797L1057.014,472.797z M1136.3,476.126c0.009-0.393,0.253-0.768,0.74-1.048
			l13.683-7.883c1.1-0.634,3.022-0.551,4.289,0.18l3.406,1.968c0.698,0.402,1.051,0.917,1.051,1.407v1.767
			c0,0.402-0.247,0.789-0.743,1.075l-13.683,7.883c-1.1,0.634-3.022,0.551-4.289-0.18l-3.406-1.968
			c-0.694-0.399-1.051-0.914-1.051-1.401L1136.3,476.126z M978.588,467.975c0.009-0.393,0.253-0.768,0.74-1.048l12.955-7.463
			c1.097-0.634,3.022-0.554,4.289,0.18l13.43,7.756c0.698,0.402,1.054,0.92,1.051,1.407v1.767c0,0.405-0.244,0.789-0.743,1.075
			l-12.952,7.463c-1.1,0.634-3.022,0.554-4.292-0.18l-13.43-7.756c-0.695-0.402-1.051-0.914-1.051-1.401L978.588,467.975
			L978.588,467.975z M1109.688,467.408c0.009-0.393,0.256-0.768,0.743-1.048l39.213-22.593c1.1-0.634,3.022-0.551,4.292,0.18
			l13.431,7.756c0.698,0.402,1.051,0.92,1.051,1.407v1.77c0,0.402-0.244,0.786-0.743,1.075l-39.216,22.593
			c-1.097,0.631-3.022,0.551-4.289-0.183l-13.431-7.756c-0.694-0.399-1.051-0.914-1.051-1.401L1109.688,467.408L1109.688,467.408z
			 M1157.675,464.788c0.009-0.396,0.256-0.771,0.743-1.051l12.952-7.463c1.1-0.634,3.022-0.551,4.292,0.18l13.43,7.756
			c0.695,0.402,1.051,0.92,1.051,1.407v1.77c0,0.402-0.247,0.786-0.743,1.075l-12.955,7.463c-1.097,0.634-3.022,0.551-4.289-0.183
			l-13.43-7.756c-0.695-0.399-1.051-0.914-1.051-1.401L1157.675,464.788L1157.675,464.788z M1030.842,462.863
			c0.009-0.393,0.256-0.768,0.743-1.048l12.952-7.463c1.1-0.634,3.022-0.554,4.292,0.18l13.431,7.756
			c0.694,0.402,1.051,0.92,1.051,1.407v1.77c0,0.402-0.247,0.786-0.743,1.072L1049.612,474c-1.097,0.634-3.022,0.554-4.289-0.18
			l-13.431-7.756c-0.694-0.402-1.051-0.914-1.051-1.401L1030.842,462.863L1030.842,462.863z M1077.159,461.166
			c0.009-0.393,0.253-0.768,0.74-1.048l12.955-7.463c1.097-0.634,3.022-0.554,4.289,0.18l13.43,7.756
			c0.698,0.402,1.054,0.92,1.051,1.407v1.767c0,0.405-0.244,0.789-0.743,1.075l-12.952,7.463c-1.1,0.634-3.022,0.551-4.292-0.18
			l-13.431-7.756c-0.694-0.402-1.051-0.914-1.051-1.401L1077.159,461.166L1077.159,461.166z M999.067,456.149
			c0.009-0.393,0.253-0.768,0.74-1.048l12.955-7.463c1.1-0.634,3.022-0.551,4.292,0.18l13.43,7.756
			c0.694,0.402,1.051,0.92,1.048,1.407v1.77c0,0.402-0.244,0.786-0.74,1.072l-12.955,7.463c-1.1,0.634-3.022,0.554-4.289-0.18
			l-13.43-7.756c-0.695-0.399-1.051-0.914-1.051-1.401L999.067,456.149L999.067,456.149z M1051.26,451.078
			c0.009-0.396,0.253-0.771,0.74-1.051l12.955-7.463c1.097-0.634,3.022-0.551,4.289,0.18l13.431,7.756
			c0.698,0.402,1.054,0.92,1.051,1.407v1.77c0,0.402-0.244,0.786-0.743,1.075l-12.952,7.463c-1.1,0.634-3.022,0.551-4.292-0.183
			l-13.431-7.756c-0.694-0.399-1.051-0.914-1.051-1.398L1051.26,451.078L1051.26,451.078z M1097.921,449.356
			c0.009-0.396,0.253-0.771,0.74-1.051l29.465-16.964c1.1-0.634,3.022-0.551,4.289,0.183l13.43,7.756
			c0.698,0.402,1.054,0.917,1.051,1.407v1.767c0,0.402-0.244,0.789-0.743,1.075l-29.462,16.964c-1.1,0.634-3.022,0.551-4.292-0.183
			l-13.431-7.756c-0.694-0.399-1.048-0.914-1.048-1.401v-1.797H1097.921z M1019.209,444.522c0.009-0.393,0.256-0.768,0.743-1.051
			l12.952-7.463c1.1-0.634,3.022-0.551,4.292,0.183l13.43,7.756c0.695,0.402,1.051,0.917,1.051,1.407v1.767
			c0,0.402-0.247,0.789-0.743,1.075l-12.955,7.463c-1.097,0.634-3.022,0.551-4.289-0.18l-13.43-7.756
			c-0.694-0.402-1.051-0.917-1.051-1.401L1019.209,444.522L1019.209,444.522z M1071.74,439.252c0.009-0.393,0.253-0.768,0.74-1.051
			l12.955-7.463c1.1-0.631,3.022-0.551,4.292,0.183l13.431,7.756c0.694,0.402,1.051,0.917,1.048,1.407v1.767
			c0,0.402-0.244,0.789-0.74,1.075l-12.955,7.463c-1.1,0.634-3.022,0.551-4.292-0.18l-13.431-7.756
			c-0.692-0.402-1.048-0.914-1.048-1.401V439.252L1071.74,439.252z M1039.417,432.855c0.009-0.393,0.253-0.768,0.74-1.048
			l12.955-7.463c1.097-0.634,3.022-0.554,4.289,0.18l13.43,7.756c0.698,0.402,1.054,0.92,1.051,1.407v1.767
			c0,0.405-0.244,0.789-0.743,1.075l-12.952,7.463c-1.1,0.634-3.022,0.551-4.292-0.18l-13.43-7.756
			c-0.695-0.402-1.051-0.914-1.051-1.401L1039.417,432.855L1039.417,432.855z M1091.881,427.622
			c0.009-0.393,0.256-0.768,0.743-1.048l12.952-7.463c1.1-0.634,3.022-0.551,4.292,0.18l13.431,7.756
			c0.694,0.402,1.051,0.92,1.051,1.407v1.77c0,0.402-0.247,0.786-0.743,1.072l-12.955,7.463c-1.097,0.634-3.022,0.554-4.289-0.18
			l-13.431-7.756c-0.694-0.399-1.051-0.914-1.051-1.401L1091.881,427.622L1091.881,427.622z M1059.518,421.146
			c0.012-0.393,0.256-0.768,0.743-1.048l24.235-13.945c1.1-0.634,3.022-0.551,4.292,0.183l13.431,7.756
			c0.698,0.402,1.051,0.917,1.051,1.407v1.767c0,0.402-0.244,0.789-0.743,1.075l-24.235,13.942c-1.1,0.634-3.025,0.554-4.292-0.18
			l-13.43-7.756c-0.695-0.402-1.051-0.914-1.051-1.401L1059.518,421.146L1059.518,421.146z"/>
		<path fill="#3D394C" d="M899.233,615.996c-1.27-0.734-3.192-0.813-4.292-0.18l-12.005,6.915c-1.1,0.634-0.963,1.742,0.308,2.477
			l13.43,7.755c1.267,0.734,3.192,0.813,4.292,0.18l12.005-6.915c1.1-0.634,0.96-1.742-0.308-2.477L899.233,615.996z
			 M918.427,604.914c-1.27-0.731-3.192-0.813-4.292-0.18l-12.005,6.918c-1.1,0.631-0.963,1.742,0.308,2.473l13.43,7.756
			c1.267,0.734,3.192,0.813,4.289,0.18l12.008-6.915c1.097-0.634,0.96-1.742-0.308-2.477L918.427,604.914L918.427,604.914z
			 M904.816,587.835c-1.27-0.734-3.192-0.813-4.292-0.183l-39.216,22.593c-1.1,0.634-0.96,1.742,0.308,2.477l13.43,7.756
			c1.27,0.734,3.192,0.813,4.292,0.18l39.216-22.593c1.097-0.634,0.96-1.742-0.308-2.473L904.816,587.835L904.816,587.835z
			 M937.617,593.832c-1.267-0.731-3.189-0.813-4.289-0.18l-12.008,6.918c-1.097,0.634-0.96,1.742,0.311,2.473l13.43,7.756
			c1.267,0.734,3.189,0.816,4.289,0.183l12.005-6.918c1.1-0.634,0.963-1.742-0.308-2.477L937.617,593.832L937.617,593.832z
			 M871.714,581.873c-1.27-0.734-3.192-0.813-4.292-0.18l-27.814,16.023c-1.1,0.634-0.96,1.742,0.308,2.477l13.43,7.755
			c1.27,0.734,3.192,0.813,4.292,0.18l27.814-16.023c1.1-0.634,0.96-1.742-0.308-2.477L871.714,581.873z M961.32,580.155
			c-1.27-0.731-3.192-0.813-4.292-0.18l-16.455,9.48c-1.1,0.634-0.963,1.742,0.308,2.477l13.43,7.756
			c1.27,0.734,3.192,0.813,4.292,0.18l16.455-9.48c1.1-0.634,0.96-1.742-0.308-2.477L961.32,580.155z M845.505,571.949
			c-1.27-0.734-3.192-0.816-4.292-0.183l-23.309,13.43c-1.1,0.634-0.963,1.742,0.308,2.477l13.43,7.755
			c1.27,0.731,3.192,0.813,4.292,0.18l23.309-13.43c1.1-0.634,0.963-1.742-0.308-2.473L845.505,571.949L845.505,571.949z
			 M925.357,575.86c-1.27-0.731-3.192-0.813-4.292-0.18l-12.952,7.463c-1.1,0.634-0.963,1.742,0.308,2.477l13.43,7.756
			c1.267,0.731,3.192,0.813,4.289,0.18l12.955-7.463c1.1-0.634,0.96-1.742-0.308-2.477L925.357,575.86z M892.023,570.115
			c-1.267-0.731-3.192-0.813-4.289-0.18l-12.955,7.463c-1.1,0.634-0.96,1.742,0.308,2.477l13.43,7.756
			c1.27,0.731,3.192,0.813,4.292,0.18l12.952-7.463c1.1-0.634,0.963-1.742-0.308-2.477L892.023,570.115z M1070.405,517.283
			c-1.27-0.734-3.192-0.813-4.292-0.183l-101.818,58.66c-1.1,0.634-0.963,1.742,0.308,2.477l13.43,7.755
			c1.267,0.731,3.189,0.813,4.289,0.18l101.821-58.66c1.1-0.634,0.96-1.742-0.308-2.473L1070.405,517.283L1070.405,517.283z
			 M813.49,565.348c-1.27-0.734-3.192-0.816-4.292-0.183l-12.952,7.463c-1.1,0.634-0.963,1.742,0.308,2.477l13.43,7.755
			c1.267,0.734,3.192,0.813,4.289,0.18l12.955-7.463c1.1-0.634,0.96-1.742-0.308-2.473L813.49,565.348L813.49,565.348z
			 M945.498,564.233c-1.27-0.734-3.192-0.816-4.292-0.183l-12.952,7.463c-1.1,0.634-0.963,1.742,0.308,2.477l13.43,7.755
			c1.267,0.734,3.192,0.813,4.292,0.18l12.952-7.463c1.1-0.634,0.963-1.742-0.308-2.473L945.498,564.233L945.498,564.233z
			 M865.722,560.249c-1.27-0.734-3.192-0.813-4.292-0.18l-12.952,7.463c-1.1,0.634-0.963,1.742,0.308,2.473l13.43,7.759
			c1.267,0.731,3.192,0.813,4.292,0.18l12.952-7.463c1.1-0.634,0.963-1.742-0.308-2.477L865.722,560.249L865.722,560.249z
			 M912.505,558.293c-1.27-0.734-3.192-0.816-4.292-0.183l-12.955,7.463c-1.097,0.634-0.96,1.742,0.311,2.477l13.43,7.755
			c1.267,0.734,3.189,0.813,4.289,0.18l12.955-7.463c1.1-0.634,0.96-1.742-0.308-2.473L912.505,558.293L912.505,558.293z
			 M833.969,553.523c-1.267-0.734-3.192-0.813-4.289-0.18l-12.955,7.463c-1.1,0.634-0.963,1.742,0.308,2.473l13.43,7.756
			c1.27,0.734,3.192,0.813,4.292,0.183l12.952-7.463c1.1-0.634,0.963-1.745-0.308-2.477L833.969,553.523L833.969,553.523z
			 M965.898,552.454c-1.267-0.734-3.192-0.813-4.292-0.18l-12.952,7.463c-1.1,0.634-0.963,1.742,0.308,2.474l13.43,7.755
			c1.27,0.734,3.192,0.816,4.292,0.183l12.952-7.463c1.1-0.634,0.963-1.742-0.308-2.477L965.898,552.454L965.898,552.454z
			 M886.201,548.424c-1.267-0.731-3.189-0.813-4.289-0.18l-12.955,7.463c-1.1,0.634-0.96,1.742,0.308,2.477l13.43,7.756
			c1.27,0.731,3.192,0.813,4.292,0.18l12.955-7.463c1.097-0.634,0.96-1.742-0.311-2.477L886.201,548.424z M932.646,546.663
			c-1.27-0.734-3.192-0.813-4.292-0.18l-12.952,7.463c-1.1,0.634-0.963,1.742,0.308,2.477l13.43,7.756
			c1.267,0.731,3.192,0.813,4.289,0.18l12.955-7.463c1.1-0.634,0.963-1.742-0.308-2.477L932.646,546.663z M854.11,541.893
			c-1.267-0.731-3.189-0.813-4.289-0.18l-12.955,7.463c-1.1,0.634-0.96,1.742,0.308,2.477l13.43,7.756
			c1.27,0.731,3.192,0.813,4.292,0.18l12.952-7.463c1.1-0.634,0.963-1.742-0.308-2.477L854.11,541.893z M986.38,540.628
			c-1.27-0.731-3.192-0.813-4.292-0.18l-12.955,7.463c-1.1,0.634-0.96,1.742,0.308,2.477l13.43,7.755
			c1.27,0.731,3.192,0.813,4.292,0.18l12.955-7.463c1.1-0.634,0.96-1.742-0.308-2.477L986.38,540.628z M906.346,536.796
			c-1.27-0.734-3.192-0.813-4.292-0.18l-12.955,7.463c-1.097,0.631-0.96,1.742,0.308,2.473l13.43,7.756
			c1.27,0.734,3.192,0.813,4.292,0.18l12.955-7.463c1.1-0.631,0.96-1.742-0.308-2.474L906.346,536.796z M953.046,534.883
			c-1.27-0.731-3.192-0.813-4.292-0.18l-12.952,7.463c-1.1,0.634-0.963,1.742,0.308,2.477l13.43,7.755
			c1.27,0.734,3.192,0.813,4.292,0.18l12.952-7.463c1.1-0.634,0.963-1.742-0.308-2.477L953.046,534.883L953.046,534.883z
			 M874.513,530.116c-1.27-0.734-3.192-0.813-4.292-0.183l-12.955,7.466c-1.097,0.631-0.96,1.742,0.308,2.473l13.43,7.755
			c1.27,0.734,3.192,0.813,4.292,0.18l12.955-7.463c1.1-0.634,0.96-1.742-0.308-2.473L874.513,530.116L874.513,530.116z
			 M1006.521,529.001c-1.27-0.734-3.192-0.813-4.292-0.183l-12.952,7.463c-1.1,0.634-0.963,1.745,0.308,2.477l13.43,7.755
			c1.267,0.734,3.189,0.813,4.289,0.18l12.955-7.463c1.1-0.634,0.96-1.742-0.308-2.473L1006.521,529.001L1006.521,529.001z
			 M926.746,525.017c-1.27-0.731-3.192-0.813-4.292-0.18l-12.952,7.463c-1.1,0.634-0.963,1.742,0.308,2.477l13.43,7.756
			c1.267,0.731,3.189,0.813,4.289,0.18l12.955-7.463c1.1-0.634,0.96-1.742-0.308-2.477L926.746,525.017z M973.525,523.061
			c-1.267-0.734-3.189-0.813-4.289-0.183l-12.955,7.466c-1.1,0.631-0.96,1.742,0.308,2.473l13.43,7.755
			c1.27,0.734,3.192,0.813,4.292,0.18l12.955-7.463c1.097-0.634,0.96-1.742-0.308-2.473L973.525,523.061L973.525,523.061z
			 M894.993,518.291c-1.27-0.734-3.192-0.813-4.292-0.18l-12.952,7.463c-1.1,0.634-0.963,1.742,0.308,2.473l13.43,7.756
			c1.267,0.734,3.192,0.816,4.292,0.183l12.952-7.463c1.1-0.634,0.963-1.742-0.308-2.477L894.993,518.291L894.993,518.291z
			 M1026.937,517.213c-1.267-0.734-3.192-0.813-4.292-0.18l-12.952,7.463c-1.1,0.634-0.963,1.742,0.308,2.474l13.43,7.758
			c1.27,0.731,3.192,0.813,4.292,0.18l12.952-7.463c1.1-0.634,0.963-1.742-0.308-2.477L1026.937,517.213L1026.937,517.213z
			 M947.225,513.192c-1.267-0.731-3.192-0.813-4.289-0.18l-12.955,7.463c-1.1,0.634-0.963,1.742,0.308,2.477l13.43,7.755
			c1.27,0.731,3.192,0.813,4.292,0.18l12.952-7.463c1.1-0.634,0.963-1.742-0.308-2.477L947.225,513.192z M993.67,511.431
			c-1.27-0.731-3.192-0.813-4.292-0.18l-12.955,7.463c-1.097,0.634-0.96,1.742,0.308,2.477l13.43,7.755
			c1.27,0.731,3.192,0.813,4.292,0.18l12.955-7.463c1.1-0.634,0.96-1.742-0.308-2.477L993.67,511.431z M915.134,506.661
			c-1.267-0.731-3.192-0.813-4.292-0.18l-12.952,7.463c-1.1,0.634-0.963,1.742,0.308,2.477l13.43,7.755
			c1.27,0.731,3.192,0.813,4.292,0.18l12.952-7.463c1.1-0.634,0.963-1.742-0.308-2.477L915.134,506.661z M1094.199,503.438
			c-1.27-0.731-3.192-0.813-4.292-0.18l-16.455,9.48c-1.1,0.634-0.963,1.742,0.308,2.477l13.43,7.756
			c1.267,0.731,3.192,0.813,4.289,0.18l16.458-9.48c1.097-0.634,0.96-1.742-0.308-2.477L1094.199,503.438L1094.199,503.438z
			 M1047.419,505.387c-1.27-0.731-3.192-0.813-4.292-0.18l-12.955,7.463c-1.1,0.634-0.959,1.742,0.308,2.477l13.43,7.756
			c1.27,0.731,3.192,0.813,4.292,0.18l12.955-7.463c1.097-0.634,0.96-1.742-0.308-2.477L1047.419,505.387z M967.366,501.565
			c-1.267-0.734-3.189-0.813-4.289-0.18l-12.955,7.463c-1.1,0.634-0.96,1.742,0.308,2.473l13.43,7.756
			c1.27,0.734,3.192,0.813,4.292,0.183l12.952-7.466c1.1-0.631,0.963-1.742-0.308-2.473L967.366,501.565L967.366,501.565z
			 M1014.085,499.645c-1.27-0.734-3.192-0.816-4.292-0.183l-12.952,7.463c-1.1,0.634-0.963,1.742,0.308,2.477l13.43,7.756
			c1.267,0.734,3.192,0.813,4.292,0.18l12.952-7.463c1.1-0.634,0.963-1.742-0.308-2.473L1014.085,499.645L1014.085,499.645z
			 M935.552,494.875c-1.27-0.734-3.192-0.813-4.292-0.18l-12.955,7.463c-1.1,0.634-0.96,1.742,0.308,2.473l13.43,7.756
			c1.27,0.734,3.192,0.813,4.292,0.18l12.955-7.463c1.097-0.631,0.96-1.742-0.308-2.473L935.552,494.875L935.552,494.875z
			 M1067.56,493.76c-1.27-0.734-3.192-0.813-4.292-0.18l-12.955,7.463c-1.097,0.631-0.96,1.742,0.311,2.473l13.431,7.756
			c1.267,0.734,3.189,0.813,4.289,0.18l12.955-7.463c1.1-0.631,0.96-1.742-0.308-2.473L1067.56,493.76L1067.56,493.76z
			 M1114.456,491.793c-1.267-0.734-3.192-0.813-4.289-0.18l-12.955,7.463c-1.1,0.634-0.963,1.742,0.308,2.473l13.431,7.756
			c1.27,0.734,3.192,0.813,4.292,0.183l12.952-7.466c1.1-0.631,0.963-1.742-0.308-2.473L1114.456,491.793L1114.456,491.793z
			 M987.784,489.776c-1.27-0.731-3.192-0.813-4.292-0.18l-12.955,7.463c-1.097,0.634-0.96,1.742,0.311,2.477l13.43,7.756
			c1.267,0.731,3.189,0.813,4.289,0.18l12.955-7.463c1.1-0.634,0.96-1.742-0.308-2.477L987.784,489.776L987.784,489.776z
			 M1034.564,487.82c-1.267-0.734-3.189-0.813-4.289-0.18l-12.955,7.463c-1.1,0.631-0.96,1.742,0.308,2.473l13.431,7.756
			c1.27,0.734,3.192,0.813,4.292,0.18l12.955-7.463c1.097-0.631,0.959-1.742-0.311-2.473L1034.564,487.82L1034.564,487.82z
			 M956.031,483.05c-1.27-0.734-3.192-0.813-4.292-0.18l-12.952,7.463c-1.1,0.634-0.963,1.742,0.308,2.473l13.43,7.756
			c1.267,0.734,3.192,0.816,4.289,0.183l12.955-7.463c1.1-0.634,0.963-1.742-0.308-2.477L956.031,483.05L956.031,483.05z
			 M1087.854,482.033c-1.267-0.734-3.192-0.813-4.289-0.18l-12.955,7.463c-1.1,0.634-0.963,1.742,0.308,2.473l13.43,7.756
			c1.27,0.734,3.192,0.813,4.292,0.183l12.952-7.463c1.1-0.634,0.963-1.742-0.308-2.477L1087.854,482.033L1087.854,482.033z
			 M1134.883,479.998c-1.27-0.731-3.192-0.813-4.292-0.18l-12.952,7.463c-1.1,0.634-0.963,1.742,0.308,2.477l13.431,7.756
			c1.267,0.731,3.192,0.813,4.289,0.18l12.955-7.463c1.1-0.634,0.963-1.742-0.308-2.477L1134.883,479.998L1134.883,479.998z
			 M1008.264,477.951c-1.267-0.731-3.192-0.813-4.292-0.18l-12.952,7.463c-1.1,0.634-0.963,1.742,0.308,2.477l13.43,7.756
			c1.27,0.734,3.192,0.813,4.292,0.18l12.952-7.463c1.1-0.634,0.963-1.742-0.308-2.477L1008.264,477.951z M1054.708,476.19
			c-1.27-0.731-3.192-0.813-4.292-0.18l-12.955,7.463c-1.097,0.634-0.96,1.742,0.308,2.477l13.431,7.756
			c1.27,0.731,3.192,0.813,4.292,0.18l12.955-7.463c1.1-0.634,0.959-1.742-0.308-2.477L1054.708,476.19z M976.172,471.42
			c-1.27-0.731-3.192-0.813-4.292-0.18l-12.952,7.463c-1.1,0.634-0.963,1.742,0.308,2.477l13.43,7.756
			c1.27,0.734,3.192,0.813,4.292,0.18l12.952-7.463c1.1-0.634,0.963-1.742-0.308-2.473L976.172,471.42L976.172,471.42z
			 M1107.995,470.402c-1.267-0.731-3.189-0.813-4.289-0.18l-12.955,7.463c-1.1,0.634-0.96,1.742,0.308,2.477l13.431,7.756
			c1.27,0.731,3.192,0.813,4.292,0.18l12.952-7.463c1.1-0.634,0.963-1.742-0.308-2.477L1107.995,470.402L1107.995,470.402z
			 M1165.887,473.653c-1.267-0.731-3.192-0.813-4.289-0.18l-13.683,7.883c-1.1,0.634-0.963,1.742,0.308,2.477l3.403,1.965
			c1.27,0.734,3.192,0.813,4.292,0.18l13.683-7.883c1.1-0.634,0.959-1.742-0.308-2.473L1165.887,473.653L1165.887,473.653z
			 M1028.405,466.324c-1.267-0.734-3.192-0.813-4.289-0.18l-12.955,7.463c-1.1,0.634-0.963,1.742,0.308,2.473l13.43,7.756
			c1.27,0.734,3.192,0.816,4.292,0.183l12.952-7.463c1.1-0.634,0.963-1.742-0.308-2.477L1028.405,466.324L1028.405,466.324z
			 M1075.002,464.462c-1.267-0.731-3.192-0.813-4.292-0.18l-12.952,7.463c-1.1,0.634-0.963,1.742,0.308,2.477l13.43,7.756
			c1.27,0.731,3.192,0.813,4.292,0.18l12.952-7.463c1.1-0.634,0.963-1.742-0.308-2.477L1075.002,464.462z M1155.012,467.375
			c-1.267-0.731-3.189-0.813-4.289-0.18l-13.683,7.883c-1.1,0.634-0.96,1.742,0.308,2.477l3.406,1.965
			c1.267,0.731,3.189,0.813,4.289,0.18l13.683-7.883c1.1-0.634,0.963-1.742-0.308-2.473L1155.012,467.375L1155.012,467.375z
			 M996.573,459.643c-1.267-0.734-3.192-0.813-4.289-0.18l-12.955,7.463c-1.1,0.634-0.963,1.742,0.308,2.473l13.43,7.756
			c1.27,0.734,3.192,0.813,4.292,0.183l12.952-7.463c1.1-0.634,0.963-1.742-0.308-2.477L996.573,459.643L996.573,459.643z
			 M1153.937,443.947c-1.27-0.731-3.192-0.813-4.292-0.18l-39.213,22.593c-1.1,0.634-0.963,1.742,0.308,2.477l13.431,7.756
			c1.267,0.731,3.192,0.813,4.289,0.18l39.216-22.593c1.1-0.634,0.963-1.742-0.308-2.477L1153.937,443.947z M1175.662,456.454
			c-1.27-0.731-3.192-0.813-4.292-0.18l-12.952,7.463c-1.1,0.634-0.963,1.742,0.308,2.477l13.431,7.756
			c1.267,0.731,3.192,0.813,4.289,0.18l12.955-7.463c1.1-0.634,0.963-1.742-0.308-2.477L1175.662,456.454L1175.662,456.454z
			 M1048.829,454.532c-1.27-0.734-3.192-0.813-4.292-0.18l-12.952,7.463c-1.1,0.634-0.963,1.742,0.308,2.473l13.43,7.756
			c1.267,0.734,3.192,0.816,4.289,0.183l12.955-7.463c1.1-0.634,0.963-1.742-0.308-2.477L1048.829,454.532L1048.829,454.532z
			 M1095.143,452.835c-1.267-0.734-3.192-0.813-4.289-0.18l-12.955,7.463c-1.1,0.634-0.963,1.742,0.308,2.473l13.431,7.756
			c1.27,0.734,3.192,0.813,4.292,0.183l12.952-7.466c1.1-0.631,0.963-1.742-0.308-2.473L1095.143,452.835L1095.143,452.835z
			 M1017.055,447.818c-1.27-0.731-3.192-0.813-4.292-0.18l-12.955,7.463c-1.097,0.634-0.96,1.742,0.311,2.477l13.43,7.756
			c1.267,0.731,3.189,0.813,4.289,0.18l12.955-7.463c1.1-0.634,0.959-1.742-0.308-2.477L1017.055,447.818L1017.055,447.818z
			 M1069.245,442.743c-1.267-0.731-3.192-0.813-4.289-0.18L1052,450.027c-1.1,0.634-0.963,1.742,0.308,2.477l13.43,7.756
			c1.27,0.731,3.192,0.813,4.292,0.18l12.952-7.463c1.1-0.634,0.963-1.742-0.308-2.477L1069.245,442.743L1069.245,442.743z
			 M1132.416,431.524c-1.267-0.734-3.189-0.816-4.289-0.183l-29.465,16.964c-1.1,0.634-0.959,1.742,0.308,2.477l13.43,7.756
			c1.27,0.731,3.192,0.813,4.292,0.18l29.462-16.964c1.1-0.634,0.963-1.742-0.308-2.473L1132.416,431.524L1132.416,431.524z
			 M1037.196,436.191c-1.27-0.734-3.192-0.816-4.292-0.183l-12.952,7.463c-1.1,0.634-0.963,1.742,0.308,2.477l13.431,7.756
			c1.267,0.734,3.192,0.813,4.289,0.18l12.955-7.463c1.1-0.634,0.963-1.742-0.308-2.473L1037.196,436.191L1037.196,436.191z
			 M1089.727,430.921c-1.27-0.734-3.192-0.813-4.292-0.183l-12.955,7.463c-1.097,0.634-0.96,1.742,0.308,2.477l13.431,7.756
			c1.27,0.734,3.192,0.813,4.292,0.18l12.955-7.463c1.1-0.634,0.959-1.742-0.308-2.473L1089.727,430.921L1089.727,430.921z
			 M1057.401,424.524c-1.267-0.734-3.192-0.813-4.289-0.18l-12.955,7.463c-1.1,0.631-0.963,1.742,0.308,2.473l13.431,7.756
			c1.27,0.734,3.192,0.813,4.292,0.18l12.952-7.463c1.1-0.631,0.963-1.742-0.308-2.473L1057.401,424.524L1057.401,424.524z
			 M1109.868,419.291c-1.27-0.731-3.192-0.813-4.292-0.18l-12.952,7.463c-1.1,0.634-0.963,1.742,0.308,2.477l13.43,7.756
			c1.267,0.731,3.192,0.813,4.289,0.18l12.955-7.463c1.1-0.634,0.959-1.742-0.308-2.477L1109.868,419.291L1109.868,419.291z
			 M1088.789,406.336c-1.27-0.734-3.192-0.816-4.292-0.183l-24.235,13.945c-1.1,0.634-0.963,1.742,0.308,2.473l13.43,7.756
			c1.267,0.734,3.192,0.816,4.292,0.183l24.235-13.945c1.1-0.634,0.963-1.742-0.308-2.473L1088.789,406.336z"/>
		<path serif:id="3" fill="#3D394C" d="M1073.546,399.32c-0.731-0.423-1.84-0.469-2.47-0.104L781.304,566.518
			c-0.634,0.366-0.554,1.005,0.177,1.426l8.264,4.773c0.731,0.42,1.84,0.466,2.47,0.101l289.771-167.298
			c0.634-0.366,0.554-1.005-0.177-1.429L1073.546,399.32L1073.546,399.32z"/>
		
			<linearGradient id="SVGID_9_" gradientUnits="userSpaceOnUse" x1="300.6161" y1="256.3105" x2="301.6161" y2="256.3105" gradientTransform="matrix(61.8722 531.1731 -531.1731 61.8722 118492.6094 -175410.3438)">
			<stop  offset="0" style="stop-color:#FF515F"/>
			<stop  offset="1" style="stop-color:#FF515F;stop-opacity:0"/>
		</linearGradient>
		<path fill="url(#SVGID_9_)" d="M899.233,615.996c-1.27-0.734-3.192-0.813-4.292-0.18l-12.005,6.915
			c-1.1,0.634-0.963,1.742,0.308,2.477l13.43,7.755c1.267,0.734,3.192,0.813,4.292,0.18l12.005-6.915
			c1.1-0.634,0.96-1.742-0.308-2.477L899.233,615.996z M918.427,604.914c-1.27-0.731-3.192-0.813-4.292-0.18l-12.005,6.918
			c-1.1,0.631-0.963,1.742,0.308,2.473l13.43,7.756c1.267,0.734,3.192,0.813,4.289,0.18l12.008-6.915
			c1.097-0.634,0.96-1.742-0.308-2.477L918.427,604.914L918.427,604.914z M904.816,587.835c-1.27-0.734-3.192-0.813-4.292-0.183
			l-39.216,22.593c-1.1,0.634-0.96,1.742,0.308,2.477l13.43,7.756c1.27,0.734,3.192,0.813,4.292,0.18l39.216-22.593
			c1.097-0.634,0.96-1.742-0.308-2.473L904.816,587.835L904.816,587.835z M937.617,593.832c-1.267-0.731-3.189-0.813-4.289-0.18
			l-12.008,6.918c-1.097,0.634-0.96,1.742,0.311,2.473l13.43,7.756c1.267,0.734,3.189,0.816,4.289,0.183l12.005-6.918
			c1.1-0.634,0.963-1.742-0.308-2.477L937.617,593.832L937.617,593.832z M871.714,581.873c-1.27-0.734-3.192-0.813-4.292-0.18
			l-27.814,16.023c-1.1,0.634-0.96,1.742,0.308,2.477l13.43,7.755c1.27,0.734,3.192,0.813,4.292,0.18l27.814-16.023
			c1.1-0.634,0.96-1.742-0.308-2.477L871.714,581.873z M961.32,580.155c-1.27-0.731-3.192-0.813-4.292-0.18l-16.455,9.48
			c-1.1,0.634-0.963,1.742,0.308,2.477l13.43,7.756c1.27,0.734,3.192,0.813,4.292,0.18l16.455-9.48
			c1.1-0.634,0.96-1.742-0.308-2.477L961.32,580.155z M845.505,571.949c-1.27-0.734-3.192-0.816-4.292-0.183l-23.309,13.43
			c-1.1,0.634-0.963,1.742,0.308,2.477l13.43,7.755c1.27,0.731,3.192,0.813,4.292,0.18l23.309-13.43
			c1.1-0.634,0.963-1.742-0.308-2.473L845.505,571.949L845.505,571.949z M925.357,575.86c-1.27-0.731-3.192-0.813-4.292-0.18
			l-12.952,7.463c-1.1,0.634-0.963,1.742,0.308,2.477l13.43,7.756c1.267,0.731,3.192,0.813,4.289,0.18l12.955-7.463
			c1.1-0.634,0.96-1.742-0.308-2.477L925.357,575.86z M892.023,570.115c-1.267-0.731-3.192-0.813-4.289-0.18l-12.955,7.463
			c-1.1,0.634-0.96,1.742,0.308,2.477l13.43,7.756c1.27,0.731,3.192,0.813,4.292,0.18l12.952-7.463
			c1.1-0.634,0.963-1.742-0.308-2.477L892.023,570.115z M1070.405,517.283c-1.27-0.734-3.192-0.813-4.292-0.183l-101.818,58.66
			c-1.1,0.634-0.963,1.742,0.308,2.477l13.43,7.755c1.267,0.731,3.189,0.813,4.289,0.18l101.821-58.66
			c1.1-0.634,0.96-1.742-0.308-2.473L1070.405,517.283L1070.405,517.283z M813.49,565.348c-1.27-0.734-3.192-0.816-4.292-0.183
			l-12.952,7.463c-1.1,0.634-0.963,1.742,0.308,2.477l13.43,7.755c1.267,0.734,3.192,0.813,4.289,0.18l12.955-7.463
			c1.1-0.634,0.96-1.742-0.308-2.473L813.49,565.348L813.49,565.348z M945.498,564.233c-1.27-0.734-3.192-0.816-4.292-0.183
			l-12.952,7.463c-1.1,0.634-0.963,1.742,0.308,2.477l13.43,7.755c1.267,0.734,3.192,0.813,4.292,0.18l12.952-7.463
			c1.1-0.634,0.963-1.742-0.308-2.473L945.498,564.233L945.498,564.233z M865.722,560.249c-1.27-0.734-3.192-0.813-4.292-0.18
			l-12.952,7.463c-1.1,0.634-0.963,1.742,0.308,2.473l13.43,7.759c1.267,0.731,3.192,0.813,4.292,0.18l12.952-7.463
			c1.1-0.634,0.963-1.742-0.308-2.477L865.722,560.249L865.722,560.249z M912.505,558.293c-1.27-0.734-3.192-0.816-4.292-0.183
			l-12.955,7.463c-1.097,0.634-0.96,1.742,0.311,2.477l13.43,7.755c1.267,0.734,3.189,0.813,4.289,0.18l12.955-7.463
			c1.1-0.634,0.96-1.742-0.308-2.473L912.505,558.293L912.505,558.293z M833.969,553.523c-1.267-0.734-3.192-0.813-4.289-0.18
			l-12.955,7.463c-1.1,0.634-0.963,1.742,0.308,2.473l13.43,7.756c1.27,0.734,3.192,0.813,4.292,0.183l12.952-7.463
			c1.1-0.634,0.963-1.745-0.308-2.477L833.969,553.523L833.969,553.523z M965.898,552.454c-1.267-0.734-3.192-0.813-4.292-0.18
			l-12.952,7.463c-1.1,0.634-0.963,1.742,0.308,2.474l13.43,7.755c1.27,0.734,3.192,0.816,4.292,0.183l12.952-7.463
			c1.1-0.634,0.963-1.742-0.308-2.477L965.898,552.454L965.898,552.454z M886.201,548.424c-1.267-0.731-3.189-0.813-4.289-0.18
			l-12.955,7.463c-1.1,0.634-0.96,1.742,0.308,2.477l13.43,7.756c1.27,0.731,3.192,0.813,4.292,0.18l12.955-7.463
			c1.097-0.634,0.96-1.742-0.311-2.477L886.201,548.424z M932.646,546.663c-1.27-0.734-3.192-0.813-4.292-0.18l-12.952,7.463
			c-1.1,0.634-0.963,1.742,0.308,2.477l13.43,7.756c1.267,0.731,3.192,0.813,4.289,0.18l12.955-7.463
			c1.1-0.634,0.963-1.742-0.308-2.477L932.646,546.663z M854.11,541.893c-1.267-0.731-3.189-0.813-4.289-0.18l-12.955,7.463
			c-1.1,0.634-0.96,1.742,0.308,2.477l13.43,7.756c1.27,0.731,3.192,0.813,4.292,0.18l12.952-7.463
			c1.1-0.634,0.963-1.742-0.308-2.477L854.11,541.893z M986.38,540.628c-1.27-0.731-3.192-0.813-4.292-0.18l-12.955,7.463
			c-1.1,0.634-0.96,1.742,0.308,2.477l13.43,7.755c1.27,0.731,3.192,0.813,4.292,0.18l12.955-7.463
			c1.1-0.634,0.96-1.742-0.308-2.477L986.38,540.628z M906.346,536.796c-1.27-0.734-3.192-0.813-4.292-0.18l-12.955,7.463
			c-1.097,0.631-0.96,1.742,0.308,2.473l13.43,7.756c1.27,0.734,3.192,0.813,4.292,0.18l12.955-7.463
			c1.1-0.631,0.96-1.742-0.308-2.474L906.346,536.796z M953.046,534.883c-1.27-0.731-3.192-0.813-4.292-0.18l-12.952,7.463
			c-1.1,0.634-0.963,1.742,0.308,2.477l13.43,7.755c1.27,0.734,3.192,0.813,4.292,0.18l12.952-7.463
			c1.1-0.634,0.963-1.742-0.308-2.477L953.046,534.883L953.046,534.883z M874.513,530.116c-1.27-0.734-3.192-0.813-4.292-0.183
			l-12.955,7.466c-1.097,0.631-0.96,1.742,0.308,2.473l13.43,7.755c1.27,0.734,3.192,0.813,4.292,0.18l12.955-7.463
			c1.1-0.634,0.96-1.742-0.308-2.473L874.513,530.116L874.513,530.116z M1006.521,529.001c-1.27-0.734-3.192-0.813-4.292-0.183
			l-12.952,7.463c-1.1,0.634-0.963,1.745,0.308,2.477l13.43,7.755c1.267,0.734,3.189,0.813,4.289,0.18l12.955-7.463
			c1.1-0.634,0.96-1.742-0.308-2.473L1006.521,529.001L1006.521,529.001z M926.746,525.017c-1.27-0.731-3.192-0.813-4.292-0.18
			l-12.952,7.463c-1.1,0.634-0.963,1.742,0.308,2.477l13.43,7.756c1.267,0.731,3.189,0.813,4.289,0.18l12.955-7.463
			c1.1-0.634,0.96-1.742-0.308-2.477L926.746,525.017z M973.525,523.061c-1.267-0.734-3.189-0.813-4.289-0.183l-12.955,7.466
			c-1.1,0.631-0.96,1.742,0.308,2.473l13.43,7.755c1.27,0.734,3.192,0.813,4.292,0.18l12.955-7.463
			c1.097-0.634,0.96-1.742-0.308-2.473L973.525,523.061L973.525,523.061z M894.993,518.291c-1.27-0.734-3.192-0.813-4.292-0.18
			l-12.952,7.463c-1.1,0.634-0.963,1.742,0.308,2.473l13.43,7.756c1.267,0.734,3.192,0.816,4.292,0.183l12.952-7.463
			c1.1-0.634,0.963-1.742-0.308-2.477L894.993,518.291L894.993,518.291z M1026.937,517.213c-1.267-0.734-3.192-0.813-4.292-0.18
			l-12.952,7.463c-1.1,0.634-0.963,1.742,0.308,2.474l13.43,7.758c1.27,0.731,3.192,0.813,4.292,0.18l12.952-7.463
			c1.1-0.634,0.963-1.742-0.308-2.477L1026.937,517.213L1026.937,517.213z M947.225,513.192c-1.267-0.731-3.192-0.813-4.289-0.18
			l-12.955,7.463c-1.1,0.634-0.963,1.742,0.308,2.477l13.43,7.755c1.27,0.731,3.192,0.813,4.292,0.18l12.952-7.463
			c1.1-0.634,0.963-1.742-0.308-2.477L947.225,513.192z M993.67,511.431c-1.27-0.731-3.192-0.813-4.292-0.18l-12.955,7.463
			c-1.097,0.634-0.96,1.742,0.308,2.477l13.43,7.755c1.27,0.731,3.192,0.813,4.292,0.18l12.955-7.463
			c1.1-0.634,0.96-1.742-0.308-2.477L993.67,511.431z M915.134,506.661c-1.267-0.731-3.192-0.813-4.292-0.18l-12.952,7.463
			c-1.1,0.634-0.963,1.742,0.308,2.477l13.43,7.755c1.27,0.731,3.192,0.813,4.292,0.18l12.952-7.463
			c1.1-0.634,0.963-1.742-0.308-2.477L915.134,506.661z M1094.199,503.438c-1.27-0.731-3.192-0.813-4.292-0.18l-16.455,9.48
			c-1.1,0.634-0.963,1.742,0.308,2.477l13.43,7.756c1.267,0.731,3.192,0.813,4.289,0.18l16.458-9.48
			c1.097-0.634,0.96-1.742-0.308-2.477L1094.199,503.438L1094.199,503.438z M1047.419,505.387c-1.27-0.731-3.192-0.813-4.292-0.18
			l-12.955,7.463c-1.1,0.634-0.959,1.742,0.308,2.477l13.43,7.756c1.27,0.731,3.192,0.813,4.292,0.18l12.955-7.463
			c1.097-0.634,0.96-1.742-0.308-2.477L1047.419,505.387z M967.366,501.565c-1.267-0.734-3.189-0.813-4.289-0.18l-12.955,7.463
			c-1.1,0.634-0.96,1.742,0.308,2.473l13.43,7.756c1.27,0.734,3.192,0.813,4.292,0.183l12.952-7.466
			c1.1-0.631,0.963-1.742-0.308-2.473L967.366,501.565L967.366,501.565z M1014.085,499.645c-1.27-0.734-3.192-0.816-4.292-0.183
			l-12.952,7.463c-1.1,0.634-0.963,1.742,0.308,2.477l13.43,7.756c1.267,0.734,3.192,0.813,4.292,0.18l12.952-7.463
			c1.1-0.634,0.963-1.742-0.308-2.473L1014.085,499.645L1014.085,499.645z M935.552,494.875c-1.27-0.734-3.192-0.813-4.292-0.18
			l-12.955,7.463c-1.1,0.634-0.96,1.742,0.308,2.473l13.43,7.756c1.27,0.734,3.192,0.813,4.292,0.18l12.955-7.463
			c1.097-0.631,0.96-1.742-0.308-2.473L935.552,494.875L935.552,494.875z M1067.56,493.76c-1.27-0.734-3.192-0.813-4.292-0.18
			l-12.955,7.463c-1.097,0.631-0.96,1.742,0.311,2.473l13.431,7.756c1.267,0.734,3.189,0.813,4.289,0.18l12.955-7.463
			c1.1-0.631,0.96-1.742-0.308-2.473L1067.56,493.76L1067.56,493.76z M1114.456,491.793c-1.267-0.734-3.192-0.813-4.289-0.18
			l-12.955,7.463c-1.1,0.634-0.963,1.742,0.308,2.473l13.431,7.756c1.27,0.734,3.192,0.813,4.292,0.183l12.952-7.466
			c1.1-0.631,0.963-1.742-0.308-2.473L1114.456,491.793L1114.456,491.793z M987.784,489.776c-1.27-0.731-3.192-0.813-4.292-0.18
			l-12.955,7.463c-1.097,0.634-0.96,1.742,0.311,2.477l13.43,7.756c1.267,0.731,3.189,0.813,4.289,0.18l12.955-7.463
			c1.1-0.634,0.96-1.742-0.308-2.477L987.784,489.776L987.784,489.776z M1034.564,487.82c-1.267-0.734-3.189-0.813-4.289-0.18
			l-12.955,7.463c-1.1,0.631-0.96,1.742,0.308,2.473l13.431,7.756c1.27,0.734,3.192,0.813,4.292,0.18l12.955-7.463
			c1.097-0.631,0.959-1.742-0.311-2.473L1034.564,487.82L1034.564,487.82z M956.031,483.05c-1.27-0.734-3.192-0.813-4.292-0.18
			l-12.952,7.463c-1.1,0.634-0.963,1.742,0.308,2.473l13.43,7.756c1.267,0.734,3.192,0.816,4.289,0.183l12.955-7.463
			c1.1-0.634,0.963-1.742-0.308-2.477L956.031,483.05L956.031,483.05z M1087.854,482.033c-1.267-0.734-3.192-0.813-4.289-0.18
			l-12.955,7.463c-1.1,0.634-0.963,1.742,0.308,2.473l13.43,7.756c1.27,0.734,3.192,0.813,4.292,0.183l12.952-7.463
			c1.1-0.634,0.963-1.742-0.308-2.477L1087.854,482.033L1087.854,482.033z M1134.883,479.998c-1.27-0.731-3.192-0.813-4.292-0.18
			l-12.952,7.463c-1.1,0.634-0.963,1.742,0.308,2.477l13.431,7.756c1.267,0.731,3.192,0.813,4.289,0.18l12.955-7.463
			c1.1-0.634,0.963-1.742-0.308-2.477L1134.883,479.998L1134.883,479.998z M1008.264,477.951c-1.267-0.731-3.192-0.813-4.292-0.18
			l-12.952,7.463c-1.1,0.634-0.963,1.742,0.308,2.477l13.43,7.756c1.27,0.734,3.192,0.813,4.292,0.18l12.952-7.463
			c1.1-0.634,0.963-1.742-0.308-2.477L1008.264,477.951z M1054.708,476.19c-1.27-0.731-3.192-0.813-4.292-0.18l-12.955,7.463
			c-1.097,0.634-0.96,1.742,0.308,2.477l13.431,7.756c1.27,0.731,3.192,0.813,4.292,0.18l12.955-7.463
			c1.1-0.634,0.959-1.742-0.308-2.477L1054.708,476.19z M976.172,471.42c-1.27-0.731-3.192-0.813-4.292-0.18l-12.952,7.463
			c-1.1,0.634-0.963,1.742,0.308,2.477l13.43,7.756c1.27,0.734,3.192,0.813,4.292,0.18l12.952-7.463
			c1.1-0.634,0.963-1.742-0.308-2.473L976.172,471.42L976.172,471.42z M1107.995,470.402c-1.267-0.731-3.189-0.813-4.289-0.18
			l-12.955,7.463c-1.1,0.634-0.96,1.742,0.308,2.477l13.431,7.756c1.27,0.731,3.192,0.813,4.292,0.18l12.952-7.463
			c1.1-0.634,0.963-1.742-0.308-2.477L1107.995,470.402L1107.995,470.402z M1165.887,473.653c-1.267-0.731-3.192-0.813-4.289-0.18
			l-13.683,7.883c-1.1,0.634-0.963,1.742,0.308,2.477l3.403,1.965c1.27,0.734,3.192,0.813,4.292,0.18l13.683-7.883
			c1.1-0.634,0.959-1.742-0.308-2.473L1165.887,473.653L1165.887,473.653z M1028.405,466.324c-1.267-0.734-3.192-0.813-4.289-0.18
			l-12.955,7.463c-1.1,0.634-0.963,1.742,0.308,2.473l13.43,7.756c1.27,0.734,3.192,0.816,4.292,0.183l12.952-7.463
			c1.1-0.634,0.963-1.742-0.308-2.477L1028.405,466.324L1028.405,466.324z M1075.002,464.462c-1.267-0.731-3.192-0.813-4.292-0.18
			l-12.952,7.463c-1.1,0.634-0.963,1.742,0.308,2.477l13.43,7.756c1.27,0.731,3.192,0.813,4.292,0.18l12.952-7.463
			c1.1-0.634,0.963-1.742-0.308-2.477L1075.002,464.462z M1155.012,467.375c-1.267-0.731-3.189-0.813-4.289-0.18l-13.683,7.883
			c-1.1,0.634-0.96,1.742,0.308,2.477l3.406,1.965c1.267,0.731,3.189,0.813,4.289,0.18l13.683-7.883
			c1.1-0.634,0.963-1.742-0.308-2.473L1155.012,467.375L1155.012,467.375z M996.573,459.643c-1.267-0.734-3.192-0.813-4.289-0.18
			l-12.955,7.463c-1.1,0.634-0.963,1.742,0.308,2.473l13.43,7.756c1.27,0.734,3.192,0.813,4.292,0.183l12.952-7.463
			c1.1-0.634,0.963-1.742-0.308-2.477L996.573,459.643L996.573,459.643z M1153.937,443.947c-1.27-0.731-3.192-0.813-4.292-0.18
			l-39.213,22.593c-1.1,0.634-0.963,1.742,0.308,2.477l13.431,7.756c1.267,0.731,3.192,0.813,4.289,0.18l39.216-22.593
			c1.1-0.634,0.963-1.742-0.308-2.477L1153.937,443.947z M1175.662,456.454c-1.27-0.731-3.192-0.813-4.292-0.18l-12.952,7.463
			c-1.1,0.634-0.963,1.742,0.308,2.477l13.431,7.756c1.267,0.731,3.192,0.813,4.289,0.18l12.955-7.463
			c1.1-0.634,0.963-1.742-0.308-2.477L1175.662,456.454L1175.662,456.454z M1048.829,454.532c-1.27-0.734-3.192-0.813-4.292-0.18
			l-12.952,7.463c-1.1,0.634-0.963,1.742,0.308,2.473l13.43,7.756c1.267,0.734,3.192,0.816,4.289,0.183l12.955-7.463
			c1.1-0.634,0.963-1.742-0.308-2.477L1048.829,454.532L1048.829,454.532z M1095.143,452.835c-1.267-0.734-3.192-0.813-4.289-0.18
			l-12.955,7.463c-1.1,0.634-0.963,1.742,0.308,2.473l13.431,7.756c1.27,0.734,3.192,0.813,4.292,0.183l12.952-7.466
			c1.1-0.631,0.963-1.742-0.308-2.473L1095.143,452.835L1095.143,452.835z M1017.055,447.818c-1.27-0.731-3.192-0.813-4.292-0.18
			l-12.955,7.463c-1.097,0.634-0.96,1.742,0.311,2.477l13.43,7.756c1.267,0.731,3.189,0.813,4.289,0.18l12.955-7.463
			c1.1-0.634,0.959-1.742-0.308-2.477L1017.055,447.818L1017.055,447.818z M1069.245,442.743c-1.267-0.731-3.192-0.813-4.289-0.18
			L1052,450.027c-1.1,0.634-0.963,1.742,0.308,2.477l13.43,7.756c1.27,0.731,3.192,0.813,4.292,0.18l12.952-7.463
			c1.1-0.634,0.963-1.742-0.308-2.477L1069.245,442.743L1069.245,442.743z M1132.416,431.524c-1.267-0.734-3.189-0.816-4.289-0.183
			l-29.465,16.964c-1.1,0.634-0.959,1.742,0.308,2.477l13.43,7.756c1.27,0.731,3.192,0.813,4.292,0.18l29.462-16.964
			c1.1-0.634,0.963-1.742-0.308-2.473L1132.416,431.524L1132.416,431.524z M1037.196,436.191c-1.27-0.734-3.192-0.816-4.292-0.183
			l-12.952,7.463c-1.1,0.634-0.963,1.742,0.308,2.477l13.431,7.756c1.267,0.734,3.192,0.813,4.289,0.18l12.955-7.463
			c1.1-0.634,0.963-1.742-0.308-2.473L1037.196,436.191L1037.196,436.191z M1089.727,430.921c-1.27-0.734-3.192-0.813-4.292-0.183
			l-12.955,7.463c-1.097,0.634-0.96,1.742,0.308,2.477l13.431,7.756c1.27,0.734,3.192,0.813,4.292,0.18l12.955-7.463
			c1.1-0.634,0.959-1.742-0.308-2.473L1089.727,430.921L1089.727,430.921z M1057.401,424.524c-1.267-0.734-3.192-0.813-4.289-0.18
			l-12.955,7.463c-1.1,0.631-0.963,1.742,0.308,2.473l13.431,7.756c1.27,0.734,3.192,0.813,4.292,0.18l12.952-7.463
			c1.1-0.631,0.963-1.742-0.308-2.473L1057.401,424.524L1057.401,424.524z M1109.868,419.291c-1.27-0.731-3.192-0.813-4.292-0.18
			l-12.952,7.463c-1.1,0.634-0.963,1.742,0.308,2.477l13.43,7.756c1.267,0.731,3.192,0.813,4.289,0.18l12.955-7.463
			c1.1-0.634,0.959-1.742-0.308-2.477L1109.868,419.291L1109.868,419.291z M1088.789,406.336c-1.27-0.734-3.192-0.816-4.292-0.183
			l-24.235,13.945c-1.1,0.634-0.963,1.742,0.308,2.473l13.43,7.756c1.267,0.734,3.192,0.816,4.292,0.183l24.235-13.945
			c1.1-0.634,0.963-1.742-0.308-2.473L1088.789,406.336z"/>
		
			<linearGradient id="SVGID_10_" gradientUnits="userSpaceOnUse" x1="303.558" y1="256.8644" x2="304.558" y2="256.8644" gradientTransform="matrix(-222.757 223.076 -223.076 -222.757 125990.0859 -10150.8389)">
			<stop  offset="0" style="stop-color:#5360F3"/>
			<stop  offset="0" style="stop-color:#FF515F;stop-opacity:0.9606"/>
			<stop  offset="1" style="stop-color:#FF515F;stop-opacity:0.0284"/>
			<stop  offset="1" style="stop-color:#5360F3;stop-opacity:0"/>
		</linearGradient>
		<path serif:id="3" fill="url(#SVGID_10_)" d="M1073.546,399.32c-0.731-0.423-1.84-0.469-2.47-0.104L781.304,566.518
			c-0.634,0.366-0.554,1.005,0.177,1.426l8.264,4.773c0.731,0.42,1.84,0.466,2.47,0.101l289.771-167.298
			c0.634-0.366,0.554-1.005-0.177-1.429L1073.546,399.32L1073.546,399.32z"/>
		<path fill="#E5E5EE" d="M1128.148,624.002c-0.896-1.557-0.362-3.546,1.194-4.444l39.929-23.017
			c1.605-0.816,3.567-0.177,4.383,1.428c0.756,1.486,0.268,3.302-1.129,4.211l-39.929,23.017
			C1131.037,626.092,1129.048,625.558,1128.148,624.002L1128.148,624.002z"/>
	</g>
	<g>
		
			<linearGradient id="SVGID_11_" gradientUnits="userSpaceOnUse" x1="305.0581" y1="688.0535" x2="731.496" y2="688.0535" gradientTransform="matrix(1 0 0 -1 352.4 1022.04)">
			<stop  offset="0" style="stop-color:#FF764B"/>
			<stop  offset="1" style="stop-color:#6025FC;stop-opacity:0"/>
		</linearGradient>
		<path fill="url(#SVGID_11_)" d="M1083.397,359.684c1.797,6.275-1.413,14.064-7.168,17.387L741.101,570.557
			c-5.754,3.323-11.886,0.926-13.683-5.349l-69.461-256.919c-1.797-6.275,1.413-14.067,7.168-17.387l335.129-193.486
			c5.754-3.323,11.886-0.926,13.683,5.349L1083.397,359.684L1083.397,359.684z"/>
		
			<linearGradient id="SVGID_12_" gradientUnits="userSpaceOnUse" x1="306.562" y1="687.1855" x2="733.0006" y2="687.1855" gradientTransform="matrix(1 0 0 -1 352.4 1022.04)">
			<stop  offset="0" style="stop-color:#FF764B"/>
			<stop  offset="1" style="stop-color:#6025FC;stop-opacity:0"/>
		</linearGradient>
		<path fill="url(#SVGID_12_)" d="M1084.902,360.552c1.797,6.275-1.417,14.064-7.171,17.387L742.603,571.425
			c-5.751,3.323-11.883,0.926-13.68-5.349l-69.461-256.919c-1.8-6.275,1.413-14.064,7.168-17.387l335.129-193.486
			c5.754-3.323,11.883-0.926,13.68,5.349L1084.902,360.552L1084.902,360.552z"/>
		
			<linearGradient id="SVGID_13_" gradientUnits="userSpaceOnUse" x1="308.064" y1="687.1855" x2="731.4949" y2="687.1855" gradientTransform="matrix(1 0 0 -1 352.4 1022.04)">
			<stop  offset="0" style="stop-color:#FF764B"/>
			<stop  offset="1" style="stop-color:#6025FC;stop-opacity:0"/>
		</linearGradient>
		<path fill="url(#SVGID_13_)" d="M1083.403,360.028c1.779,6.208-1.42,13.927-7.134,17.226L743.315,569.485
			c-5.715,3.302-11.801,0.941-13.58-5.264l-68.779-254.543c-1.779-6.205,1.419-13.924,7.137-17.223l332.951-192.231
			c5.718-3.302,11.801-0.941,13.58,5.264L1083.403,360.028L1083.403,360.028z"/>
		
			<linearGradient id="SVGID_14_" gradientUnits="userSpaceOnUse" x1="316.949" y1="687.1855" x2="722.6151" y2="687.1855" gradientTransform="matrix(1 0 0 -1 352.4 1022.04)">
			<stop  offset="0" style="stop-color:#FF764B"/>
			<stop  offset="1" style="stop-color:#6025FC;stop-opacity:0"/>
		</linearGradient>
		<path fill="url(#SVGID_14_)" d="M669.349,308.152l338.434-195.396l67.232,248.801L736.577,556.953L669.349,308.152
			L669.349,308.152z"/>
		
			<linearGradient id="SVGID_15_" gradientUnits="userSpaceOnUse" x1="315.694" y1="768.6278" x2="731.4949" y2="768.6278" gradientTransform="matrix(1 0 0 -1 352.4 1022.04)">
			<stop  offset="0" style="stop-color:#FF764B"/>
			<stop  offset="1" style="stop-color:#FF515F;stop-opacity:0"/>
		</linearGradient>
		<path fill="url(#SVGID_15_)" fill-opacity="0.27" d="M1083.403,360.028c1.779,6.208-1.42,13.927-7.134,17.226l-53.414,30.839
			L668.094,292.455l332.951-192.231c5.718-3.302,11.801-0.941,13.58,5.264L1083.403,360.028L1083.403,360.028z"/>
		
			<linearGradient id="SVGID_16_" gradientUnits="userSpaceOnUse" x1="481.236" y1="817.9595" x2="487.2141" y2="817.9595" gradientTransform="matrix(1 0 0 -1 352.4 1022.04)">
			<stop  offset="0" style="stop-color:#FF764B"/>
			<stop  offset="1" style="stop-color:#6025FC;stop-opacity:0"/>
		</linearGradient>
		<path fill="url(#SVGID_16_)" d="M835.763,200.885c-1.581,0.914-2.477,3.089-1.998,4.853c0.475,1.764,2.144,2.452,3.722,1.538
			c1.581-0.914,2.477-3.089,1.998-4.853C839.01,200.659,837.341,199.971,835.763,200.885z"/>
		
			<linearGradient id="SVGID_17_" gradientUnits="userSpaceOnUse" x1="490.5096" y1="822.6667" x2="493.3784" y2="822.6667" gradientTransform="matrix(1 0 0 -1 352.4 1022.04)">
			<stop  offset="0" style="stop-color:#FF764B"/>
			<stop  offset="1" style="stop-color:#6025FC;stop-opacity:0"/>
		</linearGradient>
		<path fill="url(#SVGID_17_)" d="M843.927,197.835c-0.782,0.497-1.168,1.432-0.963,2.336c0.232,0.85,1.036,1.182,1.797,0.74
			c0.782-0.497,1.168-1.432,0.963-2.336C845.493,197.726,844.688,197.394,843.927,197.835z"/>
		
			<linearGradient id="SVGID_18_" gradientUnits="userSpaceOnUse" x1="474.0661" y1="813.1732" x2="476.9358" y2="813.1732" gradientTransform="matrix(1 0 0 -1 352.4 1022.04)">
			<stop  offset="0" style="stop-color:#FF764B"/>
			<stop  offset="1" style="stop-color:#6025FC;stop-opacity:0"/>
		</linearGradient>
		<path fill="url(#SVGID_18_)" d="M827.484,207.327c-0.784,0.498-1.169,1.435-0.963,2.339c0.231,0.85,1.036,1.182,1.794,0.74
			c0.785-0.497,1.172-1.434,0.966-2.339C829.049,207.218,828.245,206.886,827.484,207.327z"/>
		
			<linearGradient id="SVGID_19_" gradientUnits="userSpaceOnUse" x1="337.4117" y1="684.2365" x2="732.3803" y2="684.2365" gradientTransform="matrix(1 0 0 -1 352.4 1022.04)">
			<stop  offset="0" style="stop-color:#FF764B"/>
			<stop  offset="1" style="stop-color:#FF515F;stop-opacity:0"/>
		</linearGradient>
		
			<path fill="url(#SVGID_19_)" stroke="#FFFFFF" stroke-width="0.23" stroke-linecap="round" stroke-linejoin="round" stroke-miterlimit="1.5" stroke-opacity="0.5" d="
			M1025.404,131.874c-2.248-8.35-9.946-11.737-17.18-7.561L699.472,302.571c-7.235,4.179-11.286,14.347-9.041,22.7l58.76,218.461
			c2.245,8.349,9.943,11.74,17.177,7.561l308.752-178.258c7.235-4.176,11.286-14.347,9.041-22.697L1025.404,131.874
			L1025.404,131.874z"/>
		<g transform="matrix(.99512 0 0 .99943 0 0)" display="none">
		</g>
		
			<linearGradient id="SVGID_20_" gradientUnits="userSpaceOnUse" x1="348.3717" y1="680.5943" x2="743.3404" y2="680.5943" gradientTransform="matrix(1 0 0 -1 352.4 1022.04)">
			<stop  offset="0" style="stop-color:#FF764B"/>
			<stop  offset="1" style="stop-color:#FF515F;stop-opacity:0"/>
		</linearGradient>
		<path fill="url(#SVGID_20_)" d="M1036.361,135.517c-2.245-8.35-9.943-11.74-17.177-7.561L710.432,306.215
			c-7.235,4.176-11.286,14.347-9.041,22.697l58.76,218.464c2.245,8.349,9.943,11.737,17.177,7.561l308.752-178.258
			c7.235-4.179,11.286-14.347,9.041-22.7L1036.361,135.517L1036.361,135.517z"/>
		
			<linearGradient id="SVGID_21_" gradientUnits="userSpaceOnUse" x1="302.0191" y1="255.9289" x2="303.0191" y2="255.9289" gradientTransform="matrix(-286.7809 476.0782 -476.0782 -286.7809 209516.4375 -70317.8672)">
			<stop  offset="0" style="stop-color:#FF764B"/>
			<stop  offset="1" style="stop-color:#FF515F;stop-opacity:0"/>
		</linearGradient>
		<path fill="url(#SVGID_21_)" d="M1036.361,135.517c-2.245-8.35-9.943-11.74-17.177-7.561L710.432,306.215
			c-7.235,4.176-11.286,14.347-9.041,22.697l58.76,218.464c2.245,8.349,9.943,11.737,17.177,7.561l308.752-178.258
			c7.235-4.179,11.286-14.347,9.041-22.7L1036.361,135.517L1036.361,135.517z"/>
		
			<linearGradient id="SVGID_22_" gradientUnits="userSpaceOnUse" x1="350.9487" y1="680.0406" x2="745.9173" y2="680.0406" gradientTransform="matrix(1 0 0 -1 352.4 1022.04)">
			<stop  offset="0" style="stop-color:#FF764B"/>
			<stop  offset="1" style="stop-color:#FF515F;stop-opacity:0"/>
		</linearGradient>
		<path fill="url(#SVGID_22_)" d="M1038.939,136.069c-2.245-8.35-9.943-11.737-17.177-7.561L713.009,306.766
			c-7.235,4.179-11.286,14.35-9.041,22.7l58.76,218.461c2.245,8.353,9.943,11.74,17.177,7.564l308.752-178.261
			c7.235-4.176,11.286-14.347,9.041-22.697L1038.939,136.069L1038.939,136.069z"/>
		
			<linearGradient id="SVGID_23_" gradientUnits="userSpaceOnUse" x1="302.0191" y1="255.9289" x2="303.0191" y2="255.9289" gradientTransform="matrix(-286.7809 476.0782 -476.0782 -286.7809 209519.0313 -70317.3047)">
			<stop  offset="0" style="stop-color:#FF764B"/>
			<stop  offset="1" style="stop-color:#6025FC;stop-opacity:0"/>
		</linearGradient>
		<path fill="url(#SVGID_23_)" d="M1038.939,136.069c-2.245-8.35-9.943-11.737-17.177-7.561L713.009,306.766
			c-7.235,4.179-11.286,14.35-9.041,22.7l58.76,218.461c2.245,8.353,9.943,11.74,17.177,7.564l308.752-178.261
			c7.235-4.176,11.286-14.347,9.041-22.697L1038.939,136.069L1038.939,136.069z"/>
	</g>
	<g>
		<g>
			<g>
				<defs>
					<polygon id="SVGID_24_" points="1035.95,172.26 973.02,208.591 1016.102,368.776 1079.032,332.445 					"/>
				</defs>
				<clipPath id="SVGID_25_">
					<use xlink:href="#SVGID_24_"  overflow="visible"/>
				</clipPath>
				<g clip-path="url(#SVGID_25_)">
					<g transform="matrix(.99436 0 0 .99252 0 0)">
					</g>
				</g>
			</g>
		</g>
		<path fill="#361C8E" fill-opacity="0.25" d="M855.597,359.577l126.952-73.294l-19.367-72.011l-126.951,73.294L855.597,359.577z"/>
		<path fill="#211155" fill-opacity="0.902" d="M873.657,462.951l-108.87,62.857l-48.4-179.955L825.254,283L873.657,462.951
			L873.657,462.951z"/>
		<path fill="#FF515F" fill-opacity="0.902" d="M1099.859,332.354l-47.026,27.15l-48.4-179.952l47.027-27.15L1099.859,332.354
			L1099.859,332.354z"/>
		<path fill="#FFFFFF" fill-opacity="0.25" d="M869.545,363.9l126.948-73.294l-19.367-72.011l-126.948,73.294L869.545,363.9
			L869.545,363.9z M873.03,376.858l126.948-73.297l5.541,20.601l-126.948,73.297L873.03,376.858L873.03,376.858z M891.499,445.53
			l126.951-73.297l-10.914-40.584l-126.952,73.297L891.499,445.53L891.499,445.53z"/>
		<path fill="#91F6FC" d="M900.661,285.208l44.989,34.751l-61.697,35.622L900.661,285.208L900.661,285.208z"/>
		<path fill="#91F6FC" d="M939.006,277.084l36.962,25.371l-52.172,30.12L939.006,277.084L939.006,277.084z M955.093,254.872
			c3.866-2.23,7.944-0.545,9.102,3.765c1.161,4.307-1.036,9.617-4.901,11.85c-3.863,2.23-7.941,0.542-9.102-3.765
			C949.034,262.411,951.231,257.101,955.093,254.872z"/>
		
			<path fill="none" stroke="#FFFFFF" stroke-width="0.23" stroke-linecap="round" stroke-linejoin="round" stroke-miterlimit="1.5" stroke-opacity="0.902" d="
			M869.545,363.9l126.948-73.294l-19.367-72.011l-126.948,73.294L869.545,363.9L869.545,363.9z"/>
		<path fill="#FFFFFF" d="M847.104,296.01c0.299,1.106,1.316,1.554,2.276,1.002l3.765-2.175c0.96-0.554,1.496-1.901,1.197-3.007
			l-1.094-4.064c-0.299-1.106-1.316-1.554-2.275-0.999l-3.765,2.172c-0.96,0.554-1.496,1.901-1.197,3.007L847.104,296.01z
			 M866.471,368.021c0.299,1.106,1.316,1.554,2.275,1.002l3.765-2.175c0.96-0.554,1.496-1.901,1.197-3.007l-1.094-4.064
			c-0.295-1.106-1.316-1.554-2.272-1.002l-3.768,2.175c-0.956,0.554-1.493,1.901-1.197,3.007L866.471,368.021z M974.083,222.698
			c0.299,1.106,1.316,1.554,2.275,1.002l3.765-2.175c0.96-0.554,1.496-1.901,1.197-3.004l-1.094-4.067
			c-0.295-1.106-1.316-1.554-2.272-0.999l-3.768,2.172c-0.956,0.554-1.493,1.901-1.197,3.007L974.083,222.698L974.083,222.698z
			 M993.45,294.709c0.299,1.106,1.319,1.554,2.275,1.002l3.768-2.175c0.956-0.554,1.493-1.901,1.194-3.007l-1.091-4.064
			c-0.299-1.106-1.319-1.554-2.275-1.002l-3.768,2.175c-0.956,0.554-1.493,1.901-1.197,3.007L993.45,294.709L993.45,294.709z"/>
		<g>
			<path fill="#5360F3" d="M819.564,333.718c-0.158-0.594-0.707-0.835-1.218-0.539l-80.047,46.247
				c-0.534,0.347-0.792,0.992-0.643,1.611c0.158,0.594,0.707,0.835,1.219,0.539l80.047-46.247
				C819.455,334.983,819.713,334.337,819.564,333.718z M834.103,358.216c-0.158-0.594-0.707-0.835-1.218-0.536l-73.409,42.412
				c-0.534,0.347-0.792,0.992-0.643,1.611c0.158,0.594,0.704,0.835,1.219,0.536l73.409-42.412
				C833.994,359.48,834.252,358.835,834.103,358.216z"/>
			<path fill="#00FFC2" d="M801.579,355.319c-0.158-0.594-0.707-0.835-1.219-0.536l-59.458,34.351
				c-0.534,0.347-0.792,0.992-0.643,1.611c0.158,0.594,0.704,0.835,1.218,0.536l59.458-34.348
				C801.47,356.585,801.728,355.938,801.579,355.319L801.579,355.319z"/>
			<path fill="#FFFFFF" d="M788.054,374.001c-0.158-0.594-0.704-0.835-1.218-0.536l-35.859,20.717
				c-0.534,0.347-0.792,0.992-0.643,1.611c0.158,0.594,0.704,0.835,1.218,0.539l35.859-20.72
				C787.947,375.267,788.205,374.62,788.054,374.001L788.054,374.001z M791.579,426.379c-0.161-0.591-0.707-0.832-1.221-0.536
				l-26.904,15.544c-0.534,0.347-0.792,0.992-0.643,1.611c0.158,0.594,0.704,0.835,1.219,0.539l26.907-15.544
				C791.469,427.645,791.726,426.999,791.579,426.379L791.579,426.379z"/>
			<path fill="#5360F3" d="M815.055,434.278c-0.161-0.594-0.707-0.835-1.221-0.539l-39.728,22.956
				c-0.536,0.345-0.794,0.992-0.643,1.611c0.158,0.594,0.704,0.835,1.218,0.536l39.731-22.953
				C814.945,435.542,815.203,434.897,815.055,434.278L815.055,434.278z"/>
			<path fill="#00FFC2" d="M774.471,446.569c-0.158-0.594-0.707-0.835-1.219-0.536l-7.405,4.277
				c-0.534,0.348-0.791,0.995-0.643,1.614c0.158,0.591,0.704,0.832,1.218,0.536l7.405-4.277
				C774.363,447.835,774.62,447.189,774.471,446.569z"/>
			<path fill="#FFFFFF" d="M779.492,476.629c-0.158-0.594-0.707-0.835-1.218-0.539l-4.77,2.757
				c-0.534,0.347-0.792,0.992-0.643,1.611c0.158,0.594,0.707,0.835,1.219,0.539l4.77-2.757
				C779.383,477.893,779.641,477.248,779.492,476.629z"/>
			<path fill="#00FFC2" d="M844.914,427.723c-0.158-0.591-0.704-0.832-1.218-0.536l-66.141,38.214
				c-0.534,0.347-0.792,0.992-0.643,1.611c0.158,0.594,0.707,0.835,1.218,0.536l66.141-38.211
				C844.807,428.99,845.064,428.343,844.914,427.723z"/>
			<path fill="#FFFFFF" d="M769.36,406.366c-0.161-0.594-0.707-0.835-1.222-0.536l-5.203,3.007
				c-0.535,0.346-0.793,0.992-0.643,1.611c0.158,0.594,0.704,0.835,1.218,0.539l5.206-3.01
				C769.251,407.63,769.508,406.985,769.36,406.366z"/>
			<path fill="#5360F3" d="M764.352,420.199c-0.158-0.591-0.707-0.832-1.219-0.536l-5.206,3.007
				c-0.534,0.348-0.791,0.995-0.643,1.614c0.158,0.591,0.704,0.832,1.218,0.536l5.206-3.007
				C764.243,421.465,764.501,420.819,764.352,420.199z"/>
			<path fill="#00FFC2" d="M818.297,400.246c-0.161-0.594-0.707-0.835-1.222-0.539l-56.543,32.67
				c-0.534,0.347-0.792,0.992-0.643,1.611c0.158,0.594,0.704,0.835,1.218,0.536l56.546-32.667
				C818.186,401.51,818.444,400.865,818.297,400.246L818.297,400.246z"/>
		</g>
		<path fill="#BDD9F5" fill-opacity="0.902" d="M1098.451,332.122l-334.97,193.397l7.158,26.614
			c2.056,7.643,9.102,10.747,15.727,6.921l313.577-179.035c6.625-3.826,10.333-13.138,8.276-20.781l-7.155-26.614L1098.451,332.122z
			"/>
		<path fill="#FFFFFF" fill-opacity="0.902" d="M1101.065,332.625L766.091,526.019l7.158,26.614
			c2.056,7.646,9.105,10.747,15.727,6.924l310.967-179.537c6.625-3.826,10.333-13.138,8.276-20.781L1101.065,332.625z"/>
		<g>
			
				<linearGradient id="SVGID_26_" gradientUnits="userSpaceOnUse" x1="302.1015" y1="255.4685" x2="303.1015" y2="255.4685" gradientTransform="matrix(-417.8809 503.2327 -503.2327 -417.8809 255786.0781 -45170.7383)">
				<stop  offset="0" style="stop-color:#361C8E;stop-opacity:0.5"/>
				<stop  offset="1" style="stop-color:#361C8E;stop-opacity:0"/>
			</linearGradient>
			<path display="none" fill="url(#SVGID_26_)" d="M1038.939,136.069c-2.245-8.35-9.943-11.737-17.177-7.561L713.009,306.766
				c-7.235,4.179-11.286,14.35-9.041,22.7l4.137,15.374l334.97-193.397L1038.939,136.069L1038.939,136.069z"/>
			<path fill="#FFFFFF" fill-opacity="0.75" d="M992.893,168.458c-1.066-3.963-4.719-5.571-8.151-3.588L769.585,289.089
				c-3.433,1.983-5.358,6.811-4.292,10.774c1.066,3.963,4.721,5.571,8.155,3.588l215.156-124.219
				C992.037,177.25,993.959,172.424,992.893,168.458L992.893,168.458z M1033.3,145.131c-1.066-3.963-4.722-5.571-8.155-3.588
				l-16.501,9.528c-3.436,1.98-5.358,6.808-4.292,10.771c1.066,3.966,4.722,5.574,8.155,3.591l16.501-9.528
				C1032.441,153.922,1034.366,149.094,1033.3,145.131L1033.3,145.131z"/>
			<path fill="#C9D9F2" fill-opacity="0.898" d="M1048.327,136.456c-2.245-8.35-12.294-11.335-19.529-7.158L720.046,307.555
				c-7.238,4.179-11.286,14.347-9.041,22.7l4.134,15.374l2.626,0.506l334.97-193.394L1048.327,136.456L1048.327,136.456z
				 M991.665,168.428c-1.066-3.963-4.718-5.571-8.155-3.588L768.358,289.059c-3.436,1.983-5.358,6.811-4.292,10.774
				c1.066,3.963,4.721,5.571,8.155,3.588l215.156-124.219C990.809,177.219,992.732,172.391,991.665,168.428L991.665,168.428z
				 M1032.069,145.1c-1.066-3.963-4.718-5.571-8.154-3.588l-16.498,9.525c-3.436,1.983-5.358,6.811-4.292,10.774
				c1.066,3.966,4.719,5.574,8.155,3.591l16.501-9.528C1031.214,153.892,1033.136,149.064,1032.069,145.1L1032.069,145.1z"/>
			<path fill="#FFFFFF" fill-opacity="0.898" d="M1048.598,137.366c-2.245-8.35-9.943-11.74-17.177-7.561L722.669,308.064
				c-7.235,4.176-11.286,14.347-9.041,22.697l4.137,15.374l334.97-193.394L1048.598,137.366L1048.598,137.366z M994.291,168.937
				c-1.066-3.963-4.722-5.571-8.155-3.588L770.981,289.567c-3.433,1.983-5.355,6.808-4.289,10.774
				c1.066,3.963,4.719,5.571,8.152,3.588L990,179.71C993.432,177.728,995.357,172.9,994.291,168.937L994.291,168.937z
				 M1034.695,145.609c-1.066-3.966-4.722-5.571-8.155-3.591l-16.501,9.528c-3.433,1.983-5.358,6.811-4.292,10.774
				s4.722,5.571,8.155,3.588l16.501-9.525C1033.839,154.4,1035.761,149.572,1034.695,145.609z"/>
		</g>
		<path fill="#F75D5D" d="M726.114,319.353c1.861-1.075,3.82-0.262,4.374,1.816c0.554,2.077-0.509,4.636-2.373,5.712
			c-1.861,1.075-3.82,0.262-4.374-1.815C723.186,322.987,724.25,320.428,726.114,319.353z"/>
		<path fill="#6CCA2D" d="M735.417,313.979c1.861-1.075,3.823-0.259,4.374,1.819c0.554,2.077-0.509,4.636-2.37,5.712
			c-1.864,1.075-3.823,0.262-4.377-1.819C732.492,317.613,733.556,315.055,735.417,313.979z"/>
		<path fill="#FFD260" d="M744.132,308.95c1.861-1.075,3.823-0.262,4.374,1.816c0.554,2.077-0.509,4.636-2.37,5.712
			c-1.864,1.075-3.823,0.262-4.377-1.815C741.207,312.584,742.271,310.022,744.132,308.95z"/>
	</g>
	<g>
		<g transform="matrix(.99778 0 0 .9832 0 0)">
		</g>
		<path fill="#24E1C8" fill-opacity="0.899" d="M653.701,380.099c3.217-1.858,5.83-0.35,5.83,3.366s-2.614,8.24-5.83,10.098
			c-3.22,1.858-5.83,0.35-5.83-3.366S650.481,381.957,653.701,380.099z"/>
		<path fill="#7252FF" fill-opacity="0.899" d="M649.637,394.005c-1.091-0.594-1.767-1.916-1.767-3.808
			c0-3.716,2.611-8.24,5.83-10.098c1.642-0.95,3.128-1.02,4.188-0.369l34.467,19.91c1.011,0.627,1.636,1.916,1.636,3.732
			c0,3.716-2.614,8.24-5.83,10.098c-1.575,0.908-3.004,1.011-4.054,0.448v-0.003l-0.137-0.079L649.637,394.005L649.637,394.005z"/>
		
			<linearGradient id="SVGID_27_" gradientUnits="userSpaceOnUse" x1="281.291" y1="215.1642" x2="282.291" y2="215.1642" gradientTransform="matrix(13.2621 -23.6106 23.6106 13.2621 -8150.0933 4203.147)">
			<stop  offset="0" style="stop-color:#35FFD7;stop-opacity:0.899"/>
			<stop  offset="1" style="stop-color:#35FFD7;stop-opacity:0"/>
		</linearGradient>
		<path fill="url(#SVGID_27_)" d="M649.637,394.005c-1.091-0.594-1.767-1.916-1.767-3.808c0-3.716,2.611-8.24,5.83-10.098
			c1.642-0.95,3.128-1.02,4.188-0.369l34.467,19.91c1.011,0.627,1.636,1.916,1.636,3.732c0,3.716-2.614,8.24-5.83,10.098
			c-1.575,0.908-3.004,1.011-4.054,0.448v-0.003l-0.137-0.079L649.637,394.005L649.637,394.005z"/>
		<path display="none" fill="#74B0FF" fill-opacity="0.75" d="M688.162,400.003c3.217-1.855,5.83-0.347,5.83,3.369
			s-2.614,8.24-5.83,10.098c-3.22,1.858-5.833,0.35-5.833-3.366S684.942,401.861,688.162,400.003L688.162,400.003z"/>
		
			<linearGradient id="SVGID_28_" gradientUnits="userSpaceOnUse" x1="317.8496" y1="299.6888" x2="318.8496" y2="299.6888" gradientTransform="matrix(-9.6937 22.6268 -22.6268 -9.6937 10557.4658 -3896.8169)">
			<stop  offset="0" style="stop-color:#FFFFFF;stop-opacity:0.5"/>
			<stop  offset="1" style="stop-color:#FFFFFF;stop-opacity:0"/>
		</linearGradient>
		<path fill="url(#SVGID_28_)" d="M688.162,400.003c3.217-1.855,5.83-0.347,5.83,3.369s-2.614,8.24-5.83,10.098
			c-3.22,1.858-5.833,0.35-5.833-3.366S684.942,401.861,688.162,400.003L688.162,400.003z"/>
	</g>
	<g>
		
			<path fill="none" stroke="#17122C" stroke-width="0.23" stroke-linecap="round" stroke-linejoin="round" stroke-miterlimit="1.5" d="
			M603.686,329.353l-5.309,9.196l9.196,5.306l5.309-9.193L603.686,329.353z"/>
		<circle fill="#FFBC3F" cx="733.019" cy="197.339" r="7.338"/>
		<circle fill="#FF70E9" cx="663.339" cy="497.416" r="14.71"/>
		
			<path fill="none" stroke="#17122C" stroke-width="0.23" stroke-linecap="round" stroke-linejoin="round" stroke-miterlimit="1.5" d="
			M1160.276,366.053l0.698,12.751l-12.087-6.979L1160.276,366.053z"/>
		
			<path fill="none" stroke="#0C071A" stroke-width="0.23" stroke-linecap="round" stroke-linejoin="round" stroke-miterlimit="1.5" d="
			M657.95,577.094c1.06-2.623,3.515-4.572,5.83-4.42c2.315,0.152,3.875,1.849,5.483,4.505c1.575,2.604,3.232,4.332,5.599,4.332
			c2.391,0,4.487-1.773,5.632-4.417"/>
		
			<circle fill="none" stroke="#0C071A" stroke-width="0.23" stroke-linecap="round" stroke-linejoin="round" stroke-miterlimit="1.5" cx="798.713" cy="139.758" r="4.335"/>
		
			<path fill="none" stroke="#0C071A" stroke-width="0.23" stroke-linecap="round" stroke-linejoin="round" stroke-miterlimit="1.5" d="
			M1106.648,218.948c2.047,0,4.012-0.813,5.462-2.26c3.013-3.018,3.013-7.905,0-10.924c-1.449-1.447-3.414-2.26-5.462-2.26"/>
	</g>
</g>
</svg>
