<svg xmlns:rdf="http://www.w3.org/1999/02/22-rdf-syntax-ns#" xmlns="http://www.w3.org/2000/svg" xmlns:cc="http://web.resource.org/cc/" xmlns:xlink="http://www.w3.org/1999/xlink" xmlns:dc="http://purl.org/dc/elements/1.1/" xmlns:svg="http://www.w3.org/2000/svg" id="svg2" viewBox="0 0 177.54 184.65" version="1.0" width="100px">
                                                                                                  <defs id="defs5">
                                                                                                    <linearGradient id="linearGradient2146" x1="355.05" gradientUnits="userSpaceOnUse" y1="230.75" gradientTransform="matrix(.27544 0 0 .27544 196.17 -.75118)" x2="324.76" y2="593.93">
                                                                                                      <stop id="stop3197" stop-color="#fff" stop-opacity=".37441" offset="0"/>
                                                                                                      <stop id="stop3199" stop-color="#fff" stop-opacity="0" offset="1"/>
                                                                                                    </linearGradient>
                                                                                                    <radialGradient id="radialGradient2144" gradientUnits="userSpaceOnUse" cy="191.79" cx="191.85" gradientTransform="matrix(-.053101 .87269 -.70077 -.036556 429.45 -35.24)" r="109.16">
                                                                                                      <stop id="stop15610" stop-color="#89b0f1" offset="0"/>
                                                                                                      <stop id="stop15612" stop-color="#89b0f1" stop-opacity="0" offset="1"/>
                                                                                                    </radialGradient>
                                                                                                  </defs>
                                                                                                  <g id="g2034" transform="translate(-203.31 -25.181)" fill-rule="evenodd">
                                                                                                    <path id="path1940" stroke="#000" stroke-width=".55087" d="m306.05 54.802c-5-7.182-16.99-9.496-20.88-4.197-20.42 27.807-54.54 107.3-52.61 107.52-1.43 4.15-4.67 12.97-1.79 18.2 9.25 10.56 16.66 14.43 30.46 10.64l95.67-24.65c9.04-3.36 9.54-13.74 5.64-20.04-14.86-23.98-38.44-61.524-56.49-87.468z"/>
                                                                                                    <path id="path1942" fill="url(#radialGradient2144)" d="m297.08 65.408c-18.58 33.512-31.91 67.022-46.06 100.53-1.3 2.6-1.63 6.89-0.4 8.61 1.24 1.72 5.75 2.08 9.84 1.22l90.58-21.66c3.1-0.74 6.26-1.78 7.01-3.57 0.75-1.8-1.11-4.79-2.52-7.18-15.36-24.97-31.15-50.366-49.26-78.091-1.52-2.414-3.36-3.891-4.97-3.815-1.62 0.076-3.15 1.852-4.22 3.954z"/>
                                                                                                    <g id="g1944" fill="#41526e" transform="matrix(.49820 0 0 .49820 199.5 24.397)">
                                                                                                      <path id="path1946" d="m220.84 118.51c-8.09 2.99-18.85 4.21-32.53 3.48 9.04 31.26 14.02 65.31 15.69 96.57 6.98 0.94 13.01 0 18.12-2.78 2.31-31.26 3.84-64.17-1.28-97.27z"/>
                                                                                                      <path id="path1948" d="m216.89 229.93c-7.01-1.13-13.77 4.33-15.06 12.15-1.3 7.83 3.35 15.09 10.37 16.21 7.01 1.13 13.74-4.3 15.03-12.13 1.3-7.82-3.32-15.1-10.34-16.23z"/>
                                                                                                    </g>
                                                                                                    <path id="path1950" fill="#fff" d="m311.52 85.432c-4.04 1.49-9.4 2.097-16.21 1.733 4.5 15.575 6.98 32.535 7.81 48.115 3.48 0.47 6.49 0 9.03-1.39 1.15-15.57 1.91-31.97-0.63-48.458z"/>
                                                                                                    <path id="path1952" fill="#fff" d="m309.55 140.94c-3.5-0.56-6.86 2.16-7.51 6.06-0.64 3.89 1.67 7.51 5.17 8.07 3.49 0.56 6.84-2.14 7.49-6.04 0.64-3.9-1.66-7.53-5.15-8.09z"/>
                                                                                                    <path id="path1954" fill="url(#linearGradient2146)" d="m298.71 71.534c-15.89 30.836-28.74 61.676-41.96 92.506-1.07 2.15-2.74 5.57-1.72 6.99s1.96 1.09 5.34 0.37l28.54-7.18c-3.59-26.54-1.93-65.247 27.62-76.024l-10.23-16.777c-1.25-1.997-2.77-3.218-4.11-3.155-1.33 0.063-2.6 1.532-3.48 3.27z"/>
                                                                                                  </g>
                                                                                                </svg>