<?xml version="1.0" encoding="utf-8"?>
<!-- Generator: Adobe Illustrator 17.0.1, SVG Export Plug-In . SVG Version: 6.00 Build 0)  -->
<!DOCTYPE svg PUBLIC "-//W3C//DTD SVG 1.1//EN" "http://www.w3.org/Graphics/SVG/1.1/DTD/svg11.dtd">
<svg version="1.1" id="Layer_1" xmlns="http://www.w3.org/2000/svg" xmlns:xlink="http://www.w3.org/1999/xlink" x="0px" y="0px"
	 width="1438.074px" height="1330.708px" viewBox="0 0 1438.074 1330.708" enable-background="new 0 0 1438.074 1330.708"
	 xml:space="preserve">
<g id="Layer_1_1_">
	<g>
		<g>
			<path fill="#FFFFFF" d="M727.085,511.324H354.303v347.073h417.058v104.265H228.614V0h521.323l-56.803,104.265h-338.83v304.224
				H687.32L727.085,511.324z"/>
		</g>
	</g>
	<rect x="228.847" y="857.412" fill="#FFFFFF" width="708" height="105"/>
	<circle fill="#FFFFFF" cx="1103.94" cy="51.313" r="50.958"/>
	<path fill="#FFFFFF" d="M1001.868,419.311c-127.865-49.9-184.236-92.869-184.236-178.807c0-63.76,48.121-139.996,174.612-139.996
		c12.001,0,23.534,0.555,34.602,1.531V1.525c-9.866-0.524-20.017-0.816-30.478-0.816c-180.111,0-299.727,108.116-299.727,253.656
		c0,130.293,93.493,210.687,244.732,263.359c125.115,47.128,174.612,98.413,174.612,185.738
		c0,94.255-71.653,154.134-194.018,154.134c-2.713,0-5.42-0.028-8.12-0.076v104.893c0.009,0,0.019,0,0.028,0
		c218.609,0,323.102-126.01,323.102-268.779C1236.977,556.41,1158.607,481.686,1001.868,419.311z"/>
	
		<text transform="matrix(1 0 0 1 -1.525879e-004 1243.5254)" display="none" enable-background="new    " font-family="'Lato-Regular'" font-size="291">ERASOFTS</text>
	<g>
		<path fill="#FFFFFF" d="M199.8,1233.974H93.149v-191.316H199.8v19.76h-84.404v61.635h79.301v19.629h-79.301v70.402H199.8V1233.974
			z"/>
		<path fill="#FFFFFF" d="M264.444,1154.411v79.563h-22.246v-191.316h52.475c23.467,0,40.806,4.494,52.017,13.479
			c11.209,8.986,16.815,22.508,16.815,40.566c0,25.301-12.824,42.398-38.473,51.297l51.951,85.975H350.68l-46.324-79.563
			L264.444,1154.411L264.444,1154.411z M264.444,1135.306h30.49c15.703,0,27.219-3.118,34.547-9.356
			c7.328-6.236,10.992-15.593,10.992-28.069c0-12.648-3.729-21.766-11.188-27.35c-7.459-5.582-19.433-8.375-35.921-8.375h-28.92
			V1135.306z"/>
		<path fill="#FFFFFF" d="M528.126,1233.974l-23.816-60.85h-76.684l-23.555,60.85h-22.508l75.637-192.102h18.713l75.244,192.102
			H528.126z M497.374,1153.102l-22.246-59.279c-2.879-7.502-5.846-16.705-8.898-27.611c-1.92,8.375-4.668,17.58-8.244,27.611
			l-22.508,59.279H497.374z"/>
		<path fill="#FFFFFF" d="M686.728,1182.022c0,17.012-6.15,30.359-18.451,40.043s-29.27,14.525-50.904,14.525
			c-21.637,0-39.346-3.357-53.129-10.076v-29.574c8.723,4.102,17.993,7.328,27.808,9.684s18.952,3.533,27.415,3.533
			c12.387,0,21.526-2.355,27.415-7.066s8.833-11.035,8.833-18.975c0-7.152-2.705-13.217-8.113-18.189
			c-5.41-4.973-16.576-10.861-33.5-17.666c-17.449-7.066-29.75-15.135-36.902-24.209c-7.154-9.072-10.73-19.977-10.73-32.715
			c0-15.965,5.67-28.527,17.012-37.688c11.34-9.16,26.564-13.74,45.67-13.74c18.32,0,36.553,4.014,54.699,12.039l-9.945,25.518
			c-17.012-7.152-32.191-10.73-45.539-10.73c-10.121,0-17.797,2.204-23.031,6.608c-5.234,4.406-7.852,10.229-7.852,17.47
			c0,4.973,1.047,9.226,3.141,12.759s5.539,6.87,10.338,10.011c4.797,3.141,13.434,7.285,25.91,12.432
			c14.045,5.846,24.34,11.299,30.883,16.357c6.543,5.061,11.34,10.775,14.395,17.143
			C685.2,1165.884,686.728,1173.386,686.728,1182.022z"/>
		<path fill="#FFFFFF" d="M893.616,1138.054c0,31.145-7.786,55.354-23.358,72.627s-37.622,25.91-66.149,25.91
			c-28.877,0-51.058-8.571-66.542-25.714c-15.486-17.143-23.228-41.503-23.228-73.085c0-31.58,7.786-55.832,23.358-72.758
			c15.572-16.924,37.796-25.387,66.673-25.387c28.439,0,50.424,8.594,65.953,25.779
			C885.851,1082.614,893.616,1106.823,893.616,1138.054z M747.577,1138.054c0,23.555,4.754,41.417,14.264,53.587
			c9.508,12.17,23.598,18.255,42.268,18.255c18.582,0,32.604-6.02,42.071-18.059c9.465-12.039,14.198-29.967,14.198-53.783
			c0-23.467-4.69-41.264-14.067-53.391c-9.379-12.125-23.358-18.189-41.94-18.189c-18.758,0-32.911,6.064-42.464,18.189
			C752.354,1096.79,747.577,1114.587,747.577,1138.054z"/>
		<path fill="#FFFFFF" d="M965.72,1233.974h-31.014v-191.316h107.959v26.434H965.72v59.803h72.104v26.564H965.72V1233.974z"/>
		<path fill="#FFFFFF" d="M1143.427,1233.974h-31.275v-164.49h-56.27v-26.826h143.814v26.826h-56.27v164.49H1143.427z"/>
		<path fill="#FFFFFF" d="M1339.323,1182.022c0,17.012-6.15,30.359-18.451,40.043s-29.27,14.525-50.904,14.525
			c-21.637,0-39.346-3.357-53.129-10.076v-29.574c8.723,4.102,17.993,7.328,27.808,9.684s18.952,3.533,27.415,3.533
			c12.387,0,21.526-2.355,27.415-7.066s8.833-11.035,8.833-18.975c0-7.152-2.705-13.217-8.113-18.189
			c-5.41-4.973-16.576-10.861-33.5-17.666c-17.449-7.066-29.75-15.135-36.902-24.209c-7.154-9.072-10.73-19.977-10.73-32.715
			c0-15.965,5.67-28.527,17.012-37.688c11.34-9.16,26.564-13.74,45.67-13.74c18.32,0,36.553,4.014,54.699,12.039l-9.945,25.518
			c-17.012-7.152-32.191-10.73-45.539-10.73c-10.121,0-17.797,2.204-23.031,6.608c-5.234,4.406-7.852,10.229-7.852,17.47
			c0,4.973,1.047,9.226,3.141,12.759s5.539,6.87,10.338,10.011c4.797,3.141,13.434,7.285,25.91,12.432
			c14.045,5.846,24.34,11.299,30.883,16.357c6.543,5.061,11.34,10.775,14.395,17.143
			C1337.796,1165.884,1339.323,1173.386,1339.323,1182.022z"/>
	</g>
</g>
<g id="Layer_2">
</g>
</svg>
