<?xml version="1.0" encoding="utf-8"?>
<!-- Generator: Adobe Illustrator 17.0.1, SVG Export Plug-In . SVG Version: 6.00 Build 0)  -->
<!DOCTYPE svg PUBLIC "-//W3C//DTD SVG 1.1//EN" "http://www.w3.org/Graphics/SVG/1.1/DTD/svg11.dtd">
<svg version="1.1" id="Layer_1" xmlns:serif="http://www.serif.com/"
	 xmlns="http://www.w3.org/2000/svg" xmlns:xlink="http://www.w3.org/1999/xlink" x="0px" y="0px" width="612px" height="560.972px"
	 viewBox="0 101.605 612 560.972" enable-background="new 0 101.605 612 560.972" xml:space="preserve">
<g transform="matrix(.9893 0 0 .99726 0 0)">
</g>
<path fill="#24E1C8" fill-opacity="0.899" d="M378.96,251.907c3.663-2.114,6.635-0.398,6.635,3.832s-2.973,9.38-6.635,11.496
	c-3.663,2.114-6.638,0.398-6.638-3.832S375.297,254.023,378.96,251.907z"/>
<path fill="#24E1C8" fill-opacity="0.899" d="M374.335,267.734c-1.24-0.676-2.013-2.177-2.013-4.331c0-4.23,2.975-9.38,6.638-11.496
	c1.871-1.078,3.561-1.16,4.769-0.417l56.325,32.53c1.151,0.713,1.862,2.18,1.862,4.246c0,4.23-2.973,9.38-6.638,11.494
	c-1.791,1.036-3.418,1.153-4.611,0.508c-0.054-0.028-0.107-0.059-0.158-0.092L374.335,267.734L374.335,267.734L374.335,267.734z"/>
<linearGradient id="SVGID_1_" gradientUnits="userSpaceOnUse" x1="-343.8271" y1="254.4843" x2="-342.8271" y2="254.4843" gradientTransform="matrix(15.0945 -26.8728 26.8728 15.0945 -1253.6271 -12783.8203)">
	<stop  offset="0" style="stop-color:#593AF6;stop-opacity:0.899"/>
	<stop  offset="1" style="stop-color:#593AF6;stop-opacity:0"/>
</linearGradient>
<path fill="url(#SVGID_1_)" d="M374.335,267.734c-1.24-0.676-2.013-2.177-2.013-4.331c0-4.23,2.975-9.38,6.638-11.496
	c1.871-1.078,3.561-1.16,4.769-0.417l56.325,32.53c1.151,0.713,1.862,2.18,1.862,4.246c0,4.23-2.973,9.38-6.638,11.494
	c-1.791,1.036-3.418,1.153-4.611,0.508c-0.054-0.028-0.107-0.059-0.158-0.092L374.335,267.734L374.335,267.734L374.335,267.734z"/>
<path fill="#4FFCE7" fill-opacity="0.75" d="M435.278,284.435c3.665-2.114,6.638-0.398,6.638,3.832s-2.973,9.38-6.638,11.494
	c-3.663,2.116-6.635,0.398-6.635-3.83C428.642,291.701,431.615,286.551,435.278,284.435z"/>
<linearGradient id="SVGID_2_" gradientUnits="userSpaceOnUse" x1="-342.0818" y1="254.1134" x2="-341.0818" y2="254.1134" gradientTransform="matrix(-11.033 25.753 -25.753 -11.033 3212.6399 11888.168)">
	<stop  offset="0" style="stop-color:#BAFFF7"/>
	<stop  offset="1" style="stop-color:#BAFFF7;stop-opacity:0"/>
</linearGradient>
<path fill="url(#SVGID_2_)" d="M435.278,284.435c3.665-2.114,6.638-0.398,6.638,3.832s-2.973,9.38-6.638,11.494
	c-3.663,2.116-6.635,0.398-6.635-3.83C428.642,291.701,431.615,286.551,435.278,284.435z"/>
<g>
	<g>
		
			<path fill="none" stroke="#BDBDD8" stroke-width="0.42" stroke-linecap="round" stroke-linejoin="round" stroke-miterlimit="1.5" d="
			M178.111,473.406l-41.068,23.71 M175.072,529.042l-21.152,12.212 M296.328,237.405v-33.742 M174.246,417.057l-29.221,16.872
			l-11.021,19.087L101.54,471.76 M328.795,218.661v-33.742l9.615-16.656v-33.42 M297.778,595.867v-33.742 M328.795,592.518v-33.74
			l9.615-16.656V508.7"/>
	</g>
	<g>
		<path fill="#BDBDD8" d="M342.96,127.772c0,2.801-1.97,6.214-4.397,7.615c-2.427,1.403-4.397,0.264-4.397-2.537
			c0-2.803,1.97-6.214,4.397-7.617C340.99,123.832,342.96,124.969,342.96,127.772z M340.912,128.954c0,1.497-1.052,3.321-2.349,4.07
			c-1.297,0.749-2.349,0.141-2.349-1.356s1.052-3.321,2.349-4.07S340.912,127.457,340.912,128.954z M300.807,196.095
			c0,2.803-1.97,6.217-4.397,7.617c-2.427,1.401-4.397,0.264-4.397-2.54c0-2.801,1.97-6.214,4.397-7.615
			C298.837,192.155,300.807,193.294,300.807,196.095L300.807,196.095z M298.76,197.277c0,1.499-1.052,3.321-2.349,4.07
			c-1.297,0.749-2.349,0.141-2.349-1.356c0-1.497,1.052-3.321,2.349-4.07C297.707,195.172,298.76,195.779,298.76,197.277z
			 M102.465,471.622c0,2.801-1.97,6.214-4.397,7.615s-4.397,0.264-4.397-2.537c0-2.803,1.97-6.217,4.397-7.617
			C100.495,467.682,102.465,468.819,102.465,471.622z M100.417,472.804c0,1.497-1.052,3.321-2.349,4.07s-2.349,0.139-2.349-1.358
			s1.052-3.319,2.349-4.067C99.365,470.699,100.417,471.307,100.417,472.804L100.417,472.804z M138.103,497.199
			c0,2.803-1.97,6.217-4.397,7.617c-2.427,1.401-4.397,0.264-4.397-2.54c0-2.801,1.97-6.214,4.397-7.615
			C136.132,493.259,138.103,494.398,138.103,497.199L138.103,497.199z M136.055,498.381c0,1.499-1.052,3.321-2.349,4.07
			s-2.349,0.141-2.349-1.356c0-1.497,1.052-3.321,2.349-4.07C135.002,496.276,136.055,496.883,136.055,498.381z M155.227,541.183
			c0,2.801-1.97,6.214-4.397,7.615s-4.397,0.264-4.397-2.537c0-2.803,1.97-6.217,4.397-7.617
			C153.257,537.243,155.227,538.379,155.227,541.183z M153.179,542.365c0,1.497-1.052,3.321-2.349,4.07
			c-1.297,0.748-2.349,0.141-2.349-1.358c0-1.497,1.052-3.319,2.349-4.067C152.127,540.26,153.179,540.867,153.179,542.365
			L153.179,542.365z M302.175,597.534c0,2.803-1.97,6.214-4.397,7.617c-2.427,1.401-4.397,0.264-4.397-2.54
			c0-2.801,1.97-6.214,4.397-7.615C300.205,593.594,302.175,594.733,302.175,597.534L302.175,597.534z M300.127,598.716
			c0,1.497-1.052,3.321-2.349,4.07c-1.297,0.748-2.349,0.141-2.349-1.356s1.052-3.321,2.349-4.07
			C299.075,596.611,300.127,597.219,300.127,598.716z M332.942,594.33c0,2.801-1.97,6.214-4.397,7.617
			c-2.427,1.401-4.397,0.261-4.397-2.54c0-2.801,1.97-6.214,4.397-7.617C330.972,590.39,332.942,591.527,332.942,594.33
			L332.942,594.33z M330.894,595.512c0,1.497-1.052,3.321-2.349,4.07c-1.297,0.748-2.349,0.141-2.349-1.356s1.052-3.321,2.349-4.07
			C329.842,593.408,330.894,594.015,330.894,595.512z"/>
	</g>
	<g serif:id="4">
		<path fill="#BDBDD8" d="M449.008,309.327l15.867,9.161v116.026c0,21.648-17.576,49.372-39.224,61.871l-95.227,54.979
			l-15.867-9.161v-155.25L449.008,309.327L449.008,309.327z"/>
		<path fill="#DADAEB" d="M314.556,386.952l15.867,9.161v155.25l-15.867-9.161V386.952z"/>
		<path fill="#DCDCE9" d="M425.651,496.384c21.648-12.499,39.224-40.223,39.224-61.871V318.488l-134.452,77.625v155.25
			L425.651,496.384z"/>
		
			<linearGradient id="SVGID_3_" gradientUnits="userSpaceOnUse" x1="-343.0514" y1="254.1443" x2="-342.0514" y2="254.1443" gradientTransform="matrix(247.5022 -428.6864 428.6864 247.5022 -23773.6035 -209316.6563)">
			<stop  offset="0" style="stop-color:#FFFFFF"/>
			<stop  offset="1" style="stop-color:#FFFFFF;stop-opacity:0"/>
		</linearGradient>
		<path fill="url(#SVGID_3_)" d="M425.651,496.384c21.648-12.499,39.224-40.223,39.224-61.871V318.488l-134.452,77.625v155.25
			L425.651,496.384z"/>
		<path fill="#211155" d="M422.904,490.352c19.523-11.27,35.374-36.273,35.374-55.798v-104.64l-121.256,70.008v140.014
			L422.904,490.352L422.904,490.352z"/>
	</g>
	<g serif:id="3">
		<path fill="#BDBDD8" d="M453.033,165.999c7.304,2.909,11.842,10.237,11.842,21.236v115.983l-134.449,77.623l-15.87-9.116
			l-0.038-155.227l95.265-55.002c11.668-6.737,22.154-7.685,29.343-3.736l0.002-0.002l13.998,8.081L453.033,165.999L453.033,165.999
			z"/>
		
			<linearGradient id="SVGID_4_" gradientUnits="userSpaceOnUse" x1="-342.7093" y1="252.2763" x2="-341.7093" y2="252.2763" gradientTransform="matrix(-46.5788 73.3681 -73.3681 -46.5788 2881.2788 37240.2852)">
			<stop  offset="0" style="stop-color:#E4E4EE"/>
			<stop  offset="1" style="stop-color:#E4E4EE;stop-opacity:0"/>
		</linearGradient>
		<path fill="url(#SVGID_4_)" d="M453.033,165.999c7.304,2.909,11.842,10.237,11.842,21.236l-0.038,116.005l-134.452,77.625
			l-15.83-9.14l-0.038-155.227l95.265-55.002c11.668-6.737,22.154-7.685,29.343-3.736l0.002-0.002l13.998,8.081L453.033,165.999
			L453.033,165.999z"/>
		<path fill="#DCDCE9" d="M464.838,303.284l0.038-116.049c0-21.648-17.576-29.077-39.224-16.578l-95.265,55.002l0.04,155.227
			L464.838,303.284L464.838,303.284z"/>
		
			<linearGradient id="SVGID_5_" gradientUnits="userSpaceOnUse" x1="-343.0511" y1="253.9995" x2="-342.0508" y2="253.9995" gradientTransform="matrix(247.5022 -428.6864 428.6864 247.5022 -23773.6035 -209331.5)">
			<stop  offset="0" style="stop-color:#FFFFFF"/>
			<stop  offset="1" style="stop-color:#FFFFFF;stop-opacity:0"/>
		</linearGradient>
		<path fill="url(#SVGID_5_)" d="M464.838,303.284l0.038-116.049c0-21.648-17.576-29.077-39.224-16.578l-95.265,55.002l0.04,155.227
			L464.838,303.284L464.838,303.284z"/>
		<path fill="#211155" d="M456.905,298.701l0.033-102.352c0-19.094-15.5-25.645-34.595-14.622l-84.023,48.51l0.035,136.909
			L456.905,298.701z"/>
		<path fill="#D3D3E8" d="M330.386,380.909v-155.25l-15.999-9.236v155.25L330.386,380.909L330.386,380.909z"/>
	</g>
	<g serif:id="2">
		<path fill="#BDBDD8" d="M166.37,472.133l134.452-77.256l15.83,9.14l0.36,155.09l-95.55,55.165
			c-11.84,6.836-22.463,7.711-29.658,3.557l-13.998-8.081l0.068-0.118c-7.104-2.999-11.503-10.27-11.503-21.098L166.37,472.133
			L166.37,472.133z"/>
		<path fill="#DCDCE9" d="M317.011,559.107l-0.36-155.09l-134.412,77.277v116.4c0,21.648,17.574,29.077,39.222,16.578
			L317.011,559.107z"/>
		
			<linearGradient id="SVGID_6_" gradientUnits="userSpaceOnUse" x1="-343.051" y1="254.0004" x2="-342.0506" y2="254.0004" gradientTransform="matrix(247.5022 -428.6864 428.6864 247.5022 -23787.7598 -209308.4844)">
			<stop  offset="0" style="stop-color:#FFFFFF"/>
			<stop  offset="1" style="stop-color:#FFFFFF;stop-opacity:0"/>
		</linearGradient>
		<path fill="url(#SVGID_6_)" d="M317.011,559.107l-0.36-155.088l-134.412,77.274v116.4c0,21.648,17.574,29.077,39.222,16.578
			L317.011,559.107z"/>
		<path fill="#211155" d="M309.248,554.623l-0.32-137.217l-118.926,68.372v102.988c0,19.153,15.552,25.725,34.705,14.667
			L309.248,554.623z"/>
		<path fill="#9898C1" fill-opacity="0.5" d="M182.249,481.673l134.405-77.653l-15.83-9.14l-134.402,77.656L182.249,481.673z"/>
	</g>
	<g serif:id="1">
		<path fill="#BDBDD8" d="M300.822,224.447l15.867,9.161v155.253L182.24,466.486l-15.87-9.161V341.297
			c0-21.648,17.576-49.37,39.224-61.868L300.822,224.447z"/>
		
			<linearGradient id="SVGID_7_" gradientUnits="userSpaceOnUse" x1="-342.7061" y1="253.1096" x2="-341.7061" y2="253.1096" gradientTransform="matrix(-40.2653 77.2239 -77.2239 -40.2653 6013.7485 36966.7383)">
			<stop  offset="0" style="stop-color:#E4E4EE"/>
			<stop  offset="1" style="stop-color:#E4E4EE;stop-opacity:0"/>
		</linearGradient>
		<path fill="url(#SVGID_7_)" d="M300.822,224.447l15.867,9.161v155.253L182.24,466.486l-15.87-9.161V341.297
			c0-21.648,17.576-49.37,39.224-61.868L300.822,224.447z"/>
		<path fill="#DCDCE9" d="M182.239,466.486l134.449-77.625V233.608l-95.227,54.981c-21.648,12.499-39.222,40.22-39.222,61.868
			V466.486L182.239,466.486z"/>
		
			<linearGradient id="SVGID_8_" gradientUnits="userSpaceOnUse" x1="-343.0514" y1="253.8552" x2="-342.0514" y2="253.8552" gradientTransform="matrix(247.5022 -428.6864 428.6864 247.5022 -23787.3223 -209323.5938)">
			<stop  offset="0" style="stop-color:#FFFFFF"/>
			<stop  offset="1" style="stop-color:#FFFFFF;stop-opacity:0"/>
		</linearGradient>
		<path fill="url(#SVGID_8_)" d="M182.239,466.486l134.449-77.625V233.608l-95.227,54.981
			c-21.648,12.499-39.222,40.22-39.222,61.868V466.486L182.239,466.486z"/>
		<path fill="#211155" d="M189.842,453.316l119.244-68.845V246.778L224.63,295.54c-19.2,11.084-34.787,35.673-34.787,54.871v102.905
			H189.842z"/>
	</g>
	<g serif:id="1">
		<path fill="#372092" d="M426.314,497.444c21.648-12.499,39.224-40.22,39.224-61.868V203.519c0-21.648-17.576-29.077-39.224-16.578
			L235.86,296.901c-21.648,12.499-39.225,40.223-39.225,61.868v232.056c0,21.648,17.576,29.077,39.225,16.578L426.314,497.444z"/>
		<path fill="#472EC2" d="M429.353,499.197c21.648-12.497,39.224-40.22,39.224-61.868V205.275c0-21.648-17.576-29.077-39.224-16.578
			l-190.454,109.96c-21.648,12.497-39.225,40.22-39.225,61.868v232.054c0,21.648,17.576,29.077,39.225,16.578L429.353,499.197
			L429.353,499.197z"/>
		<path fill="#472EC2" d="M429.353,499.197c21.648-12.497,39.224-40.22,39.224-61.868V205.275c0-21.648-17.576-29.077-39.224-16.578
			l-190.454,109.96c-21.648,12.497-39.225,40.22-39.225,61.868v232.054c0,21.648,17.576,29.077,39.225,16.578L429.353,499.197
			L429.353,499.197z"/>
		<path fill="#472EC2" d="M429.353,499.197c21.648-12.497,39.224-40.22,39.224-61.868V205.275c0-21.648-17.576-29.077-39.224-16.578
			l-190.454,109.96c-21.648,12.497-39.225,40.22-39.225,61.868v232.054c0,21.648,17.576,29.077,39.225,16.578L429.353,499.197
			L429.353,499.197z"/>
		
			<linearGradient id="SVGID_9_" gradientUnits="userSpaceOnUse" x1="-342.9593" y1="253.961" x2="-341.9593" y2="253.961" gradientTransform="matrix(-271.9427 568.0206 -568.0206 -271.9427 51478.8672 263946.0625)">
			<stop  offset="0" style="stop-color:#FF6256"/>
			<stop  offset="1" style="stop-color:#FF6256;stop-opacity:0"/>
		</linearGradient>
		<path fill="url(#SVGID_9_)" d="M429.353,499.197c21.648-12.497,39.224-40.22,39.224-61.868V205.275
			c0-21.648-17.576-29.077-39.224-16.578l-190.454,109.96c-21.648,12.497-39.225,40.22-39.225,61.868v232.054
			c0,21.648,17.576,29.077,39.225,16.578L429.353,499.197L429.353,499.197z"/>
		<g>
			
				<path fill="none" stroke="#1F147C" stroke-width="0.47" stroke-linecap="round" stroke-linejoin="round" stroke-miterlimit="1.5" d="
				M421.969,491.423c19.97-11.529,36.181-37.104,36.181-57.071v-214.06c0-19.97-16.211-26.822-36.181-15.293L246.283,306.431
				c-19.968,11.529-36.181,37.101-36.181,57.071v214.059c0,19.97,16.213,26.822,36.181,15.293L421.969,491.423z"/>
			
				<path fill="none" stroke="#FFFFFF" stroke-width="0.47" stroke-linecap="round" stroke-linejoin="round" stroke-miterlimit="1.5" d="
				M330.452,257.836l-84.169,48.595c-19.968,11.529-36.181,37.101-36.181,57.071v29.192 M385.037,226.323l14.234-8.22
				 M210.102,512.014v65.548c0,19.97,16.213,26.822,36.181,15.293l21.775-12.572"/>
		</g>
		<path fill="#5DFDF5" d="M237.571,565.764c0,1.747-1.229,3.872-2.742,4.745c-1.511,0.873-2.74,0.165-2.74-1.582
			c0-1.747,1.229-3.874,2.74-4.748C236.343,563.309,237.571,564.018,237.571,565.764L237.571,565.764z"/>
	</g>
	<g display="none">
		
			<path display="inline" fill="none" stroke="#211155" stroke-width="0.42" stroke-linecap="round" stroke-linejoin="round" stroke-miterlimit="1.5" d="
			M336.308,265.373l-0.016,22.456l-17.757,10.251 M304.26,283.875l-0.016,22.456l-29.543,17.051 M258.648,332.651l-0.073,90.178
			 M304.785,416.511l67.868-39.177c26.408-15.243,47.865-52.387,47.889-82.893l16.056-9.269 M304.771,433.511l33.14-19.13
			l14.73-25.495 M330.021,450.75l18.687-10.788l12.468-21.58 M417.396,276.474c-6.88-16.759-24.285-21.446-44.655-9.686
			l-23.331,13.469 M272.66,391.205l-0.049,60.965l15.674,8.389 M272.592,477.358l-0.016,21.401l-14.078,21.632 M304.399,477.662
			l0.021-26.525"/>
		
			<path display="inline" fill="none" stroke="#211155" stroke-width="0.42" stroke-linecap="round" stroke-linejoin="round" stroke-miterlimit="1.5" d="
			M363.723,443.416l-48.084,27.759l0.021-26.525 M304.409,399.827l65.618-37.878c11.402-6.581,21.474-19.047,27.465-32.624
			c3.639-8.248,5.769-16.91,5.776-24.911c0.016-21.175-14.85-29.774-33.18-19.193l-10.684,6.167 M344.46,300.015l-31.026,17.91
			l-13.16,24.991 M291.59,330.532l-18.892,10.905l-0.026,34.839"/>
		
			<path display="inline" fill="none" stroke="#211155" stroke-width="0.42" stroke-linecap="round" stroke-linejoin="round" stroke-miterlimit="1.5" d="
			M320.716,390.414l14.375-25.692l32.168-18.569"/>
		
			<path display="inline" fill="none" stroke="#211155" stroke-width="0.42" stroke-linecap="round" stroke-linejoin="round" stroke-miterlimit="1.5" d="
			M383.006,326.536c1.535-3.957,2.413-8.024,2.415-11.819c0.009-11.572-8.114-16.27-18.129-10.489l-78.901,45.547l-0.087,109.157
			 M258.558,443.312l-0.087,110.546 M272.891,545.535l31.447-18.155l-0.019,23.411 M320.034,518.32l20.631-11.91l-0.016,23.411
			 M354.009,498.708l18.555-10.712c26.408-15.243,47.868-52.387,47.891-82.893c0.019-21.933-11.051-34.503-27.09-34.168
			 M397.101,285.981l-14.328,19.351 M396.978,440.634l-14.309-2.822"/>
		
			<path display="inline" fill="none" stroke="#211155" stroke-width="0.42" stroke-linecap="round" stroke-linejoin="round" stroke-miterlimit="1.5" d="
			M272.549,528.83l97.39-56.219c18.329-10.581,33.222-36.36,33.241-57.535c0.016-21.173-14.853-29.774-33.182-19.193l-13.81,7.972"
			/>
		
			<path display="inline" fill="none" stroke="#211155" stroke-width="0.42" stroke-linecap="round" stroke-linejoin="round" stroke-miterlimit="1.5" d="
			M385.334,425.378c0.009-11.569-8.116-16.27-18.129-10.486l-78.901,45.545l-0.033,41.924l78.901-45.547
			C377.185,451.033,385.325,436.947,385.334,425.378z M304.456,399.799l0.035-44.377 M304.496,355.42l62.784-36.242
			 M320.752,346.035l12.796,6.828l16.882-9.747"/>
	</g>
	<g display="none">
		<circle display="inline" fill="#211155" cx="258.504" cy="554.506" r="3.703"/>
		<circle display="inline" fill="#211155" cx="272.627" cy="546.352" r="3.703"/>
		<circle display="inline" fill="#211155" cx="272.627" cy="528.969" r="3.703"/>
		<circle display="inline" fill="#211155" cx="272.627" cy="475.734" r="3.703"/>
		<circle display="inline" fill="#211155" cx="258.549" cy="441.98" r="3.703"/>
		<circle display="inline" fill="#211155" cx="258.549" cy="425.324" r="3.703"/>
		<circle display="inline" fill="#211155" cx="258.549" cy="331.625" r="3.703"/>
		<circle display="inline" fill="#211155" cx="272.335" cy="323.664" r="3.703"/>
		<circle display="inline" fill="#211155" cx="317.204" cy="297.758" r="3.703"/>
		<circle display="inline" fill="#211155" cx="347.082" cy="280.509" r="3.703"/>
		<circle display="inline" fill="#211155" cx="335.988" cy="265.557" r="3.703"/>
		<circle display="inline" fill="#211155" cx="346.046" cy="298.883" r="3.703"/>
		<circle display="inline" fill="#211155" cx="358.776" cy="291.534" r="3.703"/>
		<circle display="inline" fill="#211155" cx="417.984" cy="277.411" r="3.703"/>
		<circle display="inline" fill="#211155" cx="293.518" cy="329.278" r="3.703"/>
		<circle display="inline" fill="#211155" cx="382.858" cy="326.524" r="3.703"/>
		<circle display="inline" fill="#211155" cx="368.808" cy="318.469" r="3.703"/>
		<circle display="inline" fill="#211155" cx="352.109" cy="341.982" r="3.703"/>
		<circle display="inline" fill="#211155" cx="369.043" cy="344.804" r="3.703"/>
		<circle display="inline" fill="#211155" cx="438.161" cy="283.745" r="3.703"/>
		<circle display="inline" fill="#211155" cx="304.336" cy="416.25" r="3.703"/>
		<circle display="inline" fill="#211155" cx="304.336" cy="433.633" r="3.703"/>
		<circle display="inline" fill="#211155" cx="355.398" cy="404.154" r="3.703"/>
		<circle display="inline" fill="#211155" cx="393.332" cy="371.365" r="3.703"/>
		<circle display="inline" fill="#211155" cx="327.99" cy="450.892" r="3.703"/>
		<circle display="inline" fill="#211155" cx="364.065" cy="442.262" r="3.703"/>
		<circle display="inline" fill="#211155" cx="304.719" cy="476.525" r="3.703"/>
		<circle display="inline" fill="#211155" cx="351.712" cy="499.576" r="3.703"/>
		<circle display="inline" fill="#211155" cx="318.033" cy="519.021" r="3.703"/>
		<circle display="inline" fill="#211155" cx="340.674" cy="531.028" r="3.703"/>
		<circle display="inline" fill="#211155" cx="304.213" cy="552.079" r="3.703"/>
		<circle display="inline" fill="#211155" cx="304.26" cy="283.875" r="3.703"/>
	</g>
	<g display="none">
		
			<path display="inline" fill="none" stroke="#66D2F0" stroke-width="0.42" stroke-linecap="round" stroke-linejoin="round" stroke-miterlimit="1.5" d="
			M349.162,273.047l-0.016,22.456l-17.757,10.251 M317.115,291.548l-0.019,22.456l-29.541,17.054 M271.5,340.324l-0.071,90.178
			 M317.64,424.185l67.866-39.177c26.408-15.243,47.868-52.387,47.891-82.893l16.056-9.267"/>
		
			<path display="inline" fill="none" stroke="#66D2F0" stroke-width="0.42" stroke-linecap="round" stroke-linejoin="round" stroke-miterlimit="1.5" d="
			M317.626,441.184l33.14-19.13l14.728-25.495 M342.875,458.424l18.687-10.788l12.468-21.58 M430.25,284.15
			c-6.88-16.762-24.285-21.446-44.655-9.686l-23.331,13.466 M285.514,398.879l-0.049,60.965l15.674,8.389 M285.446,485.034
			l-0.019,21.399l-14.076,21.632 M317.254,485.336l0.021-26.523"/>
		
			<path display="inline" fill="none" stroke="#66D2F0" stroke-width="0.42" stroke-linecap="round" stroke-linejoin="round" stroke-miterlimit="1.5" d="
			M376.578,451.089l-48.084,27.759l0.019-26.525 M317.263,407.503l65.618-37.88c11.402-6.581,21.474-19.045,27.465-32.624
			c3.637-8.248,5.769-16.908,5.776-24.911c0.016-21.173-14.853-29.774-33.182-19.193l-10.684,6.167 M357.314,307.688l-31.028,17.91
			l-13.158,24.991 M304.444,338.208l-18.892,10.905l-0.026,34.837"/>
		
			<path display="inline" fill="none" stroke="#66D2F0" stroke-width="0.42" stroke-linecap="round" stroke-linejoin="round" stroke-miterlimit="1.5" d="
			M333.571,398.088l14.375-25.692l32.168-18.569"/>
		
			<path display="inline" fill="none" stroke="#66D2F0" stroke-width="0.42" stroke-linecap="round" stroke-linejoin="round" stroke-miterlimit="1.5" d="
			M395.86,334.209c1.532-3.957,2.41-8.022,2.415-11.819c0.009-11.569-8.116-16.27-18.129-10.486l-78.901,45.545l-0.087,109.157
			 M271.413,450.986l-0.087,110.546 M285.743,553.209l31.45-18.155l-0.019,23.411 M332.888,525.993l20.631-11.91l-0.019,23.411
			 M366.863,506.381l18.555-10.712c26.408-15.243,47.868-52.387,47.891-82.891c0.016-21.936-11.051-34.505-27.09-34.168
			 M409.953,293.657l-14.326,19.349 M409.83,448.307l-14.307-2.82"/>
		
			<path display="inline" fill="none" stroke="#66D2F0" stroke-width="0.42" stroke-linecap="round" stroke-linejoin="round" stroke-miterlimit="1.5" d="
			M285.404,536.503l97.388-56.217c18.329-10.581,33.225-36.362,33.241-57.537c0.019-21.173-14.85-29.774-33.18-19.193l-13.81,7.975"
			/>
		
			<path display="inline" fill="none" stroke="#66D2F0" stroke-width="0.42" stroke-linecap="round" stroke-linejoin="round" stroke-miterlimit="1.5" d="
			M398.188,433.052c0.007-11.569-8.116-16.267-18.132-10.486l-78.899,45.547l-0.033,41.922l78.899-45.545
			C390.039,458.709,398.179,444.621,398.188,433.052z M317.31,407.475l0.035-44.379 M317.35,363.093l62.784-36.242 M333.606,353.708
			l12.793,6.828l16.884-9.747"/>
	</g>
	<g display="none">
		<circle display="inline" fill="#FFFFFF" cx="271.358" cy="562.182" r="3.703"/>
		<circle display="inline" fill="#FFFFFF" cx="285.482" cy="554.025" r="3.703"/>
		<circle display="inline" fill="#FFFFFF" cx="285.482" cy="536.642" r="3.703"/>
		<circle display="inline" fill="#FFFFFF" cx="285.482" cy="483.408" r="3.703"/>
		<circle display="inline" fill="#FFFFFF" cx="271.403" cy="449.654" r="3.703"/>
		<circle display="inline" fill="#FFFFFF" cx="271.403" cy="432.998" r="3.703"/>
		<circle display="inline" fill="#FFFFFF" cx="271.403" cy="339.298" r="3.703"/>
		<circle display="inline" fill="#FFFFFF" cx="285.19" cy="331.34" r="3.703"/>
		<circle display="inline" fill="#FFFFFF" cx="330.059" cy="305.433" r="3.703"/>
		<circle display="inline" fill="#FFFFFF" cx="359.936" cy="288.184" r="3.703"/>
		<circle display="inline" fill="#FFFFFF" cx="348.842" cy="273.23" r="3.703"/>
		<circle display="inline" fill="#FFFFFF" cx="358.9" cy="306.556" r="3.703"/>
		<circle display="inline" fill="#FFFFFF" cx="371.628" cy="299.207" r="3.703"/>
		<circle display="inline" fill="#FFFFFF" cx="430.839" cy="285.084" r="3.703"/>
		<circle display="inline" fill="#FFFFFF" cx="306.372" cy="336.951" r="3.703"/>
		<circle display="inline" fill="#FFFFFF" cx="395.712" cy="334.2" r="3.703"/>
		<circle display="inline" fill="#FFFFFF" cx="381.662" cy="326.143" r="3.703"/>
		<circle display="inline" fill="#FFFFFF" cx="364.964" cy="349.655" r="3.703"/>
		<circle display="inline" fill="#FFFFFF" cx="381.897" cy="352.477" r="3.703"/>
		<circle display="inline" fill="#FFFFFF" cx="451.016" cy="291.421" r="3.703"/>
		<circle display="inline" fill="#FFFFFF" cx="317.19" cy="423.924" r="3.703"/>
		<circle display="inline" fill="#FFFFFF" cx="317.19" cy="441.307" r="3.703"/>
		<circle display="inline" fill="#FFFFFF" cx="368.252" cy="411.827" r="3.703"/>
		<circle display="inline" fill="#FFFFFF" cx="406.187" cy="379.038" r="3.703"/>
		<circle display="inline" fill="#FFFFFF" cx="340.844" cy="458.568" r="3.703"/>
		<circle display="inline" fill="#FFFFFF" cx="376.917" cy="449.938" r="3.703"/>
		<circle display="inline" fill="#FFFFFF" cx="317.574" cy="484.199" r="3.703"/>
		<circle display="inline" fill="#FFFFFF" cx="364.566" cy="507.252" r="3.703"/>
		<circle display="inline" fill="#FFFFFF" cx="330.885" cy="526.697" r="3.703"/>
		<circle display="inline" fill="#FFFFFF" cx="353.529" cy="538.702" r="3.703"/>
		<circle display="inline" fill="#FFFFFF" cx="317.068" cy="559.752" r="3.703"/>
		<circle display="inline" fill="#FFFFFF" cx="317.115" cy="291.548" r="3.703"/>
	</g>
	<g display="none">
		<g transform="matrix(.9992 0 0 .99616 0 0)" display="inline">
		</g>
		<path display="inline" fill="#5DFDF5" fill-opacity="0.419" d="M344.554,489.25l11.894-6.871
			c13.643-7.885,23.414-15.554,29.31-23.009c5.896-7.455,8.841-15.653,8.834-24.595s-2.961-13.732-8.865-14.368
			c-5.903-0.636-15.677,2.987-29.319,10.872l-11.894,6.871L344.554,489.25z M344.478,391.521l9.957-5.753
			c16.962-9.801,25.436-22.472,25.424-38.017c-0.012-15.542-8.5-18.412-25.462-8.61l-9.957,5.753L344.478,391.521z M290.196,328.308
			l80.758-46.663c19.174-11.08,33.745-14.175,43.709-9.281c9.964,4.894,14.954,17.346,14.97,37.36
			c0.009,12.136-1.871,23.289-5.645,33.458c-3.776,10.169-9.531,20.257-17.27,30.268c7.744-2.773,14.337-3.973,19.779-3.601
			c5.442,0.37,9.872,2.123,13.285,5.263c3.415,3.14,5.863,7.476,7.344,13.012c1.481,5.534,2.222,11.922,2.229,19.16
			c0.022,11.19-1.696,22.315-5.094,32.977c-3.409,10.713-8.24,20.92-14.363,30.348c-6.172,9.531-13.683,18.344-22.531,26.436
			c-8.846,8.095-18.803,15.34-29.863,21.731l-87.118,50.339L290.196,328.308L290.196,328.308z"/>
		
			<path display="inline" fill="none" stroke="#FFFFFF" stroke-width="0.22" stroke-linejoin="round" stroke-miterlimit="1.414" stroke-opacity="0.419" d="
			M344.582,489.233l11.892-6.871c13.645-7.885,23.416-15.554,29.315-23.011c5.899-7.455,8.848-15.655,8.846-24.6
			c-0.002-8.947-2.954-13.737-8.855-14.375c-5.899-0.638-15.672,2.985-29.315,10.87l-11.894,6.871L344.582,489.233L344.582,489.233z
			 M344.561,391.474l9.957-5.753c16.962-9.801,25.44-22.477,25.438-38.024c-0.005-15.547-8.488-18.421-25.45-8.62l-9.957,5.753
			L344.561,391.474L344.561,391.474z M290.333,328.23l80.756-46.663c19.177-11.082,33.742-14.173,43.701-9.277
			s14.94,17.355,14.945,37.374c0.002,12.141-1.885,23.296-5.663,33.467c-3.778,10.171-9.538,20.262-17.28,30.275
			c7.744-2.77,14.335-3.971,19.775-3.599s9.867,2.128,13.278,5.268c3.413,3.14,5.856,7.481,7.332,13.017
			c1.478,5.539,2.217,11.927,2.217,19.167c0.017,11.195-1.706,22.324-5.108,32.989c-3.416,10.714-8.252,20.922-14.377,30.353
			c-6.174,9.533-13.688,18.348-22.536,26.443c-8.85,8.095-18.807,15.34-29.868,21.731l-87.118,50.339L290.333,328.23L290.333,328.23
			z"/>
		<g display="inline">
			<g>
				<defs>
					<path id="SVGID_10_" d="M349.577,491.983l11.892-6.873c13.645-7.883,23.414-15.554,29.312-23.009
						c5.896-7.457,8.841-15.655,8.834-24.602c-0.007-8.945-2.961-13.735-8.865-14.373c-5.903-0.638-15.677,2.987-29.322,10.87
						l-11.892,6.871L349.577,491.983L349.577,491.983z M349.501,394.225l9.957-5.753c16.962-9.801,25.438-22.477,25.424-38.024
						c-0.012-15.547-8.497-18.419-25.462-8.617l-9.954,5.753L349.501,394.225L349.501,394.225z M295.222,330.984l80.756-46.663
						c19.177-11.08,33.745-14.173,43.711-9.277c9.964,4.896,14.954,17.353,14.968,37.374c0.009,12.139-1.871,23.294-5.645,33.465
						c-3.773,10.171-9.531,20.262-17.27,30.275c7.744-2.773,14.337-3.971,19.779-3.601c5.442,0.372,9.872,2.128,13.285,5.268
						c3.415,3.142,5.863,7.481,7.344,13.017c1.478,5.536,2.222,11.927,2.227,19.167c0.025,11.193-1.694,22.322-5.094,32.987
						c-3.409,10.714-8.24,20.923-14.363,30.353c-6.172,9.533-13.681,18.346-22.529,26.443c-8.848,8.095-18.803,15.338-29.866,21.731
						l-87.118,50.339L295.222,330.984L295.222,330.984z"/>
				</defs>
				<clipPath id="SVGID_11_">
					<use xlink:href="#SVGID_10_"  overflow="visible"/>
				</clipPath>
				<g clip-path="url(#SVGID_11_)">
					<g transform="matrix(.99434 0 0 .99262 0 0)">
					</g>
				</g>
			</g>
		</g>
		<path display="inline" fill="#DCDCE9" fill-opacity="0.419" d="M349.581,491.91l11.892-6.871
			c13.643-7.883,23.414-15.554,29.31-23.009c5.896-7.455,8.841-15.653,8.836-24.598c-0.007-8.945-2.964-13.735-8.867-14.37
			c-5.903-0.638-15.677,2.987-29.319,10.87l-11.892,6.873L349.581,491.91z M349.504,394.169l9.957-5.753
			c16.962-9.801,25.438-22.475,25.426-38.019c-0.012-15.544-8.5-18.416-25.462-8.615l-9.957,5.753L349.504,394.169z
			 M295.224,330.944l80.758-46.663c19.174-11.08,33.745-14.173,43.709-9.279s14.954,17.35,14.97,37.365
			c0.009,12.139-1.874,23.291-5.647,33.462c-3.773,10.169-9.531,20.26-17.27,30.27c7.747-2.77,14.34-3.971,19.782-3.601
			c5.442,0.372,9.87,2.126,13.285,5.266c3.415,3.14,5.861,7.478,7.342,13.014c1.481,5.536,2.222,11.925,2.229,19.163
			c0.022,11.192-1.696,22.319-5.094,32.982c-3.409,10.713-8.24,20.921-14.363,30.35c-6.174,9.531-13.683,18.344-22.531,26.438
			c-8.848,8.095-18.803,15.34-29.866,21.731l-87.116,50.342L295.224,330.944L295.224,330.944z"/>
	</g>
</g>
<g>
	
		<path fill="none" stroke="#17122C" stroke-width="0.23" stroke-linecap="round" stroke-linejoin="round" stroke-miterlimit="1.5" d="
		M28.846,378.144l-4.799,8.314l8.314,4.799l4.799-8.311L28.846,378.144z"/>
	<circle fill="#FFBC3F" cx="174.479" cy="279.254" r="6.633"/>
	<circle fill="#FF70E9" cx="511.841" cy="484.526" r="13.299"/>
	<circle fill="#E1ECFD" cx="441.257" cy="229.451" r="6.37"/>
	
		<path fill="none" stroke="#17122C" stroke-width="0.23" stroke-linecap="round" stroke-linejoin="round" stroke-miterlimit="1.5" d="
		M560.768,431.79l0.631,11.527l-10.927-6.308L560.768,431.79L560.768,431.79z"/>
	
		<path fill="none" stroke="#0C071A" stroke-width="0.23" stroke-linecap="round" stroke-linejoin="round" stroke-miterlimit="1.5" d="
		M425.248,595.651c0.958-2.37,3.178-4.133,5.273-3.997c2.093,0.139,3.505,1.671,4.957,4.075c1.422,2.351,2.921,3.914,5.061,3.914
		c2.163,0,4.056-1.601,5.094-3.992"/>
	
		<circle fill="none" stroke="#0C071A" stroke-width="0.23" stroke-linecap="round" stroke-linejoin="round" stroke-miterlimit="1.5" cx="233.873" cy="227.194" r="3.919"/>
	
		<path fill="none" stroke="#0C071A" stroke-width="0.23" stroke-linecap="round" stroke-linejoin="round" stroke-miterlimit="1.5" d="
		M506.748,290.362c-0.1,3.856,2.945,7.063,6.801,7.163s7.063-2.945,7.163-6.801c0.003-0.121,0.003-0.241,0-0.362"/>
</g>
<g>
	<g transform="matrix(.98972 0 0 .9829 0 0)">
	</g>
	<path fill="#24E1C8" fill-opacity="0.899" d="M91.751,377.854c2.909-1.678,5.27-0.315,5.27,3.046c0,3.359-2.361,7.45-5.27,9.131
		c-2.912,1.678-5.273,0.315-5.273-3.044C86.478,383.626,88.839,379.535,91.751,377.854z"/>
	<path fill="#7252FF" fill-opacity="0.899" d="M88.076,390.428c-0.986-0.539-1.598-1.73-1.598-3.441
		c0-3.361,2.361-7.452,5.273-9.133c1.485-0.857,2.829-0.92,3.787-0.33l31.16,17.998v0.002c0.916,0.565,1.481,1.73,1.481,3.371
		c0,3.361-2.363,7.452-5.273,9.133c-1.424,0.821-2.716,0.913-3.665,0.402c-0.042-0.023-0.084-0.048-0.125-0.073L88.076,390.428
		L88.076,390.428z"/>
	
		<linearGradient id="SVGID_12_" gradientUnits="userSpaceOnUse" x1="-344.0413" y1="255.3777" x2="-343.0413" y2="255.3777" gradientTransform="matrix(11.9905 -21.3467 21.3467 11.9905 -1228.2694 -9996.6611)">
		<stop  offset="0" style="stop-color:#35FFD7;stop-opacity:0.899"/>
		<stop  offset="1" style="stop-color:#35FFD7;stop-opacity:0"/>
	</linearGradient>
	<path fill="url(#SVGID_12_)" d="M88.076,390.428c-0.986-0.539-1.598-1.73-1.598-3.441c0-3.361,2.361-7.452,5.273-9.133
		c1.485-0.857,2.829-0.92,3.787-0.33l31.16,17.998v0.002c0.916,0.565,1.481,1.73,1.481,3.371c0,3.361-2.363,7.452-5.273,9.133
		c-1.424,0.821-2.716,0.913-3.665,0.402c-0.042-0.023-0.084-0.048-0.125-0.073L88.076,390.428L88.076,390.428z"/>
	<path fill="#74B0FF" fill-opacity="0.75" d="M122.906,395.852c2.909-1.678,5.273-0.315,5.273,3.044
		c0,3.361-2.363,7.452-5.273,9.133c-2.909,1.678-5.273,0.315-5.273-3.044C117.633,401.623,119.997,397.532,122.906,395.852z"/>
	
		<linearGradient id="SVGID_13_" gradientUnits="userSpaceOnUse" x1="-341.8441" y1="253.5107" x2="-340.8441" y2="253.5107" gradientTransform="matrix(-8.7642 20.4572 -20.4572 -8.7642 2319.5193 9601.7979)">
		<stop  offset="0" style="stop-color:#FFFFFF;stop-opacity:0.5"/>
		<stop  offset="1" style="stop-color:#FFFFFF;stop-opacity:0"/>
	</linearGradient>
	<path fill="url(#SVGID_13_)" d="M122.906,395.852c2.909-1.678,5.273-0.315,5.273,3.044c0,3.361-2.363,7.452-5.273,9.133
		c-2.909,1.678-5.273,0.315-5.273-3.044C117.633,401.623,119.997,397.532,122.906,395.852z"/>
</g>
<g>
	
		<linearGradient id="SVGID_14_" gradientUnits="userSpaceOnUse" x1="-343.4415" y1="253.9977" x2="-342.4415" y2="253.9977" gradientTransform="matrix(96.4786 -118.4759 118.4759 96.4786 3321.2861 -64829.4492)">
		<stop  offset="0" style="stop-color:#380DAF;stop-opacity:0.347"/>
		<stop  offset="1" style="stop-color:#380DAF;stop-opacity:0"/>
	</linearGradient>
	<path fill="url(#SVGID_14_)" d="M316.658,287.96c15.001-8.662,27.182-1.631,27.182,15.693c0,17.322-12.181,38.417-27.182,47.079
		c-15.001,8.662-27.182,1.629-27.182-15.693S301.657,296.62,316.658,287.96z"/>
	<path fill="#A2C5FD" fill-opacity="0.75" d="M330.904,296.184c15.003-8.662,27.182-1.629,27.182,15.693
		s-12.179,38.419-27.182,47.079c-15.001,8.662-27.18,1.629-27.18-15.693S315.903,304.846,330.904,296.184z"/>
	<path fill="#FFFFFF" fill-opacity="0.75" d="M333.041,297.418c15.001-8.662,27.18-1.629,27.18,15.693s-12.179,38.417-27.18,47.079
		c-15.003,8.662-27.182,1.629-27.182-15.693S318.038,306.077,333.041,297.418z"/>
	
		<path fill="none" stroke="#0E16F6" stroke-width="0.28" stroke-linecap="round" stroke-linejoin="round" stroke-miterlimit="1.5" stroke-opacity="0.75" d="
		M322.988,349.334c1.349-5.732,5.36-11.644,10.091-14.377c4.684-2.702,8.657-1.476,10.049,2.594 M333.079,318.96
		c3.093-1.784,5.602-0.334,5.602,3.234c0,3.571-2.509,7.918-5.602,9.703c-3.091,1.784-5.6,0.334-5.6-3.234
		C327.479,325.092,329.988,320.747,333.079,318.96z"/>
</g>
<g>
	
		<linearGradient id="SVGID_15_" gradientUnits="userSpaceOnUse" x1="-343.2136" y1="253.9833" x2="-342.2136" y2="253.9833" gradientTransform="matrix(123.2066 -244.6817 244.6817 123.2066 -19590.0039 -114729.9688)">
		<stop  offset="0" style="stop-color:#0E0EC6;stop-opacity:0.355"/>
		<stop  offset="1" style="stop-color:#0E0EC6;stop-opacity:0"/>
	</linearGradient>
	<path fill="url(#SVGID_15_)" d="M262.051,420.015c0-4.934,3.001-10.67,6.701-12.805l112.191-64.775
		c3.698-2.135,6.701,0.134,6.701,5.068v91.249c0,4.931-3.004,10.67-6.701,12.805l-112.191,64.775
		c-3.7,2.135-6.701-0.134-6.701-5.068V420.015z"/>
	<path fill="#A2C5FD" fill-opacity="0.75" d="M278.444,429.48c0-4.931,3.004-10.67,6.701-12.805L397.339,351.9
		c3.698-2.135,6.701,0.134,6.701,5.068v91.249c0,4.931-3.004,10.67-6.701,12.805l-112.194,64.776
		c-3.698,2.135-6.701-0.134-6.701-5.068V429.48L278.444,429.48z"/>
	<path fill="#FFFFFF" fill-opacity="0.75" d="M280.835,430.422c0-4.934,3.004-10.67,6.701-12.807l112.191-64.773
		c3.7-2.135,6.704,0.134,6.704,5.068v91.249c0,4.931-3.004,10.67-6.704,12.805L287.536,526.74c-3.698,2.135-6.701-0.134-6.701-5.068
		V430.422L280.835,430.422z"/>
	
		<linearGradient id="SVGID_16_" gradientUnits="userSpaceOnUse" x1="-343.2943" y1="253.9934" x2="-342.2943" y2="253.9934" gradientTransform="matrix(78.8475 -181.9443 181.9443 78.8475 -18844.4805 -81947.3438)">
		<stop  offset="0" style="stop-color:#A2EBFF;stop-opacity:0.75"/>
		<stop  offset="1" style="stop-color:#A2EBFF;stop-opacity:0"/>
	</linearGradient>
	<path fill="url(#SVGID_16_)" d="M280.835,430.422c0-4.934,3.004-10.67,6.701-12.807l112.191-64.773
		c3.7-2.135,6.704,0.134,6.704,5.068v91.249c0,4.931-3.004,10.67-6.704,12.805L287.536,526.74c-3.698,2.135-6.701-0.134-6.701-5.068
		V430.422L280.835,430.422z"/>
	<path fill="#FFFFFF" d="M379.8,405.633c0-1.619-0.986-2.366-2.201-1.664l-67.932,39.253c-1.217,0.701-2.203,2.589-2.203,4.211
		s0.986,2.368,2.203,1.667l67.932-39.255C378.814,409.143,379.8,407.255,379.8,405.633L379.8,405.633z M379.8,420.816
		c0-1.622-0.986-2.368-2.201-1.667l-67.932,39.253c-1.217,0.704-2.203,2.589-2.203,4.211s0.986,2.368,2.203,1.667l67.932-39.255
		C378.814,424.323,379.8,422.435,379.8,420.816z M354.329,450.702c0-1.622-0.989-2.368-2.203-1.667l-42.459,24.532
		c-1.217,0.701-2.203,2.589-2.203,4.211s0.986,2.368,2.203,1.664l42.459-24.529C353.341,454.21,354.329,452.322,354.329,450.702z"/>
</g>
<g>
	<path fill="#1418A5" fill-opacity="0.5" d="M277.427,338.474l1.582,0.92l-8.709,15.1l8.7,5.018l-1.586,2.749l-10.286-5.934
		L277.427,338.474L277.427,338.474z M368.504,285.887l-1.582,2.752l8.709,5.025l-8.7,15.081l1.586,0.916l10.286-17.833
		L368.504,285.887L368.504,285.887z"/>
	<path fill="#FFFFFF" d="M283.368,341.904l1.582,0.92l-8.709,15.1l8.7,5.018l-1.586,2.752l-10.286-5.936L283.368,341.904z
		 M374.445,289.317l-1.582,2.752l8.709,5.025l-8.7,15.081l1.586,0.916l10.286-17.833L374.445,289.317L374.445,289.317z"/>
</g>
</svg>
