<?xml version="1.0" encoding="utf-8"?>
<!-- Generator: Adobe Illustrator 17.0.1, SVG Export Plug-In . SVG Version: 6.00 Build 0)  -->
<!DOCTYPE svg PUBLIC "-//W3C//DTD SVG 1.1//EN" "http://www.w3.org/Graphics/SVG/1.1/DTD/svg11.dtd">
<svg version="1.1" id="Layer_1" xmlns="http://www.w3.org/2000/svg" xmlns:xlink="http://www.w3.org/1999/xlink" x="0px" y="0px"
	 width="397.426px" height="78.013px" viewBox="0 0 397.426 78.013" enable-background="new 0 0 397.426 78.013"
	 xml:space="preserve">
<g id="XMLID_112_">
	<g id="XMLID_211_">
		<path id="XMLID_308_" fill="#085D51" d="M397.426,33.952c-0.04,0.037-0.109,0.069-0.116,0.111
			c-0.144,0.844-1.157,1.367-1.898,1.358c-1.665-0.02-3.33-0.006-4.995-0.006c-5.186,0-10.372,0-15.558,0c-0.226,0-0.452,0-0.66,0
			c-0.125,0.473-0.156,4.841-0.047,5.662c0.207,0.01,0.428,0.03,0.648,0.03c2.507,0.002,5.014,0.015,7.521-0.004
			c1.385-0.01,2.427,1.317,1.879,2.748c-0.269,0.702-0.808,1.097-1.546,1.207c-0.245,0.037-0.496,0.036-0.744,0.036
			c-10.487,0.002-20.974,0.002-31.46,0c-0.229,0-0.459-0.011-0.687-0.032c-0.876-0.079-1.749-0.816-1.749-2.009
			c0-1.067,0.883-1.936,1.947-1.941c2.526-0.012,5.052-0.004,7.578-0.004c0.224,0,0.449,0,0.712,0c0-1.912,0-3.757,0-5.687
			c-1.214-0.013-2.412-0.004-3.609-0.006c-1.225-0.002-2.449,0-3.674,0c-1.204,0-2.408,0-3.691,0
			c-0.151-1.636-0.465-3.214-1.163-4.695c-0.7-1.485-1.634-2.802-2.762-3.988c-1.129-1.186-2.408-2.179-3.847-2.962
			c-1.433-0.78-2.953-1.337-4.572-1.699c-0.012-0.219-0.03-0.407-0.031-0.595c-0.001-6.334-0.001-12.668-0.001-19.003
			c0-0.919,0.342-1.646,1.212-2.03c0.289-0.127,0.623-0.157,0.94-0.211c0.149-0.026,0.305-0.005,0.459-0.005
			c19.137,0,38.273,0,57.41,0.003c0.303,0,0.608,0.034,0.908,0.081c0.723,0.113,1.206,0.526,1.465,1.21
			c0.023,0.062,0.089,0.108,0.135,0.162C397.426,12.44,397.426,23.196,397.426,33.952z M358.785,21.4
			c0,1.053-0.003,2.105,0.002,3.158c0.001,0.209,0.005,0.425,0.056,0.626c0.163,0.65,0.765,1.003,1.411,0.834
			c0.164-0.043,0.323-0.12,0.472-0.204c1.282-0.722,2.566-1.441,3.84-2.175c2.699-1.555,5.393-3.119,8.086-4.682
			c0.197-0.115,0.396-0.237,0.564-0.389c0.639-0.577,0.623-1.321-0.038-1.869c-0.19-0.158-0.397-0.301-0.611-0.427
			c-3.843-2.249-7.688-4.494-11.535-6.736c-0.23-0.134-0.477-0.247-0.729-0.331c-0.712-0.238-1.262,0.03-1.492,0.736
			c-0.075,0.23-0.104,0.486-0.102,0.73c0.019,2.639,0.05,5.278,0.073,7.917C358.792,19.524,358.785,20.462,358.785,21.4z"/>
		<path id="XMLID_307_" fill="#58595B" d="M66.584,35.405c0.046,1.782-0.043,3.48-0.346,5.154c-0.176,0.973-0.51,1.917-0.724,2.885
			c-0.243,1.098-0.416,2.211-0.649,3.312c-0.138,0.652-0.297,1.304-0.511,1.934c-1.508,4.434-3.564,8.606-6.031,12.581
			c-1.929,3.109-4.084,6.051-6.549,8.756c-2.466,2.707-5.168,5.153-8.208,7.209c-0.221,0.149-0.452,0.291-0.695,0.399
			c-0.859,0.382-1.699,0.09-2.127-0.754c-1.003-1.98-1.8-4.045-2.504-6.148c-1.171-3.501-2.046-7.078-2.768-10.695
			c-0.048-0.243-0.088-0.491-0.171-0.722c-0.111-0.31-0.247-0.357-0.523-0.195c-0.279,0.164-0.517,0.355-0.69,0.659
			c-2.102,3.703-4.597,7.126-7.443,10.291c-0.856,0.952-1.735,1.883-2.626,2.803c-1.199,1.238-2.532,2.325-3.911,3.357
			c-0.474,0.355-0.93,0.732-1.399,1.094c-0.196,0.151-0.4,0.293-0.605,0.432c-0.857,0.581-1.918,0.086-2.227-0.641
			c-0.5-1.177-1.069-2.328-1.512-3.526c-1.585-4.288-2.732-8.706-3.793-13.146c-0.692-2.895-1.296-5.811-1.966-8.712
			c-1.162-5.03-2.533-9.997-4.529-14.772c-0.457-1.092-0.905-2.192-1.585-3.172c-0.485-0.699-1.104-1.26-1.85-1.673
			c-0.699-0.386-0.862-1.069-0.315-1.665c0.37-0.403,0.814-0.756,1.275-1.053c1.114-0.717,2.354-1.175,3.592-1.631
			c1.579-0.582,3.18-1.088,4.851-1.33c0.835-0.121,1.671-0.174,2.503,0.048c0.977,0.261,1.685,0.86,1.998,1.803
			c0.396,1.194,0.754,2.408,1.013,3.638c0.735,3.492,1.42,6.994,2.108,10.496c0.93,4.737,1.879,9.47,3.088,14.147
			c0.444,1.72,0.905,3.436,1.591,5.08c0.19,0.456,0.406,0.909,0.668,1.326c0.39,0.621,0.89,0.695,1.433,0.206
			c0.338-0.304,0.627-0.669,0.906-1.032c2.025-2.636,3.639-5.517,5.037-8.522c0.718-1.544,1.307-3.134,1.586-4.829
			c0.176-1.067,0.179-2.114-0.048-3.175c-0.435-2.036-0.841-4.078-1.525-6.05c-0.615-1.772-1.353-3.491-2.269-5.131
			c-0.436-0.78-0.97-1.456-1.799-1.871c-0.336-0.168-0.639-0.421-0.918-0.678c-0.632-0.582-0.663-1.026-0.03-1.589
			c0.495-0.44,1.044-0.849,1.631-1.149c2.74-1.398,5.616-2.395,8.687-2.756c0.492-0.058,0.993-0.046,1.489-0.056
			c0.897-0.018,1.551,0.398,1.927,1.193c0.243,0.515,0.428,1.062,0.587,1.609c0.954,3.284,1.642,6.631,2.276,9.987
			c0.605,3.205,1.149,6.421,1.747,9.627c0.603,3.228,1.242,6.449,2.185,9.599c0.367,1.226,0.767,2.441,1.397,3.563
			c0.158,0.282,0.34,0.559,0.553,0.801c0.479,0.543,0.992,0.614,1.562,0.169c0.403-0.314,0.766-0.691,1.1-1.08
			c1.489-1.733,2.477-3.759,3.341-5.849c0.869-2.102,1.622-4.243,2.111-6.471c0.384-1.748,0.491-3.514,0.41-5.294
			c-0.045-0.99-0.131-1.978-0.192-2.967c-0.082-1.336-0.63-2.507-1.288-3.638c-0.52-0.895-1.099-1.744-1.861-2.461
			c-0.713-0.671-1.516-1.138-2.488-1.335c-0.481-0.097-0.965-0.252-1.404-0.469c-0.625-0.31-0.747-0.84-0.402-1.442
			c0.3-0.523,0.721-0.94,1.204-1.291c3.019-2.192,6.318-3.708,10.062-4.131c0.682-0.077,1.371-0.098,2.057-0.121
			c1.521-0.05,2.57,0.699,3.286,1.987c0.536,0.965,0.804,2.015,0.985,3.095C66.576,32.773,66.627,34.126,66.584,35.405z"/>
		<path id="XMLID_306_" fill="#58595B" d="M113.941,65.233c0-1.856-0.015-3.711,0.004-5.566c0.021-2.082,0.073-4.165,0.111-6.247
			c0.038-2.063,0.076-4.126,0.115-6.189c0.038-2.044,0.077-4.088,0.115-6.132c0.039-2.101,0.082-4.203,0.114-6.304
			c0.043-2.848,0.107-5.696,0.106-8.543c-0.001-2.024-0.065-4.05-0.152-6.072c-0.095-2.209-0.357-4.406-0.687-6.591
			c-0.274-1.817-0.928-3.499-1.958-5.027c-0.356-0.528-0.772-0.993-1.344-1.304c-0.285-0.154-0.558-0.335-0.822-0.523
			c-0.514-0.366-0.628-0.879-0.269-1.391c0.205-0.293,0.465-0.56,0.743-0.787c0.94-0.767,2.018-1.305,3.121-1.792
			c2.149-0.95,4.328-1.827,6.62-2.373c0.795-0.189,1.611-0.34,2.424-0.382c0.615-0.032,1.255,0.028,1.846,0.307
			c0.445,0.21,0.689,0.543,0.735,1.013c0.103,1.044,0.206,2.089,0.274,3.136c0.096,1.485,0.164,2.971,0.235,4.457
			c0.046,0.972,0.094,1.945,0.112,2.918c0.048,2.58,0.089,5.161,0.114,7.742c0.012,1.224-0.015,2.448-0.036,3.672
			c-0.032,1.834-0.075,3.668-0.113,5.503c-0.038,1.834-0.077,3.668-0.115,5.503c-0.038,1.853-0.076,3.707-0.115,5.56
			c-0.038,1.815-0.096,3.63-0.11,5.445c-0.019,2.578-0.008,5.156-0.003,7.735c0.002,0.879,0.016,1.759,0.038,2.638
			c0.032,1.279,0.063,2.559,0.118,3.837c0.061,1.429,0.117,2.86,0.234,4.285c0.144,1.745,0.357,3.485,0.523,5.229
			c0.063,0.658,0.438,1.031,1.013,1.262c0.631,0.254,1.298,0.323,1.965,0.344c4.126,0.13,7.108-1.739,9.053-5.307
			c1.115-2.046,1.697-4.289,2.146-6.561c0.367-1.855,0.522-3.732,0.62-5.623c0.172-3.322-0.366-6.54-1.227-9.719
			c-0.331-1.222-0.856-2.373-1.647-3.38c-0.884-1.126-2.006-1.863-3.436-2.096c-0.533-0.087-1.059-0.098-1.586,0.064
			c-0.511,0.157-1.03,0.285-1.549,0.413c-0.779,0.192-1.359-0.04-1.717-0.767c-0.207-0.421-0.37-0.891-0.425-1.355
			c-0.127-1.063-0.128-2.133,0.113-3.191c0.454-1.997,1.636-3.462,3.318-4.557c1.375-0.895,2.909-1.3,4.527-1.486
			c2.757-0.318,5.138,0.646,7.397,2.072c2.539,1.604,4.216,3.878,5.266,6.67c0.912,2.427,1.547,4.909,1.832,7.491
			c0.267,2.422,0.301,4.848,0.162,7.268c-0.241,4.203-1.088,8.284-2.879,12.122c-1.978,4.24-4.761,7.823-8.715,10.412
			c-2.556,1.673-5.362,2.739-8.344,3.37c-2.629,0.556-5.29,0.759-7.97,0.719c-2.661-0.04-5.296-0.35-7.89-0.948
			c-1.358-0.313-1.768-1.017-1.808-2.095c-0.021-0.571-0.1-1.14-0.114-1.711c-0.061-2.388-0.108-4.776-0.16-7.164
			C113.889,65.233,113.915,65.233,113.941,65.233z"/>
		<path id="XMLID_305_" fill="#085D51" d="M341.675,43.166c0,2.047,0.014,4.094-0.003,6.141c-0.026,3.174-0.109,6.348-0.101,9.522
			c0.007,3.212,0.222,6.413,0.823,9.576c0.25,1.316,0.563,2.621,1.205,3.809c0.287,0.532,0.683,1.007,1.033,1.505
			c0.098,0.14,0.23,0.26,0.305,0.41c0.235,0.467,0.161,0.897-0.299,1.131c-0.503,0.256-1.053,0.45-1.605,0.568
			c-0.669,0.142-1.358,0.211-2.042,0.249c-1.106,0.062-2.216,0.124-3.321,0.092c-1.335-0.039-2.667-0.168-3.935-0.655
			c-1.342-0.516-2.368-1.351-2.692-2.811c-0.143-0.646-0.182-1.326-0.186-1.991c-0.013-2.009,0.004-4.017,0.031-6.026
			c0.021-1.586,0.073-3.171,0.112-4.757c0.037-1.49,0.075-2.98,0.114-4.47c0.037-1.433,0.085-2.865,0.111-4.298
			c0.014-0.768-0.207-1.013-0.979-1.003c-1.57,0.021-3.122,0.211-4.636,0.65c-2.359,0.683-4.529,1.74-6.419,3.321
			c-1.621,1.356-2.734,3.035-3.029,5.17c-0.278,2.008-0.007,3.893,1.375,5.489c1.008,1.164,2.296,1.558,3.805,1.417
			c1.218-0.114,2.274-0.593,3.279-1.252c0.693-0.455,1.134-0.343,1.634,0.343c0.349,0.48,0.473,1.037,0.554,1.608
			c0.161,1.127,0.165,2.249-0.165,3.352c-0.404,1.345-1.19,2.436-2.293,3.283c-1.966,1.508-4.157,2.478-6.655,2.679
			c-2.44,0.197-4.789-0.144-7.045-1.124c-2.601-1.13-4.428-3.002-5.527-5.609c-1.002-2.377-1.338-4.836-1.049-7.402
			c0.2-1.78,0.59-3.499,1.298-5.144c0.975-2.263,2.511-4.092,4.383-5.661c3.319-2.781,7.154-4.508,11.331-5.528
			c1.889-0.461,3.794-0.859,5.676-1.345c0.902-0.233,1.77-0.598,2.65-0.912c0.197-0.07,0.382-0.174,0.569-0.269
			c0.758-0.385,1.154-0.972,1.233-1.85c0.126-1.394,0.179-2.786,0.084-4.179c-0.036-0.526-0.157-1.061-0.328-1.562
			c-0.505-1.482-1.539-2.44-3.046-2.857c-2.133-0.59-4.2-0.477-6.13,0.7c-1.397,0.852-2.405,2.009-2.647,3.687
			c-0.058,0.406-0.029,0.838,0.041,1.245c0.1,0.582,0.255,1.157,0.423,1.724c0.166,0.563,0.029,1.043-0.398,1.398
			c-0.331,0.275-0.714,0.538-1.118,0.664c-1.984,0.621-4.003,0.785-6.029,0.214c-1.55-0.437-2.806-1.297-3.579-2.751
			c-0.651-1.225-0.856-2.54-0.518-3.883c0.833-3.305,2.718-5.781,5.895-7.155c2.181-0.943,4.462-1.546,6.816-1.902
			c2.037-0.308,4.079-0.224,6.121-0.191c2.848,0.046,5.609,0.632,8.303,1.496c2.486,0.797,4.358,2.419,5.656,4.677
			c0.52,0.905,0.801,1.907,0.831,2.954c0.071,2.503,0.116,5.008,0.171,7.512C341.732,43.165,341.703,43.165,341.675,43.166z"/>
		<path id="XMLID_304_" fill="#58595B" d="M195.051,44.181c0,0.861,0.01,1.722-0.003,2.583c-0.012,0.801-0.076,1.602-0.069,2.403
			c0.025,2.6,0.053,5.2,0.116,7.799c0.045,1.869,0.129,3.738,0.23,5.606c0.088,1.636,0.214,3.271,0.343,4.905
			c0.079,1.006,0.214,2.008,0.291,3.015c0.088,1.145-0.285,2.143-1.048,2.997c-0.688,0.77-1.534,1.327-2.468,1.736
			c-1.859,0.813-3.766,1.488-5.795,1.736c-0.932,0.114-1.867,0.152-2.793-0.06c-0.148-0.034-0.296-0.074-0.439-0.126
			c-0.655-0.239-0.913-0.632-0.831-1.316c0.076-0.625,0.194-1.244,0.275-1.868c0.218-1.683,0.445-3.365,0.634-5.051
			c0.174-1.553,0.318-3.109,0.446-4.666c0.081-0.989,0.112-1.981,0.163-2.972c0.07-1.371,0.141-2.742,0.204-4.113
			c0.041-0.896,0.092-1.793,0.098-2.69c0.023-3.731,0.034-7.462,0.04-11.193c0.002-1.301-0.013-2.602-0.039-3.902
			c-0.024-1.203-0.053-2.406-0.117-3.608c-0.097-1.808-0.202-3.616-0.351-5.42c-0.081-0.987-0.245-1.969-0.399-2.948
			c-0.064-0.407,0.049-0.725,0.361-0.96c0.195-0.146,0.42-0.291,0.652-0.342c2.174-0.471,4.289-0.368,6.277,0.742
			c0.947,0.529,1.625,1.316,2.117,2.273c0.044,0.085,0.087,0.171,0.13,0.256c0.341,0.669,0.923,0.78,1.468,0.241
			c1.682-1.661,3.752-2.519,6.028-2.964c1.847-0.361,3.716-0.451,5.588-0.337c2.458,0.15,4.839,0.633,7.05,1.784
			c3.511,1.828,5.587,4.709,6.314,8.58c0.247,1.316,0.368,2.651,0.321,3.988c-0.066,1.848-0.184,3.695-0.296,5.541
			c-0.076,1.256-0.166,2.512-0.271,3.767c-0.123,1.462-0.277,2.921-0.404,4.382c-0.07,0.798-0.125,1.597-0.166,2.397
			c-0.085,1.676-0.161,3.353-0.233,5.03c-0.14,3.257,0.084,6.481,0.952,9.637c0.398,1.447,0.98,2.814,1.888,4.027
			c0.114,0.152,0.216,0.316,0.296,0.488c0.31,0.67,0.102,1.292-0.581,1.553c-0.458,0.175-0.956,0.314-1.441,0.335
			c-2.05,0.088-4.089-0.048-6.083-0.564c-1.838-0.476-3.528-1.258-4.914-2.59c-1.574-1.513-2.413-3.41-2.799-5.529
			c-0.379-2.087-0.293-4.176-0.048-6.272c0.404-3.46,1.204-6.837,2.049-10.208c0.622-2.481,1.147-4.985,1.518-7.516
			c0.266-1.817,0.386-3.648,0.239-5.484c-0.093-1.165-0.33-2.304-0.806-3.382c-0.794-1.8-2.147-2.955-4.059-3.404
			c-1.488-0.35-2.987-0.344-4.484,0.019c-1.634,0.396-2.829,1.362-3.727,2.751c-0.887,1.373-1.258,2.891-1.31,4.504
			c-0.048,1.47-0.098,2.94-0.147,4.41C195.031,44.18,195.041,44.18,195.051,44.181z"/>
		<path id="XMLID_301_" fill="#58595B" d="M90.946,26.227c2.364-0.003,4.371,0.212,6.318,0.831c3.046,0.968,5.391,2.795,6.92,5.637
			c0.712,1.322,1.334,2.676,1.47,4.186c0.082,0.909,0.086,1.832,0.044,2.745c-0.05,1.066-0.161,2.128-0.534,3.148
			c-1.062,2.905-2.507,5.569-4.786,7.72c-1.065,1.006-2.286,1.787-3.568,2.477c-3.154,1.697-6.512,2.816-10.03,3.449
			c-1.22,0.219-2.451,0.395-3.685,0.511c-1.026,0.097-1.087,0.535-0.971,1.285c0.227,1.467,0.768,2.833,1.415,4.159
			c0.309,0.635,0.641,1.254,1.115,1.794c1.002,1.143,2.236,1.935,3.699,2.271c4.352,1.001,8.226,0.141,11.42-3.123
			c0.806-0.824,1.439-1.781,1.966-2.807c0.174-0.34,0.329-0.694,0.544-1.007c0.483-0.702,1.261-0.691,1.646,0.068
			c0.298,0.588,0.481,1.241,0.66,1.88c0.233,0.83,0.042,1.676-0.043,2.503c-0.163,1.583-0.584,3.103-1.274,4.551
			c-1.447,3.038-3.634,5.289-6.779,6.581c-2.189,0.9-4.447,1.491-6.8,1.735c-2.418,0.25-4.807,0.112-7.156-0.522
			c-2.353-0.635-4.414-1.804-6.142-3.527c-1.213-1.21-2.151-2.625-2.947-4.138c-1.694-3.217-2.627-6.659-3.071-10.253
			c-0.213-1.726-0.331-3.458-0.331-5.193c0.001-5.14,0.899-10.098,3.097-14.783c1.027-2.188,2.225-4.267,3.798-6.114
			c2.506-2.943,5.679-4.758,9.444-5.567C87.996,26.377,89.627,26.216,90.946,26.227z M81.222,47.523
			c0.048,0.952,0.092,1.905,0.147,2.856c0.022,0.378,0.176,0.558,0.543,0.625c0.186,0.034,0.383,0.043,0.571,0.022
			c2.224-0.252,4.342-0.836,6.267-2.019c1.48-0.909,2.837-1.959,3.727-3.487c0.547-0.939,1.082-1.891,1.532-2.879
			c0.972-2.136,1.269-4.387,0.943-6.712c-0.104-0.741-0.326-1.452-0.715-2.1c-0.822-1.37-2.121-1.869-3.628-1.908
			c-2.203-0.058-4.016,0.791-5.412,2.495c-1.513,1.847-2.511,3.955-3.123,6.254C81.476,42.915,81.233,45.203,81.222,47.523z"/>
		<path id="XMLID_215_" fill="#085D51" d="M244.266,76.912c-2.712,0.002-5.033-0.364-7.246-1.315
			c-2.633-1.132-4.658-2.967-6.191-5.359c-1.892-2.952-3.028-6.2-3.665-9.631c-0.332-1.785-0.559-3.583-0.591-5.402
			c-0.014-0.783-0.074-1.565-0.072-2.347c0.013-3.536,0.482-7.005,1.53-10.39c0.991-3.202,2.421-6.187,4.374-8.912
			c2.471-3.447,5.769-5.676,9.892-6.686c2.169-0.531,4.371-0.674,6.594-0.581c1.977,0.082,3.906,0.409,5.751,1.145
			c2.703,1.078,4.719,2.908,6.061,5.498c0.629,1.213,1.182,2.451,1.336,3.816c0.092,0.813,0.095,1.641,0.072,2.461
			c-0.118,4.15-1.999,7.536-4.648,10.575c-1.475,1.693-3.384,2.782-5.365,3.751c-2.133,1.044-4.358,1.848-6.67,2.395
			c-1.97,0.467-3.962,0.817-5.981,0.996c-0.783,0.07-1.054,0.412-0.936,1.175c0.307,1.975,1.034,3.802,2.097,5.474
			c1.022,1.608,2.583,2.556,4.412,2.963c2.8,0.623,5.549,0.423,8.143-0.897c1.938-0.986,3.446-2.453,4.569-4.312
			c0.267-0.441,0.496-0.904,0.742-1.358c0.073-0.134,0.128-0.28,0.213-0.406c0.503-0.739,1.247-0.727,1.679,0.056
			c0.549,0.993,0.778,2.071,0.692,3.206c-0.117,1.548-0.325,3.084-0.904,4.534c-1.039,2.604-2.503,4.901-4.914,6.463
			c-1.42,0.921-2.961,1.583-4.583,2.061C248.467,76.529,246.242,76.952,244.266,76.912z M237.631,47.613
			c0.034,0.775,0.073,1.767,0.124,2.759c0.022,0.42,0.252,0.66,0.694,0.686c0.281,0.017,0.567-0.042,0.851-0.071
			c1.864-0.189,3.628-0.716,5.275-1.61c1.542-0.837,2.98-1.827,3.977-3.302c1.512-2.236,2.715-4.606,2.923-7.37
			c0.095-1.268,0.07-2.523-0.305-3.746c-0.481-1.567-1.472-2.618-3.123-2.935c-0.654-0.126-1.313-0.141-1.991-0.073
			c-1.755,0.176-3.177,0.964-4.299,2.271c-1.437,1.673-2.426,3.606-3.074,5.714C237.938,42.366,237.665,44.863,237.631,47.613z"/>
		<path id="XMLID_214_" fill="#085D51" d="M270.212,47.3c0-0.957,0.011-1.914-0.002-2.871c-0.032-2.275-0.03-4.551-0.126-6.823
			c-0.1-2.383-0.274-4.763-0.461-7.141c-0.076-0.968-0.259-1.928-0.411-2.89c-0.112-0.713,0.128-1.152,0.813-1.361
			c0.253-0.078,0.521-0.134,0.784-0.148c1.698-0.093,3.355,0.1,4.931,0.782c1.464,0.633,2.537,1.68,3.246,3.102
			c0.269,0.54,0.422,0.616,0.912,0.296c0.447-0.292,0.862-0.633,1.283-0.962c2.047-1.596,4.367-2.488,6.955-2.658
			c2.437-0.16,4.792,0.21,7.069,1.115c2.878,1.144,4.758,3.181,5.612,6.157c0.264,0.92,0.39,1.863,0.485,2.816
			c0.117,1.172-0.041,2.322-0.12,3.481c-0.056,0.819-0.085,1.64-0.138,2.459c-0.064,0.971-0.206,1.942-0.195,2.911
			c0.012,1.046,0.157,2.091,0.252,3.136c0.036,0.399,0.107,0.795,0.139,1.194c0.05,0.62-0.382,1.258-1.067,1.557
			c-0.583,0.255-1.203,0.369-1.836,0.396c-1.707,0.072-3.399,0.018-5.037-0.554c-2.143-0.748-3.348-2.212-3.585-4.502
			c-0.13-1.253,0.145-2.432,0.447-3.613c0.321-1.258,0.758-2.489,0.907-3.786c0.114-0.989,0.186-1.985-0.077-2.963
			c-0.254-0.945-0.728-1.767-1.521-2.365c-0.61-0.46-1.308-0.665-2.074-0.732c-1.166-0.102-2.261,0.092-3.209,0.77
			c-1.257,0.899-2.155,2.066-2.608,3.592c-0.566,1.905-0.802,3.845-0.882,5.816c-0.041,0.992-0.098,1.985-0.11,2.978
			c-0.037,3.021-0.075,6.043-0.075,9.065c0,1.758,0.054,3.516,0.114,5.273c0.053,1.545,0.119,3.092,0.233,4.633
			c0.123,1.655,0.291,3.308,0.473,4.958c0.09,0.815-0.093,1.553-0.481,2.251c-0.458,0.825-1.147,1.434-1.946,1.905
			c-2.69,1.587-5.587,2.334-8.719,2.066c-0.517-0.044-1.019-0.158-1.47-0.431c-0.399-0.242-0.564-0.563-0.484-1.056
			c0.324-1.998,0.638-3.998,0.913-6.003c0.171-1.247,0.288-2.504,0.389-3.759c0.144-1.788,0.277-3.578,0.366-5.37
			c0.105-2.117,0.173-4.236,0.23-6.356c0.057-2.121,0.082-4.243,0.12-6.365C270.237,47.301,270.225,47.3,270.212,47.3z"/>
		<path id="XMLID_213_" fill="#58595B" d="M173.293,29.415c-0.083,1.427-0.172,2.854-0.247,4.282
			c-0.061,1.163-0.099,2.327-0.159,3.49c-0.059,1.142-0.138,2.283-0.2,3.425c-0.054,0.991-0.103,1.982-0.141,2.974
			c-0.082,2.117-0.163,4.234-0.229,6.351c-0.051,1.66-0.093,3.321-0.114,4.982c-0.037,2.867-0.101,5.734-0.066,8.6
			c0.032,2.631,0.115,5.266,0.453,7.881c0.169,1.305,0.384,2.601,0.976,3.809c0.388,0.791,0.162,1.346-0.667,1.628
			c-0.59,0.2-1.22,0.336-1.84,0.382c-3.178,0.236-6.183-0.442-9.05-1.796c-0.103-0.049-0.206-0.101-0.313-0.14
			c-0.564-0.207-0.897-0.617-1.083-1.176c-0.276-0.829-0.335-1.683-0.308-2.544c0.036-1.125,0.094-2.249,0.146-3.373
			c0.076-1.658,0.153-3.316,0.231-4.973c0.075-1.581,0.153-3.162,0.227-4.744c0.079-1.677,0.154-3.353,0.232-5.03
			c0.074-1.581,0.155-3.162,0.226-4.744c0.046-1.029,0.123-2.06,0.107-3.088c-0.04-2.672-0.186-5.338-0.81-7.952
			c-0.299-1.25-0.715-2.454-1.472-3.517c-0.371-0.52-0.801-0.965-1.361-1.287c-0.556-0.32-0.668-0.709-0.41-1.304
			c0.238-0.549,0.676-0.921,1.142-1.258c0.905-0.656,1.923-1.099,2.964-1.48c2.296-0.842,4.631-1.555,7.035-2.029
			c0.907-0.179,1.819-0.249,2.736-0.194c0.412,0.025,0.835,0.116,1.222,0.259c0.6,0.221,0.787,0.596,0.761,1.248
			c-0.017,0.439-0.003,0.88-0.003,1.32C173.282,29.414,173.287,29.414,173.293,29.415z"/>
		<path id="XMLID_212_" fill="#58595B" d="M160.644,14.294c-0.034-1.327,0.052-2.619,0.354-3.89c0.07-0.297,0.166-0.589,0.267-0.877
			c0.402-1.152,1.283-1.778,2.399-2.101c1.463-0.424,2.962-0.552,4.476-0.383c0.774,0.087,1.554,0.192,2.308,0.381
			c1.251,0.314,2.04,1.153,2.406,2.381c0.307,1.031,0.408,2.079,0.322,3.158c-0.059,0.745-0.118,1.478-0.342,2.197
			c-0.344,1.101-1.06,1.768-2.178,2.049c-1.038,0.261-2.083,0.206-3.132,0.153c-1.05-0.053-2.097-0.095-3.135,0.141
			c-0.772,0.176-1.416,0.537-1.911,1.17c-0.368,0.471-0.772,0.485-1.107-0.011c-0.228-0.338-0.376-0.75-0.473-1.15
			C160.641,16.45,160.616,15.36,160.644,14.294z"/>
	</g>
</g>
</svg>
